<svg width="20" height="13" viewBox="0 0 20 13" fill="none" xmlns="http://www.w3.org/2000/svg">
<path d="M19.9199 1.12C19.8185 0.875651 19.6243 0.681475 19.3799 0.58C19.2597 0.528759 19.1306 0.50158 18.9999 0.5H13.9999C13.7347 0.5 13.4804 0.605357 13.2928 0.792893C13.1053 0.98043 12.9999 1.23478 12.9999 1.5C12.9999 1.76522 13.1053 2.01957 13.2928 2.20711C13.4804 2.39464 13.7347 2.5 13.9999 2.5H16.5899L10.9999 8.09L7.70994 4.79C7.61698 4.69627 7.50637 4.62188 7.38452 4.57111C7.26266 4.52034 7.13195 4.4942 6.99994 4.4942C6.86793 4.4942 6.73722 4.52034 6.61536 4.57111C6.4935 4.62188 6.3829 4.69627 6.28994 4.79L0.289939 10.79C0.196211 10.883 0.121816 10.9936 0.0710475 11.1154C0.0202789 11.2373 -0.00585938 11.368 -0.00585938 11.5C-0.00585937 11.632 0.0202789 11.7627 0.0710475 11.8846C0.121816 12.0064 0.196211 12.117 0.289939 12.21C0.382902 12.3037 0.493503 12.3781 0.615362 12.4289C0.737222 12.4797 0.867927 12.5058 0.999939 12.5058C1.13195 12.5058 1.26266 12.4797 1.38452 12.4289C1.50637 12.3781 1.61698 12.3037 1.70994 12.21L6.99994 6.91L10.2899 10.21C10.3829 10.3037 10.4935 10.3781 10.6154 10.4289C10.7372 10.4797 10.8679 10.5058 10.9999 10.5058C11.132 10.5058 11.2627 10.4797 11.3845 10.4289C11.5064 10.3781 11.617 10.3037 11.7099 10.21L17.9999 3.91V6.5C17.9999 6.76522 18.1053 7.01957 18.2928 7.20711C18.4804 7.39464 18.7347 7.5 18.9999 7.5C19.2652 7.5 19.5195 7.39464 19.707 7.20711C19.8946 7.01957 19.9999 6.76522 19.9999 6.5V1.5C19.9984 1.36932 19.9712 1.24022 19.9199 1.12Z" fill="#10AC84"/>
</svg>
