<svg width="64" height="64" viewBox="0 0 64 64" fill="none" xmlns="http://www.w3.org/2000/svg">
<path d="M32 2C15.4315 2 2 15.4315 2 32C2 48.5685 15.4315 62 32 62C48.5685 62 62 48.5685 62 32C62 15.4315 48.5685 2 32 2Z" fill="#E9EAF1"/>
<path d="M32 2C15.4315 2 2 15.4315 2 32C2 48.5685 15.4315 62 32 62C48.5685 62 62 48.5685 62 32C62 15.4315 48.5685 2 32 2Z" stroke="white" stroke-width="4"/>
<g clip-path="url(#clip0_1_21981)">
<path d="M4 32C4 16.536 16.536 4 32 4C47.464 4 60 16.536 60 32C60 47.464 47.464 60 32 60C16.536 60 4 47.464 4 32Z" fill="#B5E2DC"/>
<path d="M47.6793 55.5773C47.5486 55.6707 47.3993 55.764 47.2686 55.8573C47.1193 55.9507 46.9886 56.044 46.8393 56.1187C46.7086 56.1933 46.5966 56.268 46.466 56.3427C46.4473 56.3613 46.4286 56.3613 46.41 56.38C45.9806 56.6413 45.5326 56.884 45.0846 57.108C44.954 57.1827 44.8046 57.2573 44.674 57.3133C44.674 57.3133 44.6553 57.332 44.6366 57.332C44.4873 57.4067 44.338 57.4813 44.1886 57.556C43.89 57.7053 43.5726 57.836 43.274 57.9667C43.1246 58.0413 42.9566 58.0973 42.8073 58.1533C42.658 58.2093 42.49 58.284 42.3406 58.34C42.1913 58.396 42.0233 58.4707 41.874 58.5267C41.874 58.5267 41.874 58.5267 41.8553 58.5267C41.706 58.5827 41.538 58.6387 41.3886 58.6947C41.0526 58.8067 40.698 58.9187 40.362 59.0307C40.25 59.068 40.1193 59.1053 40.0073 59.1427C39.6526 59.2547 39.298 59.348 38.9433 59.4227C38.8126 59.46 38.682 59.4787 38.5326 59.516C38.1966 59.5907 37.842 59.6653 37.506 59.74C37.4313 59.7587 37.3753 59.7587 37.3006 59.7773C37.1886 59.796 37.058 59.8147 36.946 59.8333C36.778 59.852 36.6286 59.8893 36.4606 59.908C36.386 59.9267 36.3113 59.9267 36.2366 59.9453C36.1433 59.964 36.0313 59.9827 35.9193 59.9827C35.6206 60.02 35.3033 60.0573 35.0046 60.0947C34.9113 60.1133 34.7993 60.1133 34.706 60.132H34.6873C34.5566 60.1507 34.426 60.1507 34.2953 60.1693C34.1646 60.188 34.034 60.188 33.9033 60.188C33.8286 60.188 33.7353 60.2067 33.6606 60.2067C33.5113 60.2067 33.3806 60.2253 33.25 60.2253C33.0633 60.2253 32.8953 60.244 32.7086 60.244C32.522 60.244 32.354 60.244 32.1673 60.244C32.0366 60.244 31.906 60.244 31.7753 60.244C23.9166 60.132 16.8233 56.7907 11.7833 51.4893C11.7833 51.4893 11.7833 51.4707 11.7646 51.4707C12.3433 50.332 14.49 48.2787 16.73 46.58C19.5673 44.4333 23.5806 43.108 23.5806 43.108C23.5806 43.108 26.2126 42.6787 35.9753 44.7133C43.4233 46.2813 46.5966 52.6467 47.6793 55.5773Z" fill="#F7D3B5"/>
<path d="M38.0475 49.8839C37.6555 51.8066 35.1168 52.9453 30.8421 51.2279C25.5968 49.0999 23.5808 43.1079 23.5808 43.1079C23.3008 38.8146 22.6475 35.1373 22.6475 35.1373C28.7141 34.6146 35.8821 41.7079 35.8821 41.7079L36.7035 45.2173C36.7781 45.5159 36.9275 45.7773 37.1515 45.9639C37.5435 46.6359 38.3088 48.6519 38.0475 49.8839Z" fill="#F7D3B5"/>
<path d="M37.1517 45.9826C33.5864 45.7959 30.9544 45.2733 28.1357 40.2146C30.5251 42.3239 33.3437 43.1266 36.3117 43.4999L36.7037 45.2173C36.7784 45.5346 36.9277 45.7959 37.1517 45.9826Z" fill="#EFBDA5"/>
<path d="M44.5244 23.4893C44.8604 25.0573 45.0284 26.3267 44.1137 30.508C43.199 34.6893 44.9537 38.8707 40.5484 42.6973C37.5804 45.2733 32.391 45.7587 28.247 42.94C26.847 41.988 25.559 40.6627 24.5137 38.9267C23.6924 37.564 22.7404 36.276 21.6764 35.1C20.2017 33.4947 18.4284 30.2653 19.3057 24.5533C20.7244 15.2573 29.927 14.1933 35.359 15.22C40.791 16.2467 43.6097 19.3453 44.5244 23.4893Z" fill="#F7D3B5"/>
<path d="M26.661 30.788C26.661 30.788 26.0823 27.988 23.357 28.324C21.005 28.6227 20.1836 34.26 25.5223 35.828" fill="#F7D3B5"/>
<path fill-rule="evenodd" clip-rule="evenodd" d="M24.4565 30.2398C24.7715 30.3691 24.9485 30.6395 25.0288 30.9661C25.1065 31.2824 25.1019 31.6772 25.0447 32.1272C25.0185 32.4001 25.1259 32.6199 25.2546 32.7827C25.319 32.8641 25.3859 32.9273 25.4364 32.9696C25.4614 32.9907 25.4818 33.0061 25.495 33.0157C25.5016 33.0204 25.5064 33.0237 25.509 33.0255C25.5101 33.0262 25.5107 33.0267 25.511 33.0269C25.6452 33.1135 25.6842 33.2923 25.5982 33.427C25.5118 33.5621 25.3323 33.6017 25.1972 33.5154L25.3485 33.2786C25.1972 33.5154 25.1971 33.5153 25.197 33.5152L25.1968 33.5151L25.1963 33.5148L25.1951 33.514C25.1942 33.5134 25.1932 33.5128 25.192 33.512C25.1896 33.5104 25.1866 33.5084 25.183 33.506C25.1758 33.5011 25.1662 33.4944 25.1545 33.486C25.1313 33.4691 25.0998 33.4452 25.063 33.4143C24.9898 33.3529 24.8934 33.262 24.7991 33.1428C24.6111 32.9049 24.4201 32.5379 24.4673 32.0658C24.4676 32.0632 24.4679 32.0606 24.4682 32.058C24.5225 31.6324 24.5177 31.3193 24.4649 31.1046C24.4146 30.8997 24.3306 30.8156 24.2356 30.7768L24.2335 30.7759C24.0254 30.6889 23.8934 30.6974 23.8117 30.7245C23.7272 30.7524 23.6538 30.8143 23.5911 30.9089C23.5275 31.0047 23.4844 31.1204 23.4598 31.2236C23.4478 31.2743 23.4412 31.3176 23.4385 31.3483C23.4374 31.3614 23.4371 31.3698 23.4371 31.3743C23.4623 31.5224 23.3695 31.6673 23.2213 31.7044C23.0657 31.7433 22.9081 31.6487 22.8692 31.4931C22.852 31.4242 22.8558 31.3476 22.8602 31.2976C22.8656 31.2361 22.877 31.1648 22.895 31.0893C22.9305 30.9399 22.9959 30.7557 23.1073 30.5879C23.2195 30.4188 23.3877 30.2532 23.6293 30.1732C23.8733 30.0925 24.1517 30.1125 24.4565 30.2398Z" fill="#423232"/>
<path d="M39.5966 35.0814C39.5966 35.0814 40.306 35.1187 40.978 34.3161C41.3513 33.8681 41.6686 33.3081 41.4633 33.1401C41.258 32.9534 37.8793 33.4761 37.6553 33.9241C37.4313 34.3721 38.738 35.0814 39.5966 35.0814Z" fill="#EFBDA5"/>
<path fill-rule="evenodd" clip-rule="evenodd" d="M40.4474 28.8031C40.4474 28.8031 40.4474 28.8031 40.4474 28.803C40.4474 28.803 40.4474 28.803 40.4474 28.8029C40.4438 28.6428 40.3112 28.5157 40.151 28.5191C39.9907 28.5225 39.8635 28.6552 39.8669 28.8155L40.1571 28.8094C39.8669 28.8155 39.8669 28.8156 39.8669 28.8157L39.8669 28.8159L39.8669 28.8165L39.8669 28.8182C39.867 28.8195 39.867 28.8213 39.8671 28.8235C39.8672 28.8278 39.8674 28.8339 39.8678 28.8416C39.8684 28.8571 39.8695 28.8791 39.8712 28.9074C39.8747 28.9639 39.881 29.0453 39.8921 29.1485C39.9144 29.3549 39.9562 29.6489 40.0346 30.0056C40.1911 30.7186 40.4943 31.6858 41.0815 32.7061M40.4474 28.8031C40.4474 28.8031 40.4474 28.8031 40.4474 28.8031L40.4474 28.8031L40.4474 28.8055C40.4475 28.808 40.4477 28.8121 40.4479 28.8179C40.4484 28.8294 40.4492 28.8474 40.4507 28.8715C40.4537 28.9197 40.4592 28.9922 40.4694 29.0862C40.4897 29.2741 40.5284 29.5472 40.6017 29.8811C40.7484 30.5494 41.0333 31.4582 41.5847 32.4166L41.5849 32.4167C41.9063 32.9763 41.8046 33.6755 41.4246 34.2401C41.0403 34.8112 40.3593 35.2735 39.4524 35.4059C39.2938 35.4291 39.1464 35.3193 39.1232 35.1606C39.1 35.002 39.2099 34.8546 39.3685 34.8314C40.123 34.7212 40.6553 34.3435 40.9429 33.9159C41.235 33.482 41.2639 33.0239 41.0815 32.7062" fill="#423232"/>
<path opacity="0.42" d="M30.0389 36.0333C31.1007 36.0333 31.9615 35.3229 31.9615 34.4467C31.9615 33.5704 31.1007 32.86 30.0389 32.86C28.977 32.86 28.1162 33.5704 28.1162 34.4467C28.1162 35.3229 28.977 36.0333 30.0389 36.0333Z" fill="#ED938A"/>
<path opacity="0.42" d="M43.8148 32.8973C43.7588 33.9427 43.7775 34.9693 43.7028 35.996C42.8815 35.8093 42.2842 35.1933 42.2842 34.4653C42.2842 33.6813 42.9375 33.0467 43.8148 32.8973Z" fill="#ED938A"/>
<path d="M49.566 52.0999C46.9153 48.6839 42.8086 47.2653 40.55 46.4253C40.3633 45.4919 40.0087 44.4653 39.4487 43.4759C38.59 43.9986 37.6007 44.3906 36.574 44.5959L36.7233 45.2119C36.798 45.5106 37.1713 46.8919 36.5927 48.6653C36.1073 50.1586 34.1473 50.8306 30.8247 49.3186C24.3473 46.3879 23.6007 43.0839 23.6007 43.0839C23.4887 41.2919 23.302 39.6119 23.134 38.2493C21.118 38.6973 18.7847 39.6119 17.5153 41.5346C15.9473 43.8866 15.3687 46.2759 15.518 48.1799C12.7927 49.9159 8.574 52.5479 7.19266 57.2519C5.40066 63.3746 5.69933 67.1266 5.69933 67.1266H53.934C53.878 67.1453 53.1686 56.7479 49.566 52.0999Z" fill="#6060D8"/>
<path fill-rule="evenodd" clip-rule="evenodd" d="M20.6536 45.6961C20.8088 45.6562 20.9671 45.7496 21.0071 45.9049L20.7259 45.9773C21.0071 45.9049 21.007 45.9048 21.007 45.9047L21.007 45.9046C21.007 45.9046 21.007 45.9046 21.007 45.9047L21.0074 45.9062C21.0078 45.9076 21.0085 45.9102 21.0094 45.9137C21.0114 45.9208 21.0145 45.9321 21.0189 45.9473C21.0276 45.9777 21.0414 46.0238 21.0609 46.0844C21.0999 46.2055 21.1616 46.384 21.2513 46.6087C21.4308 47.0583 21.7218 47.6921 22.1661 48.4208C23.0545 49.8777 24.5545 51.7128 27.0005 53.2152C27.1372 53.2991 27.1799 53.4779 27.096 53.6145C27.012 53.7512 26.8333 53.7939 26.6966 53.71C24.1587 52.1511 22.5974 50.2435 21.6704 48.7231C21.207 47.9631 20.9019 47.2995 20.7121 46.824C20.6172 46.5861 20.551 46.3951 20.5082 46.2623C20.4869 46.1959 20.4713 46.144 20.461 46.1081C20.4558 46.0902 20.4519 46.0762 20.4492 46.0664C20.4479 46.0615 20.4469 46.0576 20.4461 46.0548L20.4452 46.0514L20.445 46.0503L20.4449 46.0499C20.4448 46.0498 20.4448 46.0496 20.7259 45.9773L20.4448 46.0496C20.4048 45.8944 20.4983 45.7361 20.6536 45.6961Z" fill="#423232"/>
<path fill-rule="evenodd" clip-rule="evenodd" d="M40.4657 46.1424C40.622 46.1063 40.7779 46.2036 40.814 46.3598L40.5312 46.4253C40.814 46.3598 40.814 46.3599 40.8141 46.3601L40.8141 46.3604L40.8144 46.3615L40.8153 46.3653C40.816 46.3685 40.817 46.3731 40.8183 46.379C40.8209 46.3908 40.8247 46.408 40.8294 46.4303C40.8388 46.4748 40.852 46.5397 40.8677 46.6227C40.8991 46.7888 40.9404 47.0278 40.9807 47.3225C41.0611 47.9111 41.1379 48.7251 41.1224 49.6246C41.0917 51.4072 40.6972 53.603 39.1585 55.0027C39.0399 55.1106 38.8563 55.1019 38.7484 54.9833C38.6405 54.8647 38.6492 54.6811 38.7678 54.5732C40.1225 53.3409 40.5119 51.3553 40.5419 49.6146C40.5567 48.7524 40.483 47.9692 40.4054 47.4011C40.3666 47.1174 40.327 46.8882 40.2972 46.7306C40.2823 46.6518 40.2699 46.591 40.2613 46.5503C40.257 46.5299 40.2537 46.5146 40.2514 46.5046C40.2503 46.4995 40.2495 46.4959 40.249 46.4935L40.2484 46.4911L40.2483 46.4907L40.2483 46.4906L40.2483 46.4906C40.2122 46.3344 40.3096 46.1785 40.4657 46.1424Z" fill="#423232"/>
<path fill-rule="evenodd" clip-rule="evenodd" d="M31.6275 53.6359C31.7792 53.6878 31.8601 53.8529 31.8082 54.0045L31.8082 54.0046L31.8077 54.006L31.8059 54.0115C31.8042 54.0165 31.8016 54.0241 31.7983 54.0343C31.7915 54.0546 31.7815 54.0851 31.7688 54.1248C31.7435 54.2042 31.7073 54.3204 31.6645 54.4662C31.579 54.7581 31.4676 55.1674 31.3644 55.6367C31.156 56.5837 30.9883 57.742 31.1119 58.6696C31.1331 58.8285 31.0215 58.9745 30.8626 58.9957C30.7036 59.0169 30.5576 58.9053 30.5364 58.7463C30.3988 57.7139 30.5857 56.4735 30.7973 55.5119C30.9041 55.0268 31.019 54.6044 31.1073 54.303C31.1515 54.1521 31.1891 54.0314 31.2158 53.948C31.2291 53.9062 31.2398 53.8738 31.2471 53.8516C31.2508 53.8406 31.2536 53.832 31.2556 53.8261L31.2579 53.8194L31.2588 53.8168C31.2588 53.8167 31.2588 53.8167 31.5335 53.9106L31.2588 53.8167C31.3107 53.665 31.4758 53.584 31.6275 53.6359Z" fill="#423232"/>
<path fill-rule="evenodd" clip-rule="evenodd" d="M37.3675 53.4788C37.5133 53.4119 37.6856 53.4759 37.7525 53.6216L37.4886 53.7426C37.7525 53.6216 37.7525 53.6216 37.7525 53.6217L37.7528 53.6222L37.7533 53.6234L37.7552 53.6276C37.7568 53.6311 37.7591 53.6362 37.762 53.6428C37.7679 53.656 37.7764 53.6752 37.7873 53.7003C37.8091 53.7506 37.8404 53.8245 37.8795 53.9207C37.9576 54.1131 38.0667 54.3948 38.1922 54.7557C38.443 55.4773 38.7593 56.5162 39.0235 57.7904C39.0561 57.9473 38.9552 58.101 38.7982 58.1336C38.6412 58.1661 38.4876 58.0653 38.455 57.9083C38.1966 56.6625 37.8876 55.648 37.6437 54.9463C37.5218 54.5955 37.4163 54.3231 37.3416 54.1392C37.3042 54.0473 37.2746 53.9775 37.2545 53.9311C37.2445 53.908 37.2368 53.8907 37.2318 53.8794C37.2293 53.8737 37.2274 53.8696 37.2262 53.867L37.225 53.8642L37.2248 53.8637L37.2247 53.8637C37.1579 53.718 37.2218 53.5456 37.3675 53.4788Z" fill="#423232"/>
<path fill-rule="evenodd" clip-rule="evenodd" d="M15.7626 48.1291C15.7242 47.9736 15.5672 47.8786 15.4116 47.9168C15.2559 47.955 15.1606 48.1122 15.1989 48.2679L15.4808 48.1987C15.1989 48.2679 15.1989 48.2681 15.199 48.2684L15.1991 48.2689L15.1995 48.2705C15.1998 48.2717 15.2002 48.2734 15.2007 48.2754C15.2018 48.2793 15.2032 48.2848 15.205 48.2917C15.2088 48.3056 15.2142 48.3252 15.2215 48.3504C15.2361 48.4006 15.2584 48.4728 15.2897 48.5643C15.3524 48.7472 15.4516 49.0075 15.5992 49.3241C15.8944 49.9573 16.3838 50.8166 17.1637 51.7329C18.7268 53.5693 21.4443 55.6197 26.0636 56.5473C26.2208 56.5789 26.3739 56.4771 26.4054 56.3199C26.437 56.1627 26.3352 56.0096 26.178 55.9781C21.6879 55.0764 19.0854 53.0948 17.6059 51.3565C16.8644 50.4855 16.4019 49.6718 16.1254 49.0788C15.9872 48.7823 15.8956 48.5412 15.839 48.3761C15.8107 48.2935 15.7912 48.2299 15.7789 48.188C15.7728 48.167 15.7685 48.1514 15.7659 48.1415C15.7646 48.1366 15.7637 48.1331 15.7632 48.1311L15.7627 48.1292C15.7627 48.1291 15.7626 48.1291 15.7626 48.1291C15.7626 48.1291 15.7626 48.1291 15.7626 48.1291Z" fill="#423232"/>
<path d="M30.9919 59.1373L30.1706 59.0626C29.8719 59.0253 29.6479 58.7453 29.7039 58.4466L29.9839 57.0466C30.0586 56.6546 30.4319 56.3746 30.8239 56.4306C31.2159 56.4679 31.5333 56.8039 31.5333 57.2146L31.5519 58.6519C31.5519 58.9319 31.2906 59.1746 30.9919 59.1373Z" fill="white"/>
<path d="M39.5604 58.2787L38.7764 58.5587C38.4777 58.6707 38.1604 58.484 38.1044 58.1853L37.7684 56.804C37.6751 56.412 37.8804 56.02 38.2724 55.8707C38.6458 55.74 39.0751 55.908 39.2431 56.2627L39.8591 57.5507C39.9898 57.8307 39.8591 58.1667 39.5604 58.2787Z" fill="white"/>
<path fill-rule="evenodd" clip-rule="evenodd" d="M47.7413 57.5635C47.8992 57.5354 48.05 57.6405 48.0781 57.7983L47.7923 57.8493C48.0781 57.7983 48.0781 57.7984 48.0781 57.7985L48.0789 57.803L48.0812 57.816C48.0832 57.8275 48.0862 57.8444 48.09 57.8666C48.0977 57.9109 48.1088 57.9761 48.1228 58.0602C48.1508 58.2284 48.1902 58.4722 48.2362 58.7752C48.3283 59.3813 48.4467 60.2252 48.5522 61.1773C48.7624 63.0742 48.9248 65.4268 48.7152 67.1798C48.6962 67.339 48.5517 67.4526 48.3925 67.4336C48.2333 67.4145 48.1197 67.27 48.1387 67.1108C48.3398 65.4292 48.1849 63.1338 47.9751 61.2413C47.8706 60.2987 47.7534 59.4627 47.6622 58.8624C47.6166 58.5623 47.5776 58.3213 47.55 58.1555C47.5363 58.0726 47.5253 58.0086 47.5179 57.9654C47.5141 57.9438 47.5113 57.9274 47.5094 57.9164L47.5072 57.9042L47.5065 57.9003C47.5065 57.9003 47.5065 57.9003 47.6739 57.8704L47.5065 57.9003C47.4784 57.7425 47.5835 57.5917 47.7413 57.5635Z" fill="#544D4D"/>
<path d="M33.4614 30.6837C33.0134 30.665 32.6774 30.2917 32.7147 29.8437L32.7334 29.321C32.7521 28.873 33.1254 28.537 33.5734 28.5744C34.0214 28.593 34.3574 28.9664 34.3201 29.4144L34.3014 29.937C34.2827 30.3664 33.9094 30.7024 33.4614 30.6837Z" fill="#423232"/>
<path d="M41.3205 30.9637C40.9098 30.945 40.5925 30.5904 40.6111 30.1797L40.6298 29.6944C40.6485 29.2837 41.0031 28.9664 41.4138 28.985C41.8245 29.0037 42.1418 29.3584 42.1231 29.769L42.1045 30.2544C42.0858 30.665 41.7311 30.9824 41.3205 30.9637Z" fill="#423232"/>
<path fill-rule="evenodd" clip-rule="evenodd" d="M33.9928 28.493C34.4808 28.5691 34.8594 28.8064 35.111 29.0165C35.2377 29.1223 35.3352 29.2237 35.4018 29.2996C35.4352 29.3376 35.461 29.3695 35.4791 29.3927C35.4882 29.4043 35.4953 29.4137 35.5004 29.4208C35.503 29.4243 35.5051 29.4271 35.5067 29.4294L35.5088 29.4322L35.5095 29.4333L35.5099 29.4337L35.51 29.4339C35.51 29.434 35.5101 29.4341 35.2821 29.5943L35.5101 29.4341C35.6023 29.5653 35.5707 29.7464 35.4395 29.8385C35.3086 29.9305 35.128 29.8992 35.0356 29.7687C35.0356 29.7687 35.0356 29.7687 35.0356 29.7687C35.0353 29.7683 35.0346 29.7673 35.0334 29.7657C35.0311 29.7625 35.0269 29.757 35.0211 29.7495C35.0093 29.7344 34.9907 29.7113 34.9654 29.6826C34.9148 29.6248 34.8385 29.5454 34.7388 29.4622C34.538 29.2944 34.2541 29.1212 33.9026 29.0665L33.9008 29.0662C33.6136 29.0197 33.3036 29.0664 33.0559 29.1675C32.9329 29.2177 32.8339 29.2778 32.7641 29.338C32.6925 29.3999 32.6659 29.4492 32.6584 29.4754C32.6143 29.6296 32.4537 29.7189 32.2995 29.6748C32.1453 29.6308 32.0561 29.4701 32.1001 29.3159C32.1486 29.1461 32.2597 29.0065 32.3846 28.8986C32.5115 28.7891 32.6679 28.6987 32.8366 28.6299C33.172 28.493 33.5896 28.4278 33.9928 28.493Z" fill="#423232"/>
<path fill-rule="evenodd" clip-rule="evenodd" d="M41.0698 29.7755C41.0664 29.9328 40.9377 30.0593 40.7796 30.0593C40.6192 30.0593 40.4893 29.9293 40.4893 29.769L40.7746 29.769C40.4893 29.769 40.4893 29.7688 40.4893 29.7686L40.4893 29.7681L40.4893 29.7672L40.4893 29.7652C40.4893 29.7638 40.4893 29.7623 40.4894 29.7605C40.4894 29.7571 40.4896 29.753 40.4898 29.7484C40.4902 29.7391 40.491 29.7274 40.4925 29.7137C40.4953 29.6863 40.5006 29.6501 40.5107 29.608C40.5307 29.5243 40.5707 29.4128 40.6512 29.3009C40.8227 29.0622 41.1333 28.8813 41.6382 28.8813C42.0912 28.8813 42.4129 29.0924 42.6135 29.293C42.7133 29.3928 42.7856 29.4921 42.8332 29.5667C42.8572 29.6043 42.8754 29.6363 42.888 29.66C42.8944 29.6719 42.8994 29.6817 42.9031 29.6892C42.9049 29.693 42.9064 29.6961 42.9076 29.6986C42.9082 29.6999 42.9087 29.701 42.9092 29.7019L42.9098 29.7032L42.91 29.7038L42.9102 29.7041C42.9102 29.7042 42.9103 29.7043 42.6462 29.825L42.9103 29.7043C42.9769 29.8501 42.9128 30.0224 42.7669 30.089C42.6217 30.1554 42.4502 30.092 42.383 29.9473C42.3828 29.9471 42.3826 29.9467 42.3824 29.9461C42.3813 29.944 42.3792 29.9398 42.376 29.9338C42.3696 29.9218 42.3589 29.9027 42.3438 29.8791C42.3132 29.8312 42.2665 29.7671 42.203 29.7036C42.0769 29.5776 41.8946 29.462 41.6382 29.462C41.2845 29.462 41.1658 29.5797 41.1226 29.6398C41.0957 29.6772 41.0821 29.715 41.0753 29.7433C41.072 29.7572 41.0706 29.7677 41.07 29.773C41.0699 29.7741 41.0698 29.7749 41.0698 29.7755ZM42.3824 29.9462C42.3824 29.9461 42.3824 29.946 42.3823 29.946L42.3824 29.9461L42.3824 29.9462Z" fill="#423232"/>
<path d="M36.0379 26.5956C36.4299 26.7263 36.8219 26.3716 36.7472 25.9423C36.7099 25.7183 36.6165 25.4943 36.4299 25.3263C35.8699 24.8223 33.5552 24.3743 32.1552 25.0276C30.9232 25.6249 34.2459 25.9983 36.0379 26.5956Z" fill="#423232"/>
<path d="M41.6191 26.8943C41.3018 27.0063 40.9658 26.6703 41.0218 26.2783C41.0405 26.0729 41.1151 25.8676 41.2645 25.7183C41.7125 25.2703 43.2431 24.9156 44.2138 25.6063C45.0538 26.1849 43.0751 26.3529 41.6191 26.8943Z" fill="#423232"/>
<path d="M38.6404 37.2919C38.6598 37.6015 38.4275 38.1434 38.0017 38.5305C35.8147 37.1951 34.8277 37.8918 34.8277 37.8918C34.0535 36.7112 34.2277 35.1049 36.105 36.3242C37.4211 37.1564 38.2146 37.2919 38.6404 37.2919Z" fill="#423232"/>
<path d="M38.0012 38.5304C37.5367 38.9369 36.84 39.1885 35.8916 38.8014C35.4465 38.6272 35.0981 38.2788 34.8271 37.8918C34.8271 37.8918 35.8142 37.195 38.0012 38.5304Z" fill="#FE9DAB"/>
<path fill-rule="evenodd" clip-rule="evenodd" d="M34.6683 35.6601C35.0827 35.5086 35.6262 35.6707 36.2619 36.0797C37.2814 36.731 37.9657 36.9327 38.3751 36.9817C38.5793 37.0062 38.7161 36.9928 38.794 36.9779C38.8331 36.9704 38.8581 36.9624 38.8701 36.958C38.8737 36.9567 38.8762 36.9557 38.8775 36.9552C39.0166 36.8848 39.1875 36.9371 39.2629 37.0749C39.3399 37.2155 39.2884 37.392 39.1477 37.469L39.0135 37.2238C39.1477 37.469 39.1474 37.4691 39.1471 37.4693L39.1465 37.4696L39.1452 37.4703C39.1448 37.4706 39.1443 37.4708 39.1438 37.4711C39.1433 37.4713 39.1429 37.4716 39.1424 37.4718C39.1404 37.4729 39.1382 37.474 39.1358 37.4752C39.131 37.4776 39.1252 37.4804 39.1187 37.4834C39.1055 37.4894 39.0888 37.4963 39.0685 37.5037C39.0282 37.5184 38.974 37.5345 38.9051 37.5478C38.8733 37.7021 38.814 37.8662 38.7344 38.025C38.6041 38.2854 38.4068 38.5579 38.1414 38.7832C37.5969 39.2454 36.7859 39.4898 35.7632 39.0701C35.2553 38.8635 34.8516 38.4725 34.5722 38.0451C34.2936 37.6191 34.1222 37.1318 34.1024 36.7052C34.0832 36.2921 34.2124 35.8267 34.6683 35.6601ZM38.3019 37.5577C37.7824 37.4947 37.0165 37.2508 35.9489 36.5687L35.9481 36.5682C35.3356 36.1741 35.0059 36.1549 34.8676 36.2054C34.7708 36.2408 34.6677 36.3609 34.6824 36.6783C34.6965 36.9824 34.825 37.3708 35.0581 37.7274C35.2903 38.0826 35.6098 38.381 35.9823 38.5324L35.9832 38.5328C36.7989 38.8677 37.3812 38.6669 37.7656 38.3405C37.9648 38.1715 38.1158 37.9637 38.2153 37.7651C38.2525 37.6906 38.2809 37.6208 38.3019 37.5577ZM38.87 36.9591L38.87 36.9591L38.87 36.9591C38.87 36.9591 38.87 36.9591 38.87 36.9591Z" fill="#423232"/>
<path fill-rule="evenodd" clip-rule="evenodd" d="M34.9906 38.1319C34.86 38.2207 34.6817 38.1888 34.5903 38.0592C34.4978 37.9282 34.529 37.7471 34.66 37.6546L34.8268 37.8908C34.66 37.6546 34.6603 37.6545 34.6605 37.6543L34.661 37.6539L34.662 37.6532L34.6644 37.6516C34.6661 37.6504 34.6681 37.6491 34.6703 37.6476C34.6748 37.6446 34.6803 37.6411 34.6869 37.637C34.7001 37.629 34.7174 37.6189 34.739 37.6075C34.7822 37.5848 34.8423 37.557 34.9197 37.5298C35.0751 37.4754 35.2978 37.4241 35.5903 37.4201C36.1766 37.4119 37.0234 37.5931 38.1528 38.2827C38.2896 38.3662 38.3328 38.5449 38.2492 38.6818C38.1657 38.8186 37.987 38.8618 37.8502 38.7782C36.7926 38.1324 36.0523 37.9943 35.5984 38.0006C35.3707 38.0038 35.21 38.0433 35.1119 38.0777C35.0627 38.095 35.0286 38.1112 35.0093 38.1214C34.9996 38.1265 34.9936 38.1301 34.9912 38.1315C34.991 38.1317 34.9908 38.1318 34.9906 38.1319Z" fill="#423232"/>
<path d="M45.9654 18.9834C44.6401 23.7807 40.7948 22.978 37.1921 21.6714C32.3948 19.9167 28.1761 21.3354 28.1574 25.666C28.1201 32.0127 26.5334 30.09 26.3654 29.8474C25.9548 29.0634 25.0774 28.0927 23.4161 28.298C21.2321 28.578 20.3734 33.394 24.4428 35.3727C25.1521 38.9754 23.2108 38.6394 23.2108 38.6394C22.5574 35.9887 17.0694 30.3514 17.0508 26.6367C17.0508 21.634 19.5708 20.2154 19.5708 20.2154C19.6454 16.7247 23.2854 12.8794 29.4081 13.0101C35.5308 13.1221 39.2828 12.9541 40.4774 11.5167C41.6721 10.0421 47.2908 14.1861 45.9654 18.9834Z" fill="#423232"/>
<path d="M46.1153 24.7513C45.9286 25.9646 45.406 26.898 44.678 27.5886C44.958 25.554 44.8086 24.5833 44.566 23.4446C44.0433 21.1113 42.9233 19.0953 41.0566 17.602C41.99 17.5273 42.942 17.7326 43.8006 18.274C43.8006 18.2553 46.8806 19.506 46.1153 24.7513Z" fill="#423232"/>
<path d="M24.5543 31.4024C24.5543 31.4024 23.061 31.1784 23.173 33.269C23.229 34.333 23.229 34.9117 23.2103 35.2104C23.1917 35.4157 23.3223 35.6024 23.509 35.677C23.733 35.7704 23.9757 35.677 24.0877 35.453C24.2557 35.1544 24.4423 34.7437 24.4423 34.4077C24.4423 33.8477 25.0397 33.3437 25.0397 33.3437C25.0397 33.3437 24.4983 32.877 24.5543 31.4024Z" fill="white"/>
<path d="M29.0715 67.3918C28.9222 67.2238 23.0609 57.1998 23.9382 53.4291C24.5355 50.8344 23.7515 47.8478 23.0609 45.2158C22.7809 44.1331 22.5195 43.1251 22.3702 42.2291C22.1089 40.6798 22.2955 39.2051 22.9302 37.8424C23.6209 36.3118 23.5089 34.9864 23.5089 34.9678L23.8822 34.9304C23.8822 34.9864 23.9942 36.3864 23.2662 37.9918C22.6689 39.2798 22.5009 40.6984 22.7435 42.1731C22.8929 43.0504 23.1542 44.0584 23.4342 45.1411C24.1435 47.8104 24.9275 50.8531 24.3115 53.5411C23.4902 57.1251 29.3329 67.1491 29.3702 67.1864L29.0715 67.3918Z" fill="white"/>
<path d="M23.2283 34.3517C23.247 34.7623 23.2283 35.0423 23.2283 35.2103C23.2097 35.4157 23.3403 35.6023 23.527 35.677C23.751 35.7703 23.9937 35.677 24.1057 35.453C24.2737 35.1543 24.4603 34.7437 24.4603 34.4077C24.4603 34.389 24.4603 34.3517 24.4603 34.333C24.0683 34.4823 23.6203 34.5943 23.2283 34.3517Z" fill="#E5E5E5"/>
<path d="M40.794 46.765C40.6633 47.6237 40.6447 48.9864 40.6073 50.573C40.5513 53.6344 38.7407 65.5624 37.8633 67.4477L37.5273 67.2984C38.3673 65.469 40.178 53.597 40.234 50.573C40.2713 48.9864 40.29 47.605 40.4207 46.709C40.7007 44.8237 40.4953 43.405 40.3833 42.8077C40.4393 42.7517 40.4953 42.7144 40.5513 42.6584C40.6073 42.621 40.6447 42.565 40.7007 42.5277C40.8127 43.013 41.13 44.5624 40.794 46.765Z" fill="white"/>
</g>
<defs>
<clipPath id="clip0_1_21981">
<path d="M4 32C4 16.536 16.536 4 32 4C47.464 4 60 16.536 60 32C60 47.464 47.464 60 32 60C16.536 60 4 47.464 4 32Z" fill="white"/>
</clipPath>
</defs>
</svg>
