<svg width="56" height="56" viewBox="0 0 56 56" fill="none" xmlns="http://www.w3.org/2000/svg">
<g clip-path="url(#clip0_194_1687)">
<path d="M0 28C0 12.536 12.536 0 28 0C43.464 0 56 12.536 56 28C56 43.464 43.464 56 28 56C12.536 56 0 43.464 0 28Z" fill="#B5E2DC"/>
<path d="M43.6793 51.5773C43.5486 51.6707 43.3993 51.764 43.2686 51.8573C43.1193 51.9507 42.9886 52.044 42.8393 52.1187C42.7086 52.1933 42.5966 52.268 42.466 52.3427C42.4473 52.3613 42.4286 52.3613 42.41 52.38C41.9806 52.6413 41.5326 52.884 41.0846 53.108C40.954 53.1827 40.8046 53.2573 40.674 53.3133C40.674 53.3133 40.6553 53.332 40.6366 53.332C40.4873 53.4067 40.338 53.4813 40.1886 53.556C39.89 53.7053 39.5726 53.836 39.274 53.9667C39.1246 54.0413 38.9566 54.0973 38.8073 54.1533C38.658 54.2093 38.49 54.284 38.3406 54.34C38.1913 54.396 38.0233 54.4707 37.874 54.5267C37.874 54.5267 37.874 54.5267 37.8553 54.5267C37.706 54.5827 37.538 54.6387 37.3886 54.6947C37.0526 54.8067 36.698 54.9187 36.362 55.0307C36.25 55.068 36.1193 55.1053 36.0073 55.1427C35.6526 55.2547 35.298 55.348 34.9433 55.4227C34.8126 55.46 34.682 55.4787 34.5326 55.516C34.1966 55.5907 33.842 55.6653 33.506 55.74C33.4313 55.7587 33.3753 55.7587 33.3006 55.7773C33.1886 55.796 33.058 55.8147 32.946 55.8333C32.778 55.852 32.6286 55.8893 32.4606 55.908C32.386 55.9267 32.3113 55.9267 32.2366 55.9453C32.1433 55.964 32.0313 55.9827 31.9193 55.9827C31.6206 56.02 31.3033 56.0573 31.0046 56.0947C30.9113 56.1133 30.7993 56.1133 30.706 56.132H30.6873C30.5566 56.1507 30.426 56.1507 30.2953 56.1693C30.1646 56.188 30.034 56.188 29.9033 56.188C29.8286 56.188 29.7353 56.2067 29.6606 56.2067C29.5113 56.2067 29.3806 56.2253 29.25 56.2253C29.0633 56.2253 28.8953 56.244 28.7086 56.244C28.522 56.244 28.354 56.244 28.1673 56.244C28.0366 56.244 27.906 56.244 27.7753 56.244C19.9166 56.132 12.8233 52.7907 7.78332 47.4893C7.78332 47.4893 7.78332 47.4707 7.76465 47.4707C8.34331 46.332 10.49 44.2787 12.73 42.58C15.5673 40.4333 19.5806 39.108 19.5806 39.108C19.5806 39.108 22.2126 38.6787 31.9753 40.7133C39.4233 42.2813 42.5966 48.6467 43.6793 51.5773Z" fill="#F7D3B5"/>
<path d="M34.0475 45.8839C33.6555 47.8066 31.1168 48.9453 26.8421 47.2279C21.5968 45.0999 19.5808 39.1079 19.5808 39.1079C19.3008 34.8146 18.6475 31.1373 18.6475 31.1373C24.7141 30.6146 31.8821 37.7079 31.8821 37.7079L32.7035 41.2173C32.7781 41.5159 32.9275 41.7773 33.1515 41.9639C33.5435 42.6359 34.3088 44.6519 34.0475 45.8839Z" fill="#F7D3B5"/>
<path d="M33.1517 41.9826C29.5864 41.7959 26.9544 41.2733 24.1357 36.2146C26.5251 38.3239 29.3437 39.1266 32.3117 39.4999L32.7037 41.2173C32.7784 41.5346 32.9277 41.7959 33.1517 41.9826Z" fill="#EFBDA5"/>
<path d="M40.5244 19.4893C40.8604 21.0573 41.0284 22.3267 40.1137 26.508C39.199 30.6893 40.9537 34.8707 36.5484 38.6973C33.5804 41.2733 28.391 41.7587 24.247 38.94C22.847 37.988 21.559 36.6627 20.5137 34.9267C19.6924 33.564 18.7404 32.276 17.6764 31.1C16.2017 29.4947 14.4284 26.2653 15.3057 20.5533C16.7244 11.2573 25.927 10.1933 31.359 11.22C36.791 12.2467 39.6097 15.3453 40.5244 19.4893Z" fill="#F7D3B5"/>
<path d="M22.661 26.788C22.661 26.788 22.0823 23.988 19.357 24.324C17.005 24.6227 16.1836 30.26 21.5223 31.828" fill="#F7D3B5"/>
<path fill-rule="evenodd" clip-rule="evenodd" d="M20.4565 26.2398C20.7715 26.3691 20.9485 26.6395 21.0288 26.9661C21.1065 27.2824 21.1019 27.6772 21.0447 28.1272C21.0185 28.4001 21.1259 28.6199 21.2546 28.7827C21.319 28.8641 21.3859 28.9273 21.4364 28.9696C21.4614 28.9907 21.4818 29.0061 21.495 29.0157C21.5016 29.0204 21.5064 29.0237 21.509 29.0255C21.5101 29.0262 21.5107 29.0267 21.511 29.0269C21.6452 29.1135 21.6842 29.2923 21.5982 29.427C21.5118 29.5621 21.3323 29.6017 21.1972 29.5154L21.3485 29.2786C21.1972 29.5154 21.1971 29.5153 21.197 29.5152L21.1968 29.5151L21.1963 29.5148L21.1951 29.514C21.1942 29.5134 21.1932 29.5128 21.192 29.512C21.1896 29.5104 21.1866 29.5084 21.183 29.506C21.1758 29.5011 21.1662 29.4944 21.1545 29.486C21.1313 29.4691 21.0998 29.4452 21.063 29.4143C20.9898 29.3529 20.8934 29.262 20.7991 29.1428C20.6111 28.9049 20.4201 28.5379 20.4673 28.0658C20.4676 28.0632 20.4679 28.0606 20.4682 28.058C20.5225 27.6324 20.5177 27.3193 20.4649 27.1046C20.4146 26.8997 20.3306 26.8156 20.2356 26.7768L20.2335 26.7759C20.0254 26.6889 19.8934 26.6974 19.8117 26.7245C19.7272 26.7524 19.6538 26.8143 19.5911 26.9089C19.5275 27.0047 19.4844 27.1204 19.4598 27.2236C19.4478 27.2743 19.4412 27.3176 19.4385 27.3483C19.4374 27.3614 19.4371 27.3698 19.4371 27.3743C19.4623 27.5224 19.3695 27.6673 19.2213 27.7044C19.0657 27.7433 18.9081 27.6487 18.8692 27.4931C18.852 27.4242 18.8558 27.3476 18.8602 27.2976C18.8656 27.2361 18.877 27.1648 18.895 27.0893C18.9305 26.9399 18.9959 26.7557 19.1073 26.5879C19.2195 26.4188 19.3877 26.2532 19.6293 26.1732C19.8733 26.0925 20.1517 26.1125 20.4565 26.2398Z" fill="#423232"/>
<path d="M35.5966 31.0814C35.5966 31.0814 36.306 31.1187 36.978 30.3161C37.3513 29.8681 37.6686 29.3081 37.4633 29.1401C37.258 28.9534 33.8793 29.4761 33.6553 29.9241C33.4313 30.3721 34.738 31.0814 35.5966 31.0814Z" fill="#EFBDA5"/>
<path fill-rule="evenodd" clip-rule="evenodd" d="M36.4474 24.8031C36.4474 24.8031 36.4474 24.8031 36.4474 24.803C36.4474 24.803 36.4474 24.803 36.4474 24.8029C36.4438 24.6428 36.3112 24.5157 36.151 24.5191C35.9907 24.5225 35.8635 24.6552 35.8669 24.8155L36.1571 24.8094C35.8669 24.8155 35.8669 24.8156 35.8669 24.8157L35.8669 24.8159L35.8669 24.8165L35.8669 24.8182C35.867 24.8195 35.867 24.8213 35.8671 24.8235C35.8672 24.8278 35.8674 24.8339 35.8678 24.8416C35.8684 24.8571 35.8695 24.8791 35.8712 24.9074C35.8747 24.9639 35.881 25.0453 35.8921 25.1485C35.9144 25.3549 35.9562 25.6489 36.0346 26.0056C36.1911 26.7186 36.4943 27.6858 37.0815 28.7061M36.4474 24.8031C36.4474 24.8031 36.4474 24.8031 36.4474 24.8031L36.4474 24.8031L36.4474 24.8055C36.4475 24.808 36.4477 24.8121 36.4479 24.8179C36.4484 24.8294 36.4492 24.8474 36.4507 24.8715C36.4537 24.9197 36.4592 24.9922 36.4694 25.0862C36.4897 25.2741 36.5284 25.5472 36.6017 25.8811C36.7484 26.5494 37.0333 27.4582 37.5847 28.4166L37.5849 28.4167C37.9063 28.9763 37.8046 29.6755 37.4246 30.2401C37.0403 30.8112 36.3593 31.2735 35.4524 31.4059C35.2938 31.4291 35.1464 31.3193 35.1232 31.1606C35.1 31.002 35.2099 30.8546 35.3685 30.8314C36.123 30.7212 36.6553 30.3435 36.9429 29.9159C37.235 29.482 37.2639 29.0239 37.0815 28.7062" fill="#423232"/>
<path opacity="0.42" d="M26.0389 32.0333C27.1007 32.0333 27.9615 31.3229 27.9615 30.4467C27.9615 29.5704 27.1007 28.86 26.0389 28.86C24.977 28.86 24.1162 29.5704 24.1162 30.4467C24.1162 31.3229 24.977 32.0333 26.0389 32.0333Z" fill="#ED938A"/>
<path opacity="0.42" d="M39.8148 28.8973C39.7588 29.9427 39.7775 30.9693 39.7028 31.996C38.8815 31.8093 38.2842 31.1933 38.2842 30.4653C38.2842 29.6813 38.9375 29.0467 39.8148 28.8973Z" fill="#ED938A"/>
<path d="M45.566 48.0999C42.9153 44.6839 38.8086 43.2653 36.55 42.4253C36.3633 41.4919 36.0087 40.4653 35.4487 39.4759C34.59 39.9986 33.6007 40.3906 32.574 40.5959L32.7233 41.2119C32.798 41.5106 33.1713 42.8919 32.5927 44.6653C32.1073 46.1586 30.1473 46.8306 26.8247 45.3186C20.3473 42.3879 19.6007 39.0839 19.6007 39.0839C19.4887 37.2919 19.302 35.6119 19.134 34.2493C17.118 34.6973 14.7847 35.6119 13.5153 37.5346C11.9473 39.8866 11.3687 42.2759 11.518 44.1799C8.79266 45.9159 4.574 48.5479 3.19266 53.2519C1.40066 59.3746 1.69933 63.1266 1.69933 63.1266H49.934C49.878 63.1453 49.1686 52.7479 45.566 48.0999Z" fill="#6060D8"/>
<path fill-rule="evenodd" clip-rule="evenodd" d="M16.6536 41.6961C16.8088 41.6562 16.9671 41.7496 17.0071 41.9049L16.7259 41.9773C17.0071 41.9049 17.007 41.9048 17.007 41.9047L17.007 41.9046C17.007 41.9046 17.007 41.9046 17.007 41.9047L17.0074 41.9062C17.0078 41.9076 17.0085 41.9102 17.0094 41.9137C17.0114 41.9208 17.0145 41.9321 17.0189 41.9473C17.0276 41.9777 17.0414 42.0238 17.0609 42.0844C17.0999 42.2055 17.1616 42.384 17.2513 42.6087C17.4308 43.0583 17.7218 43.6921 18.1661 44.4208C19.0545 45.8777 20.5545 47.7128 23.0005 49.2152C23.1372 49.2991 23.1799 49.4779 23.096 49.6145C23.012 49.7512 22.8333 49.7939 22.6966 49.71C20.1587 48.1511 18.5974 46.2435 17.6704 44.7231C17.207 43.9631 16.9019 43.2995 16.7121 42.824C16.6172 42.5861 16.551 42.3951 16.5082 42.2623C16.4869 42.1959 16.4713 42.144 16.461 42.1081C16.4558 42.0902 16.4519 42.0762 16.4492 42.0664C16.4479 42.0615 16.4469 42.0576 16.4461 42.0548L16.4452 42.0514L16.445 42.0503L16.4449 42.0499C16.4448 42.0498 16.4448 42.0496 16.7259 41.9773L16.4448 42.0496C16.4048 41.8944 16.4983 41.7361 16.6536 41.6961Z" fill="#423232"/>
<path fill-rule="evenodd" clip-rule="evenodd" d="M36.4657 42.1424C36.622 42.1063 36.7779 42.2036 36.814 42.3598L36.5312 42.4253C36.814 42.3598 36.814 42.3599 36.8141 42.3601L36.8141 42.3604L36.8144 42.3615L36.8153 42.3653C36.816 42.3685 36.817 42.3731 36.8183 42.379C36.8209 42.3908 36.8247 42.408 36.8294 42.4303C36.8388 42.4748 36.852 42.5397 36.8677 42.6227C36.8991 42.7888 36.9404 43.0278 36.9807 43.3225C37.0611 43.9111 37.1379 44.7251 37.1224 45.6246C37.0917 47.4072 36.6972 49.603 35.1585 51.0027C35.0399 51.1106 34.8563 51.1019 34.7484 50.9833C34.6405 50.8647 34.6492 50.6811 34.7678 50.5732C36.1225 49.3409 36.5119 47.3553 36.5419 45.6146C36.5567 44.7524 36.483 43.9692 36.4054 43.4011C36.3666 43.1174 36.327 42.8882 36.2972 42.7306C36.2823 42.6518 36.2699 42.591 36.2613 42.5503C36.257 42.5299 36.2537 42.5146 36.2514 42.5046C36.2503 42.4995 36.2495 42.4959 36.249 42.4935L36.2484 42.4911L36.2483 42.4907L36.2483 42.4906L36.2483 42.4906C36.2122 42.3344 36.3096 42.1785 36.4657 42.1424Z" fill="#423232"/>
<path fill-rule="evenodd" clip-rule="evenodd" d="M27.6275 49.6359C27.7792 49.6878 27.8601 49.8529 27.8082 50.0045L27.8082 50.0046L27.8077 50.006L27.8059 50.0115C27.8042 50.0165 27.8016 50.0241 27.7983 50.0343C27.7915 50.0546 27.7815 50.0851 27.7688 50.1248C27.7435 50.2042 27.7073 50.3204 27.6645 50.4662C27.579 50.7581 27.4676 51.1674 27.3644 51.6367C27.156 52.5837 26.9883 53.742 27.1119 54.6696C27.1331 54.8285 27.0215 54.9745 26.8626 54.9957C26.7036 55.0169 26.5576 54.9053 26.5364 54.7463C26.3988 53.7139 26.5857 52.4735 26.7973 51.5119C26.9041 51.0268 27.019 50.6044 27.1073 50.303C27.1515 50.1521 27.1891 50.0314 27.2158 49.948C27.2291 49.9062 27.2398 49.8738 27.2471 49.8516C27.2508 49.8406 27.2536 49.832 27.2556 49.8261L27.2579 49.8194L27.2588 49.8168C27.2588 49.8167 27.2588 49.8167 27.5335 49.9106L27.2588 49.8167C27.3107 49.665 27.4758 49.584 27.6275 49.6359Z" fill="#423232"/>
<path fill-rule="evenodd" clip-rule="evenodd" d="M33.3675 49.4788C33.5133 49.4119 33.6856 49.4759 33.7525 49.6216L33.4886 49.7426C33.7525 49.6216 33.7525 49.6216 33.7525 49.6217L33.7528 49.6222L33.7533 49.6234L33.7552 49.6276C33.7568 49.6311 33.7591 49.6362 33.762 49.6428C33.7679 49.656 33.7764 49.6752 33.7873 49.7003C33.8091 49.7506 33.8404 49.8245 33.8795 49.9207C33.9576 50.1131 34.0667 50.3948 34.1922 50.7557C34.443 51.4773 34.7593 52.5162 35.0235 53.7904C35.0561 53.9473 34.9552 54.101 34.7982 54.1336C34.6412 54.1661 34.4876 54.0653 34.455 53.9083C34.1966 52.6625 33.8876 51.648 33.6437 50.9463C33.5218 50.5955 33.4163 50.3231 33.3416 50.1392C33.3042 50.0473 33.2746 49.9775 33.2545 49.9311C33.2445 49.908 33.2368 49.8907 33.2318 49.8794C33.2293 49.8737 33.2274 49.8696 33.2262 49.867L33.225 49.8642L33.2248 49.8637L33.2247 49.8637C33.1579 49.718 33.2218 49.5456 33.3675 49.4788Z" fill="#423232"/>
<path fill-rule="evenodd" clip-rule="evenodd" d="M11.7626 44.1291C11.7242 43.9736 11.5672 43.8786 11.4116 43.9168C11.2559 43.955 11.1606 44.1122 11.1989 44.2679L11.4808 44.1987C11.1989 44.2679 11.1989 44.2681 11.199 44.2684L11.1991 44.2689L11.1995 44.2705C11.1998 44.2717 11.2002 44.2734 11.2007 44.2754C11.2018 44.2793 11.2032 44.2848 11.205 44.2917C11.2088 44.3056 11.2142 44.3252 11.2215 44.3504C11.2361 44.4006 11.2584 44.4728 11.2897 44.5643C11.3524 44.7472 11.4516 45.0075 11.5992 45.3241C11.8944 45.9573 12.3838 46.8166 13.1637 47.7329C14.7268 49.5693 17.4443 51.6197 22.0636 52.5473C22.2208 52.5789 22.3739 52.4771 22.4054 52.3199C22.437 52.1627 22.3352 52.0096 22.178 51.9781C17.6879 51.0764 15.0854 49.0948 13.6059 47.3565C12.8644 46.4855 12.4019 45.6718 12.1254 45.0788C11.9872 44.7823 11.8956 44.5412 11.839 44.3761C11.8107 44.2935 11.7912 44.2299 11.7789 44.188C11.7728 44.167 11.7685 44.1514 11.7659 44.1415C11.7646 44.1366 11.7637 44.1331 11.7632 44.1311L11.7627 44.1292C11.7627 44.1291 11.7626 44.1291 11.7626 44.1291C11.7626 44.1291 11.7626 44.1291 11.7626 44.1291Z" fill="#423232"/>
<path d="M26.9919 55.1373L26.1706 55.0626C25.8719 55.0253 25.6479 54.7453 25.7039 54.4466L25.9839 53.0466C26.0586 52.6546 26.4319 52.3746 26.8239 52.4306C27.2159 52.4679 27.5333 52.8039 27.5333 53.2146L27.5519 54.6519C27.5519 54.9319 27.2906 55.1746 26.9919 55.1373Z" fill="white"/>
<path d="M35.5604 54.2787L34.7764 54.5587C34.4777 54.6707 34.1604 54.484 34.1044 54.1853L33.7684 52.804C33.6751 52.412 33.8804 52.02 34.2724 51.8707C34.6458 51.74 35.0751 51.908 35.2431 52.2627L35.8591 53.5507C35.9898 53.8307 35.8591 54.1667 35.5604 54.2787Z" fill="white"/>
<path fill-rule="evenodd" clip-rule="evenodd" d="M43.7413 53.5635C43.8992 53.5354 44.05 53.6405 44.0781 53.7983L43.7923 53.8493C44.0781 53.7983 44.0781 53.7984 44.0781 53.7985L44.0789 53.803L44.0812 53.816C44.0832 53.8275 44.0862 53.8444 44.09 53.8666C44.0977 53.9109 44.1088 53.9761 44.1228 54.0602C44.1508 54.2284 44.1902 54.4722 44.2362 54.7752C44.3283 55.3813 44.4467 56.2252 44.5522 57.1773C44.7624 59.0742 44.9248 61.4268 44.7152 63.1798C44.6962 63.339 44.5517 63.4526 44.3925 63.4336C44.2333 63.4145 44.1197 63.27 44.1387 63.1108C44.3398 61.4292 44.1849 59.1338 43.9751 57.2413C43.8706 56.2987 43.7534 55.4627 43.6622 54.8624C43.6166 54.5623 43.5776 54.3213 43.55 54.1555C43.5363 54.0726 43.5253 54.0086 43.5179 53.9654C43.5141 53.9438 43.5113 53.9274 43.5094 53.9164L43.5072 53.9042L43.5065 53.9003C43.5065 53.9003 43.5065 53.9003 43.6739 53.8704L43.5065 53.9003C43.4784 53.7425 43.5835 53.5917 43.7413 53.5635Z" fill="#544D4D"/>
<path d="M29.4614 26.6837C29.0134 26.665 28.6774 26.2917 28.7147 25.8437L28.7334 25.321C28.7521 24.873 29.1254 24.537 29.5734 24.5744C30.0214 24.593 30.3574 24.9664 30.3201 25.4144L30.3014 25.937C30.2827 26.3664 29.9094 26.7024 29.4614 26.6837Z" fill="#423232"/>
<path d="M37.3205 26.9637C36.9098 26.945 36.5925 26.5904 36.6111 26.1797L36.6298 25.6944C36.6485 25.2837 37.0031 24.9664 37.4138 24.985C37.8245 25.0037 38.1418 25.3584 38.1231 25.769L38.1045 26.2544C38.0858 26.665 37.7311 26.9824 37.3205 26.9637Z" fill="#423232"/>
<path fill-rule="evenodd" clip-rule="evenodd" d="M29.9928 24.493C30.4808 24.5691 30.8594 24.8064 31.111 25.0165C31.2377 25.1223 31.3352 25.2237 31.4018 25.2996C31.4352 25.3376 31.461 25.3695 31.4791 25.3927C31.4882 25.4043 31.4953 25.4137 31.5004 25.4208C31.503 25.4243 31.5051 25.4271 31.5067 25.4294L31.5088 25.4322L31.5095 25.4333L31.5099 25.4337L31.51 25.4339C31.51 25.434 31.5101 25.4341 31.2821 25.5943L31.5101 25.4341C31.6023 25.5653 31.5707 25.7464 31.4395 25.8385C31.3086 25.9305 31.128 25.8992 31.0356 25.7687C31.0356 25.7687 31.0356 25.7687 31.0356 25.7687C31.0353 25.7683 31.0346 25.7673 31.0334 25.7657C31.0311 25.7625 31.0269 25.757 31.0211 25.7495C31.0093 25.7344 30.9907 25.7113 30.9654 25.6826C30.9148 25.6248 30.8385 25.5454 30.7388 25.4622C30.538 25.2944 30.2541 25.1212 29.9026 25.0665L29.9008 25.0662C29.6136 25.0197 29.3036 25.0664 29.0559 25.1675C28.9329 25.2177 28.8339 25.2778 28.7641 25.338C28.6925 25.3999 28.6659 25.4492 28.6584 25.4754C28.6143 25.6296 28.4537 25.7189 28.2995 25.6748C28.1453 25.6308 28.0561 25.4701 28.1001 25.3159C28.1486 25.1461 28.2597 25.0065 28.3846 24.8986C28.5115 24.7891 28.6679 24.6987 28.8366 24.6299C29.172 24.493 29.5896 24.4278 29.9928 24.493Z" fill="#423232"/>
<path fill-rule="evenodd" clip-rule="evenodd" d="M37.0698 25.7755C37.0664 25.9328 36.9377 26.0593 36.7796 26.0593C36.6192 26.0593 36.4893 25.9293 36.4893 25.769L36.7746 25.769C36.4893 25.769 36.4893 25.7688 36.4893 25.7686L36.4893 25.7681L36.4893 25.7672L36.4893 25.7652C36.4893 25.7638 36.4893 25.7623 36.4894 25.7605C36.4894 25.7571 36.4896 25.753 36.4898 25.7484C36.4902 25.7391 36.491 25.7274 36.4925 25.7137C36.4953 25.6863 36.5006 25.6501 36.5107 25.608C36.5307 25.5243 36.5707 25.4128 36.6512 25.3009C36.8227 25.0622 37.1333 24.8813 37.6382 24.8813C38.0912 24.8813 38.4129 25.0924 38.6135 25.293C38.7133 25.3928 38.7856 25.4921 38.8332 25.5667C38.8572 25.6043 38.8754 25.6363 38.888 25.66C38.8944 25.6719 38.8994 25.6817 38.9031 25.6892C38.9049 25.693 38.9064 25.6961 38.9076 25.6986C38.9082 25.6999 38.9087 25.701 38.9092 25.7019L38.9098 25.7032L38.91 25.7038L38.9102 25.7041C38.9102 25.7042 38.9103 25.7043 38.6462 25.825L38.9103 25.7043C38.9769 25.8501 38.9128 26.0224 38.7669 26.089C38.6217 26.1554 38.4502 26.092 38.383 25.9473C38.3828 25.9471 38.3826 25.9467 38.3824 25.9461C38.3813 25.944 38.3792 25.9398 38.376 25.9338C38.3696 25.9218 38.3589 25.9027 38.3438 25.8791C38.3132 25.8312 38.2665 25.7671 38.203 25.7036C38.0769 25.5776 37.8946 25.462 37.6382 25.462C37.2845 25.462 37.1658 25.5797 37.1226 25.6398C37.0957 25.6772 37.0821 25.715 37.0753 25.7433C37.072 25.7572 37.0706 25.7677 37.07 25.773C37.0699 25.7741 37.0698 25.7749 37.0698 25.7755ZM38.3824 25.9462C38.3824 25.9461 38.3824 25.946 38.3823 25.946L38.3824 25.9461L38.3824 25.9462Z" fill="#423232"/>
<path d="M32.0379 22.5956C32.4299 22.7263 32.8219 22.3716 32.7472 21.9423C32.7099 21.7183 32.6165 21.4943 32.4299 21.3263C31.8699 20.8223 29.5552 20.3743 28.1552 21.0276C26.9232 21.6249 30.2459 21.9983 32.0379 22.5956Z" fill="#423232"/>
<path d="M37.6191 22.8943C37.3018 23.0063 36.9658 22.6703 37.0218 22.2783C37.0405 22.0729 37.1151 21.8676 37.2645 21.7183C37.7125 21.2703 39.2431 20.9156 40.2138 21.6063C41.0538 22.1849 39.0751 22.3529 37.6191 22.8943Z" fill="#423232"/>
<path d="M34.6404 33.2919C34.6598 33.6015 34.4275 34.1434 34.0017 34.5305C31.8147 33.1951 30.8277 33.8918 30.8277 33.8918C30.0535 32.7112 30.2277 31.1049 32.105 32.3242C33.4211 33.1564 34.2146 33.2919 34.6404 33.2919Z" fill="#423232"/>
<path d="M34.0012 34.5304C33.5367 34.9369 32.84 35.1885 31.8916 34.8014C31.4465 34.6272 31.0981 34.2788 30.8271 33.8918C30.8271 33.8918 31.8142 33.195 34.0012 34.5304Z" fill="#FE9DAB"/>
<path fill-rule="evenodd" clip-rule="evenodd" d="M30.6683 31.6601C31.0827 31.5086 31.6262 31.6707 32.2619 32.0797C33.2814 32.731 33.9657 32.9327 34.3751 32.9817C34.5793 33.0062 34.7161 32.9928 34.794 32.9779C34.8331 32.9704 34.8581 32.9624 34.8701 32.958C34.8737 32.9567 34.8762 32.9557 34.8775 32.9552C35.0166 32.8848 35.1875 32.9371 35.2629 33.0749C35.3399 33.2155 35.2884 33.392 35.1477 33.469L35.0135 33.2238C35.1477 33.469 35.1474 33.4691 35.1471 33.4693L35.1465 33.4696L35.1452 33.4703C35.1448 33.4706 35.1443 33.4708 35.1438 33.4711C35.1433 33.4713 35.1429 33.4716 35.1424 33.4718C35.1404 33.4729 35.1382 33.474 35.1358 33.4752C35.131 33.4776 35.1252 33.4804 35.1187 33.4834C35.1055 33.4894 35.0888 33.4963 35.0685 33.5037C35.0282 33.5184 34.974 33.5345 34.9051 33.5478C34.8733 33.7021 34.814 33.8662 34.7344 34.025C34.6041 34.2854 34.4068 34.5579 34.1414 34.7832C33.5969 35.2454 32.7859 35.4898 31.7632 35.0701C31.2553 34.8635 30.8516 34.4725 30.5722 34.0451C30.2936 33.6191 30.1222 33.1318 30.1024 32.7052C30.0832 32.2921 30.2124 31.8267 30.6683 31.6601ZM34.3019 33.5577C33.7824 33.4947 33.0165 33.2508 31.9489 32.5687L31.9481 32.5682C31.3356 32.1741 31.0059 32.1549 30.8676 32.2054C30.7708 32.2408 30.6677 32.3609 30.6824 32.6783C30.6965 32.9824 30.825 33.3708 31.0581 33.7274C31.2903 34.0826 31.6098 34.381 31.9823 34.5324L31.9832 34.5328C32.7989 34.8677 33.3812 34.6669 33.7656 34.3405C33.9648 34.1715 34.1158 33.9637 34.2153 33.7651C34.2525 33.6906 34.2809 33.6208 34.3019 33.5577ZM34.87 32.9591L34.87 32.9591L34.87 32.9591C34.87 32.9591 34.87 32.9591 34.87 32.9591Z" fill="#423232"/>
<path fill-rule="evenodd" clip-rule="evenodd" d="M30.9906 34.1319C30.86 34.2207 30.6817 34.1888 30.5903 34.0592C30.4978 33.9282 30.529 33.7471 30.66 33.6546L30.8268 33.8908C30.66 33.6546 30.6603 33.6545 30.6605 33.6543L30.661 33.6539L30.662 33.6532L30.6644 33.6516C30.6661 33.6504 30.6681 33.6491 30.6703 33.6476C30.6748 33.6446 30.6803 33.6411 30.6869 33.637C30.7001 33.629 30.7174 33.6189 30.739 33.6075C30.7822 33.5848 30.8423 33.557 30.9197 33.5298C31.0751 33.4754 31.2978 33.4241 31.5903 33.4201C32.1766 33.4119 33.0234 33.5931 34.1528 34.2827C34.2896 34.3662 34.3328 34.5449 34.2492 34.6818C34.1657 34.8186 33.987 34.8618 33.8502 34.7782C32.7926 34.1324 32.0523 33.9943 31.5984 34.0006C31.3707 34.0038 31.21 34.0433 31.1119 34.0777C31.0627 34.095 31.0286 34.1112 31.0093 34.1214C30.9996 34.1265 30.9936 34.1301 30.9912 34.1315C30.991 34.1317 30.9908 34.1318 30.9906 34.1319Z" fill="#423232"/>
<path d="M41.9654 14.9834C40.6401 19.7807 36.7948 18.978 33.1921 17.6714C28.3948 15.9167 24.1761 17.3354 24.1574 21.666C24.1201 28.0127 22.5334 26.09 22.3654 25.8474C21.9548 25.0634 21.0774 24.0927 19.4161 24.298C17.2321 24.578 16.3734 29.394 20.4428 31.3727C21.1521 34.9754 19.2108 34.6394 19.2108 34.6394C18.5574 31.9887 13.0694 26.3514 13.0508 22.6367C13.0508 17.634 15.5708 16.2154 15.5708 16.2154C15.6454 12.7247 19.2854 8.87938 25.4081 9.01005C31.5308 9.12205 35.2828 8.95405 36.4774 7.51672C37.6721 6.04205 43.2908 10.1861 41.9654 14.9834Z" fill="#423232"/>
<path d="M42.1153 20.7513C41.9286 21.9646 41.406 22.898 40.678 23.5886C40.958 21.554 40.8086 20.5833 40.566 19.4446C40.0433 17.1113 38.9233 15.0953 37.0566 13.602C37.99 13.5273 38.942 13.7326 39.8006 14.274C39.8006 14.2553 42.8806 15.506 42.1153 20.7513Z" fill="#423232"/>
<path d="M20.5543 27.4024C20.5543 27.4024 19.061 27.1784 19.173 29.269C19.229 30.333 19.229 30.9117 19.2103 31.2104C19.1917 31.4157 19.3223 31.6024 19.509 31.677C19.733 31.7704 19.9757 31.677 20.0877 31.453C20.2557 31.1544 20.4423 30.7437 20.4423 30.4077C20.4423 29.8477 21.0397 29.3437 21.0397 29.3437C21.0397 29.3437 20.4983 28.877 20.5543 27.4024Z" fill="white"/>
<path d="M25.0715 63.3918C24.9222 63.2238 19.0609 53.1998 19.9382 49.4291C20.5355 46.8344 19.7515 43.8478 19.0609 41.2158C18.7809 40.1331 18.5195 39.1251 18.3702 38.2291C18.1089 36.6798 18.2955 35.2051 18.9302 33.8424C19.6209 32.3118 19.5089 30.9864 19.5089 30.9678L19.8822 30.9304C19.8822 30.9864 19.9942 32.3864 19.2662 33.9918C18.6689 35.2798 18.5009 36.6984 18.7435 38.1731C18.8929 39.0504 19.1542 40.0584 19.4342 41.1411C20.1435 43.8104 20.9275 46.8531 20.3115 49.5411C19.4902 53.1251 25.3329 63.1491 25.3702 63.1864L25.0715 63.3918Z" fill="white"/>
<path d="M19.2283 30.3517C19.247 30.7623 19.2283 31.0423 19.2283 31.2103C19.2097 31.4157 19.3403 31.6023 19.527 31.677C19.751 31.7703 19.9937 31.677 20.1057 31.453C20.2737 31.1543 20.4603 30.7437 20.4603 30.4077C20.4603 30.389 20.4603 30.3517 20.4603 30.333C20.0683 30.4823 19.6203 30.5943 19.2283 30.3517Z" fill="#E5E5E5"/>
<path d="M36.794 42.765C36.6633 43.6237 36.6447 44.9864 36.6073 46.573C36.5513 49.6344 34.7407 61.5624 33.8633 63.4477L33.5273 63.2984C34.3673 61.469 36.178 49.597 36.234 46.573C36.2713 44.9864 36.29 43.605 36.4207 42.709C36.7007 40.8237 36.4953 39.405 36.3833 38.8077C36.4393 38.7517 36.4953 38.7144 36.5513 38.6584C36.6073 38.621 36.6447 38.565 36.7007 38.5277C36.8127 39.013 37.13 40.5624 36.794 42.765Z" fill="white"/>
</g>
<defs>
<clipPath id="clip0_194_1687">
<path d="M0 28C0 12.536 12.536 0 28 0C43.464 0 56 12.536 56 28C56 43.464 43.464 56 28 56C12.536 56 0 43.464 0 28Z" fill="white"/>
</clipPath>
</defs>
</svg>
