<svg width="24" height="25" viewBox="0 0 24 25" fill="none" xmlns="http://www.w3.org/2000/svg">
<path d="M4.25977 11.5195V16.4895C4.25977 18.3095 4.25977 18.3095 5.97977 19.4695L10.7098 22.1995C11.4198 22.6095 12.5798 22.6095 13.2898 22.1995L18.0198 19.4695C19.7398 18.3095 19.7398 18.3095 19.7398 16.4895V11.5195C19.7398 9.69945 19.7398 9.69945 18.0198 8.53945L13.2898 5.80945C12.5798 5.39945 11.4198 5.39945 10.7098 5.80945L5.97977 8.53945C4.25977 9.69945 4.25977 9.69945 4.25977 11.5195Z" stroke="#10AC84" stroke-width="1.5" stroke-linecap="round" stroke-linejoin="round"/>
<path d="M17.5 8.13V5.5C17.5 3.5 16.5 2.5 14.5 2.5H9.5C7.5 2.5 6.5 3.5 6.5 5.5V8.06" stroke="#10AC84" stroke-width="1.5" stroke-linecap="round" stroke-linejoin="round"/>
<path d="M12.6298 11.4909L13.1998 12.3809C13.2898 12.5209 13.4898 12.6609 13.6398 12.7009L14.6598 12.9609C15.2898 13.1209 15.4598 13.6609 15.0498 14.1609L14.3798 14.9709C14.2798 15.1009 14.1998 15.3309 14.2098 15.4909L14.2698 16.5409C14.3098 17.1909 13.8498 17.5209 13.2498 17.2809L12.2698 16.8909C12.1198 16.8309 11.8698 16.8309 11.7198 16.8909L10.7398 17.2809C10.1398 17.5209 9.67978 17.1809 9.71978 16.5409L9.77978 15.4909C9.78978 15.3309 9.70978 15.0909 9.60978 14.9709L8.93978 14.1609C8.52978 13.6609 8.69978 13.1209 9.32978 12.9609L10.3498 12.7009C10.5098 12.6609 10.7098 12.5109 10.7898 12.3809L11.3598 11.4909C11.7198 10.9509 12.2798 10.9509 12.6298 11.4909Z" stroke="#10AC84" stroke-width="1.5" stroke-linecap="round" stroke-linejoin="round"/>
</svg>
