<svg width="20" height="12" viewBox="0 0 20 12" fill="none" xmlns="http://www.w3.org/2000/svg">
<path d="M5.00015 2.00002H19.0001C19.6001 2.00002 20.0001 1.60002 20.0001 1.00002C20.0001 0.400023 19.6001 2.35327e-05 19.0001 2.35327e-05H5.00015C4.40015 2.35327e-05 4.00015 0.400023 4.00015 1.00002C4.00015 1.60002 4.40015 2.00002 5.00015 2.00002ZM19.0001 5.00002H5.00015C4.40015 5.00002 4.00015 5.40002 4.00015 6.00002C4.00015 6.60002 4.40015 7.00002 5.00015 7.00002H19.0001C19.6001 7.00002 20.0001 6.60002 20.0001 6.00002C20.0001 5.40002 19.6001 5.00002 19.0001 5.00002ZM19.0001 10H5.00015C4.40015 10 4.00015 10.4 4.00015 11C4.00015 11.6 4.40015 12 5.00015 12H19.0001C19.6001 12 20.0001 11.6 20.0001 11C20.0001 10.4 19.6001 10 19.0001 10ZM1.70015 0.300024C1.60015 0.200024 1.50015 0.100023 1.40015 0.100023C1.00015 -0.0999766 0.600146 2.37226e-05 0.300146 0.300024C0.200146 0.400024 0.100146 0.500023 0.100146 0.600023C0.000145577 0.900023 0.000145577 1.10002 0.100146 1.40002C0.200146 1.50002 0.200146 1.60002 0.300146 1.70002C0.400146 1.80002 0.500146 1.90002 0.600146 1.90002C0.700146 2.00002 0.900146 2.00002 1.00015 2.00002C1.30015 2.00002 1.50015 1.90002 1.70015 1.70002C1.80015 1.60002 1.90015 1.50002 1.90015 1.40002C2.00015 1.10002 2.00015 0.900023 1.90015 0.600023C1.90015 0.500023 1.80015 0.400024 1.70015 0.300024ZM1.70015 5.30002C1.40015 5.00002 1.00015 4.90002 0.600146 5.10002C0.500146 5.20002 0.400146 5.20002 0.300146 5.30002C0.200146 5.40002 0.100146 5.50002 0.100146 5.60002C0.000145577 5.80002 0.000145577 6.10002 0.100146 6.40002C0.200146 6.50002 0.200146 6.60002 0.300146 6.70002C0.400146 6.80002 0.500146 6.90002 0.600146 6.90002C0.700146 7.00002 0.900146 7.00002 1.00015 7.00002C1.10015 7.00002 1.30015 7.00002 1.40015 6.90002C1.50015 6.80002 1.60015 6.80002 1.70015 6.70002C1.80015 6.60002 1.90015 6.50002 1.90015 6.40002C2.00015 6.20002 2.00015 5.90002 1.90015 5.60002C1.90015 5.50002 1.80015 5.40002 1.70015 5.30002ZM1.70015 10.3C1.60015 10.2 1.50015 10.1 1.40015 10.1C1.20015 10 0.900146 10 0.600146 10.1C0.500146 10.1 0.400146 10.2 0.300146 10.3C0.200146 10.4 0.100146 10.5 0.100146 10.6C-0.0998544 11 0.000145614 11.4 0.300146 11.7C0.400146 11.8 0.500146 11.9 0.600146 11.9C0.700146 12 0.900146 12 1.00015 12C1.10015 12 1.30015 12 1.40015 11.9C1.50015 11.8 1.60015 11.8 1.70015 11.7C2.00015 11.4 2.10015 11 1.90015 10.6C1.90015 10.5 1.80015 10.4 1.70015 10.3Z" fill="#191B29"/>
</svg>
