<svg width="93" height="89" viewBox="0 0 93 89" fill="none" xmlns="http://www.w3.org/2000/svg">
<path d="M20.9758 9.39337C15.0152 10.0596 10.2441 14.764 9.55445 20.6604C7.7019 36.4997 7.7019 52.5009 9.55445 68.3402C10.2441 74.2366 15.0152 78.941 20.9758 79.6072C36.4801 81.3401 52.5198 81.3401 68.0241 79.6072C73.9847 78.941 78.7558 74.2366 79.4454 68.3402C80.7766 56.9593 81.1512 45.4947 80.5695 34.0666C80.5544 33.7715 80.6647 33.4836 80.8736 33.2747L86.2839 27.8644C86.9101 27.2382 87.9801 27.6297 88.0466 28.5129C89.0677 42.0801 88.7871 55.7208 87.205 69.2478C86.086 78.8153 78.4043 86.3082 68.8919 87.3714C52.8109 89.1687 36.189 89.1687 20.108 87.3714C10.5956 86.3082 2.91385 78.8153 1.79485 69.2478C-0.12823 52.8055 -0.12823 36.1951 1.79485 19.7528C2.91385 10.1853 10.5956 2.69237 20.108 1.62922C36.189 -0.168072 52.8109 -0.168072 68.8919 1.62922C72.2422 2.00366 75.3654 3.17569 78.0547 4.95504C78.5839 5.30517 78.6364 6.04911 78.1877 6.4978L74.006 10.6795C73.664 11.0215 73.1335 11.0791 72.7071 10.8506C71.2831 10.0876 69.7007 9.58075 68.0241 9.39337C52.5198 7.66054 36.4801 7.66054 20.9758 9.39337Z" fill="#F2F2F2"/>
<path d="M91.5328 13.4083C93.0583 11.8828 93.0583 9.40949 91.5328 7.884C90.0074 6.35852 87.534 6.35852 86.0086 7.884L41.8957 51.9969L29.0328 39.134C27.5074 37.6085 25.0341 37.6085 23.5086 39.134C21.9831 40.6595 21.9831 43.1328 23.5086 44.6583L39.1336 60.2833C40.6591 61.8088 43.1324 61.8088 44.6578 60.2833L91.5328 13.4083Z" fill="#F2F2F2"/>
</svg>
