<svg width="14" height="24" viewBox="0 0 14 24" fill="none" xmlns="http://www.w3.org/2000/svg">
<path d="M2.89759 6.94325C2.89759 4.8825 4.41234 3.77625 6.06309 3.4905V10.2838C3.28734 9.52775 2.89759 8.1245 2.89759 6.94325ZM11.5411 16.6795C11.5411 19.4132 9.74784 20.3178 7.92459 20.5308V12.9155C10.5698 13.5463 11.5411 14.602 11.5411 16.6795ZM2.44659 16.4268H0.256836C0.256836 18.2533 0.992086 19.9075 2.32684 21.0853C3.35284 21.9903 4.65584 22.5568 6.06309 22.724V24H7.92459V22.7305C11.5318 22.3888 13.7308 20.137 13.7308 16.6795C13.7308 12.5813 10.7696 11.263 7.92459 10.6705V3.499C9.97859 3.86725 10.9151 5.37075 10.9151 6.48H13.1048C13.1048 4.1235 11.1873 1.694 7.92459 1.28425V0H6.06309V1.27325C2.91259 1.63075 0.707836 3.90425 0.707836 6.94325C0.707836 8.69375 1.37984 10.094 2.70534 11.1053C3.55659 11.7548 4.66084 12.2268 6.06309 12.5413V20.5063C4.18284 20.1708 2.44659 18.7653 2.44659 16.4268Z" fill="black"/>
</svg>
