<svg width="24" height="25" viewBox="0 0 24 25" fill="none" xmlns="http://www.w3.org/2000/svg">
<g clip-path="url(#clip0_194_1175)">
<path d="M11.3004 6.82495H14.4547C14.8969 6.82495 15.2547 6.4672 15.2547 6.02495C15.2547 5.5827 14.8969 5.22495 14.4547 5.22495H13.0947V4.49995C13.0947 4.0577 12.7359 3.69995 12.2942 3.69995C11.8524 3.69995 11.4942 4.0577 11.4942 4.49995V5.22495H11.3004C9.9357 5.22495 8.8252 6.33595 8.8252 7.7007C8.8252 9.0657 9.9357 10.1765 11.3004 10.1765H12.7794C13.2617 10.1765 13.6547 10.5687 13.6547 11.0515C13.6547 11.5282 13.2617 11.9157 12.7794 11.9157H9.6252C9.1832 11.9157 8.8252 12.2735 8.8252 12.7157C8.8252 13.1577 9.1832 13.5157 9.6252 13.5157H11.4942V14.2407C11.4942 14.6827 11.8524 15.0407 12.2942 15.0407C12.7359 15.0407 13.0947 14.6827 13.0947 14.2407V13.484C14.3099 13.3277 15.2547 12.3027 15.2547 11.0515C15.2547 9.6867 14.1447 8.57645 12.7794 8.57645H11.3004C10.8177 8.57645 10.4252 8.18345 10.4252 7.7007C10.4252 7.21795 10.8177 6.82495 11.3004 6.82495Z" fill="#10AC84"/>
<path d="M5.90377 17.1415C6.11102 17.1415 6.31852 17.061 6.47527 16.9008C6.78452 16.5853 6.77902 16.079 6.46352 15.7695C4.91852 14.257 4.06777 12.2335 4.06777 10.072C4.06777 5.67575 7.64402 2.1 12.04 2.1C16.436 2.1 20.0118 5.67575 20.0118 10.0718C20.0118 10.4118 19.9908 10.7515 19.9485 11.0828C19.893 11.521 20.2033 11.9218 20.6415 11.9773C21.086 12.028 21.4805 11.7228 21.536 11.2843C21.586 10.8868 21.6118 10.479 21.6118 10.0718C21.6118 4.79375 17.3183 0.5 12.04 0.5C6.76177 0.5 2.46777 4.79375 2.46777 10.0718C2.46777 12.6673 3.48927 15.0968 5.34402 16.9132C5.49977 17.0655 5.70177 17.1415 5.90377 17.1415Z" fill="#10AC84"/>
<path d="M23.7798 13.8857C23.7758 13.8522 23.7816 13.8185 23.7733 13.786C23.7653 13.756 23.7438 13.7302 23.7323 13.7012C23.7041 13.6277 23.6798 13.5525 23.6301 13.489C23.5141 13.3397 23.3441 13.2545 23.1613 13.2155C23.1368 13.2102 23.1141 13.1987 23.0891 13.1957C23.0713 13.1937 23.0561 13.183 23.0381 13.182L17.3388 12.9077C16.9106 12.8875 16.5231 13.2272 16.5013 13.6687C16.4801 14.1102 16.8208 14.4852 17.2623 14.5062L20.8076 14.677L13.4668 20.371L10.4418 16.3165C10.3126 16.143 10.1186 16.0297 9.90434 16.0015C9.68809 15.9727 9.47284 16.0335 9.30409 16.1672L0.582843 23.0727C0.236343 23.3467 0.177843 23.85 0.452093 24.1967C0.610343 24.396 0.843843 24.5 1.07984 24.5C1.25409 24.5 1.42909 24.4437 1.57584 24.3272L9.65159 17.9327L12.6716 21.9812C12.8001 22.154 12.9928 22.2672 13.2051 22.296C13.4161 22.3235 13.6333 22.2665 13.8036 22.1352L21.7938 15.9372L21.0991 19.4202C21.0123 19.8532 21.2936 20.275 21.7271 20.361C21.7793 20.3717 21.8326 20.3765 21.8841 20.3765C22.2576 20.3765 22.5918 20.1132 22.6678 19.7327L23.7841 14.1375C23.7853 14.131 23.7826 14.1247 23.7838 14.1182C23.7966 14.041 23.7901 13.9637 23.7798 13.8857Z" fill="#10AC84"/>
</g>
<defs>
<clipPath id="clip0_194_1175">
<rect width="24" height="24" fill="white" transform="translate(0 0.5)"/>
</clipPath>
</defs>
</svg>
