<svg width="141" height="140" viewBox="0 0 141 140" fill="none" xmlns="http://www.w3.org/2000/svg">
<path d="M35.4997 134.167H12.1663C11.4002 134.167 10.6416 134.016 9.93379 133.723C9.22596 133.43 8.58282 133 8.04111 132.459C7.49939 131.917 7.06972 131.274 6.77664 130.566C6.48356 129.858 6.33281 129.099 6.33301 128.333V81.6667C6.33281 80.9006 6.48356 80.142 6.77664 79.4342C7.06972 78.7263 7.49939 78.0832 8.04111 77.5415C8.58282 76.9998 9.22596 76.5701 9.93379 76.277C10.6416 75.9839 11.4002 75.8332 12.1663 75.8334H35.4997C36.2658 75.8332 37.0244 75.9839 37.7322 76.277C38.4401 76.5701 39.0832 76.9998 39.6249 77.5415C40.1666 78.0832 40.5963 78.7263 40.8894 79.4342C41.1825 80.142 41.3332 80.9006 41.333 81.6667V128.333C41.3332 129.099 41.1825 129.858 40.8894 130.566C40.5963 131.274 40.1666 131.917 39.6249 132.459C39.0832 133 38.4401 133.43 37.7322 133.723C37.0244 134.016 36.2658 134.167 35.4997 134.167Z" fill="#A4A7C6"/>
<path d="M82.1667 134.167H58.8333C58.0672 134.167 57.3086 134.016 56.6008 133.723C55.893 133.43 55.2498 133 54.7081 132.459C54.1664 131.917 53.7367 131.274 53.4436 130.566C53.1505 129.858 52.9998 129.099 53 128.333V11.6667C52.9998 10.9006 53.1505 10.142 53.4436 9.43415C53.7367 8.72633 54.1664 8.08319 54.7081 7.54147C55.2498 6.99976 55.893 6.57009 56.6008 6.277C57.3086 5.98392 58.0672 5.83317 58.8333 5.83337H82.1667C82.9328 5.83317 83.6914 5.98392 84.3992 6.277C85.107 6.57009 85.7502 6.99976 86.2919 7.54147C86.8336 8.08319 87.2633 8.72633 87.5564 9.43415C87.8495 10.142 88.0002 10.9006 88 11.6667V128.333C88.0002 129.099 87.8495 129.858 87.5564 130.566C87.2633 131.274 86.8336 131.917 86.2919 132.459C85.7502 133 85.107 133.43 84.3992 133.723C83.6914 134.016 82.9328 134.167 82.1667 134.167Z" fill="#D3D5E4"/>
<path d="M128.834 134.167H105.5C104.734 134.167 103.976 134.016 103.268 133.723C102.56 133.43 101.917 133 101.375 132.459C100.833 131.917 100.404 131.274 100.111 130.566C99.8175 129.858 99.6668 129.099 99.667 128.333V58.3333C99.6668 57.5672 99.8175 56.8086 100.111 56.1008C100.404 55.393 100.833 54.7498 101.375 54.2081C101.917 53.6664 102.56 53.2367 103.268 52.9436C103.976 52.6505 104.734 52.4998 105.5 52.5H128.834C129.6 52.4998 130.358 52.6505 131.066 52.9436C131.774 53.2367 132.417 53.6664 132.959 54.2081C133.501 54.7498 133.93 55.393 134.223 56.1008C134.516 56.8086 134.667 57.5672 134.667 58.3333V128.333C134.667 129.099 134.516 129.858 134.223 130.566C133.93 131.274 133.501 131.917 132.959 132.459C132.417 133 131.774 133.43 131.066 133.723C130.358 134.016 129.6 134.167 128.834 134.167Z" fill="#A4A7C6"/>
</svg>
