<svg width="25" height="25" viewBox="0 0 25 25" fill="none" xmlns="http://www.w3.org/2000/svg">
<g clip-path="url(#clip0_194_1456)">
<path d="M9.77778 6.82495H12.9343C13.3765 6.82495 13.7345 6.4672 13.7345 6.02495C13.7345 5.5827 13.3765 5.22495 12.9343 5.22495H11.5725V4.49995C11.5725 4.0577 11.2145 3.69995 10.772 3.69995C10.3298 3.69995 9.97178 4.0577 9.97178 4.49995V5.22495H9.77778C8.41228 5.22495 7.30078 6.33595 7.30078 7.7007C7.30078 9.0657 8.41228 10.1765 9.77778 10.1765H11.2575C11.7405 10.1765 12.1338 10.5687 12.1338 11.0515C12.1338 11.5282 11.7405 11.9157 11.2575 11.9157H8.10128C7.65878 11.9157 7.30078 12.2735 7.30078 12.7157C7.30078 13.1577 7.65878 13.5157 8.10128 13.5157H9.97178V14.2407C9.97178 14.6827 10.3298 15.0407 10.772 15.0407C11.2145 15.0407 11.5725 14.6827 11.5725 14.2407V13.484C12.7883 13.328 13.7345 12.3027 13.7345 11.0515C13.7345 9.6867 12.623 8.57645 11.2575 8.57645H9.77778C9.29478 8.57645 8.90153 8.18345 8.90153 7.7007C8.90153 7.21795 9.29478 6.82495 9.77778 6.82495Z" fill="#EE5353"/>
<path d="M2.1753 12.1585C2.61055 12.0828 2.9023 11.6688 2.82705 11.2335C2.7513 10.7968 2.71305 10.3485 2.71305 9.9C2.71305 5.59925 6.21406 2.1 10.5171 2.1C14.8208 2.1 18.3218 5.59925 18.3218 9.9C18.3218 11.6633 17.7481 13.3258 16.6623 14.7078C16.3896 15.0555 16.4506 15.5578 16.7983 15.8313C16.9446 15.946 17.1188 16.0015 17.2916 16.0015C17.5293 16.0015 17.7646 15.897 17.9226 15.6953C19.2311 14.029 19.9228 12.025 19.9228 9.9C19.9228 4.71725 15.7033 0.5 10.5171 0.5C5.33155 0.5 1.1123 4.71725 1.1123 9.9C1.1123 10.439 1.1583 10.9798 1.2498 11.507C1.3248 11.9423 1.73905 12.2313 2.1753 12.1585Z" fill="#EE5353"/>
<mask id="mask0_194_1456" style="mask-type:luminance" maskUnits="userSpaceOnUse" x="1" y="13" width="24" height="12">
<path d="M1.01172 13.0439H24.1217V24.4999H1.01172V13.0439Z" fill="white"/>
</mask>
<g mask="url(#mask0_194_1456)">
<path d="M24.1097 23.6264C24.118 23.5942 24.1122 23.5609 24.1162 23.5279C24.1265 23.4497 24.133 23.3722 24.1202 23.2949C24.1192 23.2882 24.122 23.2817 24.1207 23.2749L23.0262 17.7897C22.9402 17.3569 22.5175 17.0727 22.0852 17.1617C21.6515 17.2477 21.37 17.6694 21.4567 18.1022L22.1297 21.4762L14.3257 15.4257C14.1552 15.2937 13.9395 15.2367 13.727 15.2647C13.5145 15.2937 13.322 15.4069 13.1932 15.5797L10.2407 19.5352L2.33272 13.2757C1.98572 13.0014 1.48247 13.0609 1.20797 13.4062C0.933721 13.7529 0.992221 14.2562 1.33847 14.5304L9.89222 21.3007C10.061 21.4342 10.2737 21.4944 10.4932 21.4664C10.7075 21.4382 10.9012 21.3249 11.031 21.1514L13.9887 17.1897L21.1417 22.7354L17.708 22.9007C17.2662 22.9217 16.9255 23.2967 16.9467 23.7382C16.9677 24.1664 17.321 24.4999 17.7455 24.4999C17.7587 24.4999 17.7712 24.4999 17.7845 24.4992L23.3742 24.2304C23.607 24.2187 23.8237 24.1069 23.9667 23.9234C24.01 23.8679 24.029 23.8012 24.056 23.7379C24.0725 23.6999 24.0995 23.6657 24.1097 23.6264Z" fill="#EE5353"/>
</g>
</g>
<defs>
<clipPath id="clip0_194_1456">
<rect width="24" height="24" fill="white" transform="translate(0.5 0.5)"/>
</clipPath>
</defs>
</svg>
