<svg width="194" height="50" viewBox="0 0 194 50" fill="none" xmlns="http://www.w3.org/2000/svg">
<path d="M10.45 16.475H13.55V11.2C13.55 9.23333 14 7.56666 14.9 6.2C15.8 4.83333 16.9667 3.79167 18.4 3.075C19.8333 2.35833 21.3333 2 22.9 2C24.8333 2 26.3 2.25833 27.3 2.775C28.3167 3.29167 28.9667 3.68333 29.25 3.95L25.9 10.375C25.8167 10.2583 25.625 10.075 25.325 9.825C25.025 9.575 24.65 9.45 24.2 9.45C23.9167 9.45 23.6333 9.525 23.35 9.675C23.0667 9.825 22.8333 10.075 22.65 10.425C22.4667 10.775 22.375 11.2833 22.375 11.95V16.475H27.175V23.7H22.375V37H13.55V23.7H10.45V16.475ZM30.225 37V16.475H39.05V37H30.225ZM34.75 13.325C33.4 13.325 32.25 12.85 31.3 11.9C30.3667 10.95 29.9 9.81666 29.9 8.5C29.9 7.18333 30.3667 6.04166 31.3 5.075C32.25 4.10833 33.4 3.625 34.75 3.625C35.6333 3.625 36.4417 3.85 37.175 4.3C37.9083 4.73333 38.5 5.31667 38.95 6.05C39.4 6.78333 39.625 7.6 39.625 8.5C39.625 9.81666 39.1417 10.95 38.175 11.9C37.225 12.85 36.0833 13.325 34.75 13.325ZM58.8609 15.875C60.3443 15.875 61.7859 16.1667 63.1859 16.75C64.5859 17.3333 65.7359 18.2667 66.6359 19.55C67.5526 20.8333 68.0109 22.5083 68.0109 24.575V37H59.1359V26C59.1359 24.75 58.8359 23.7917 58.2359 23.125C57.6359 22.4417 56.8359 22.1 55.8359 22.1C55.1859 22.1 54.5776 22.2667 54.0109 22.6C53.4443 22.9333 52.9859 23.4 52.6359 24C52.3026 24.6 52.1359 25.3 52.1359 26.1V37H43.2859V16.475H52.1359V19.25C52.3526 18.7 52.7776 18.175 53.4109 17.675C54.0443 17.1583 54.8359 16.7333 55.7859 16.4C56.7359 16.05 57.7609 15.875 58.8609 15.875Z" fill="#0ABDE3"/>
<path d="M88.6336 26.45L84.0336 37H76.1086L68.8336 16.475H78.2086L81.3336 27.575L85.8836 16.875H91.4336L95.9086 27.575L99.0586 16.475H108.434L101.209 37H93.3086L88.6336 26.45ZM109.927 37V16.475H118.752V37H109.927ZM114.452 13.325C113.102 13.325 111.952 12.85 111.002 11.9C110.068 10.95 109.602 9.81666 109.602 8.5C109.602 7.18333 110.068 6.04166 111.002 5.075C111.952 4.10833 113.102 3.625 114.452 3.625C115.335 3.625 116.143 3.85 116.877 4.3C117.61 4.73333 118.202 5.31667 118.652 6.05C119.102 6.78333 119.327 7.6 119.327 8.5C119.327 9.81666 118.843 10.95 117.877 11.9C116.927 12.85 115.785 13.325 114.452 13.325ZM133.272 15.875C134.706 15.875 136.014 15.9917 137.197 16.225C138.397 16.4583 139.389 16.7167 140.172 17C140.972 17.2667 141.472 17.475 141.672 17.625L138.897 22.775C138.597 22.5583 138.014 22.275 137.147 21.925C136.297 21.5583 135.356 21.375 134.322 21.375C133.639 21.375 133.072 21.4583 132.622 21.625C132.189 21.775 131.972 22.0417 131.972 22.425C131.972 22.7917 132.231 23.1 132.747 23.35C133.264 23.5833 134.047 23.7917 135.097 23.975C136.047 24.1583 137.047 24.4667 138.097 24.9C139.147 25.3167 140.031 25.9583 140.747 26.825C141.481 27.675 141.847 28.8167 141.847 30.25C141.847 31.7833 141.514 33.0333 140.847 34C140.181 34.95 139.306 35.6917 138.222 36.225C137.156 36.7417 135.997 37.1 134.747 37.3C133.514 37.5 132.331 37.6 131.197 37.6C129.531 37.6 128.089 37.45 126.872 37.15C125.656 36.8667 124.681 36.5417 123.947 36.175C123.231 35.8083 122.739 35.525 122.472 35.325L125.197 29.6C125.631 29.95 126.331 30.35 127.297 30.8C128.281 31.25 129.297 31.475 130.347 31.475C131.281 31.475 131.981 31.375 132.447 31.175C132.931 30.9583 133.172 30.6667 133.172 30.3C133.172 30.0167 133.056 29.7833 132.822 29.6C132.589 29.4167 132.247 29.25 131.797 29.1C131.347 28.95 130.781 28.8083 130.097 28.675C129.481 28.5583 128.797 28.3667 128.047 28.1C127.297 27.8167 126.581 27.425 125.897 26.925C125.231 26.425 124.672 25.7917 124.222 25.025C123.789 24.2417 123.572 23.2917 123.572 22.175C123.572 20.7417 124.039 19.5667 124.972 18.65C125.906 17.7167 127.106 17.025 128.572 16.575C130.056 16.1083 131.622 15.875 133.272 15.875ZM152.844 28.525C152.91 29.075 153.127 29.5583 153.494 29.975C153.877 30.375 154.377 30.6917 154.994 30.925C155.627 31.1417 156.369 31.25 157.219 31.25C158.052 31.25 158.835 31.1917 159.569 31.075C160.302 30.9417 160.952 30.7667 161.519 30.55C162.102 30.3333 162.56 30.0917 162.894 29.825L166.169 35.325C165.802 35.6417 165.252 35.975 164.519 36.325C163.785 36.675 162.777 36.975 161.494 37.225C160.227 37.475 158.602 37.6 156.619 37.6C154.319 37.6 152.252 37.1917 150.419 36.375C148.585 35.5583 147.135 34.3333 146.069 32.7C145.002 31.05 144.469 28.9917 144.469 26.525C144.469 24.525 144.919 22.725 145.819 21.125C146.719 19.5083 148.019 18.2333 149.719 17.3C151.419 16.35 153.477 15.875 155.894 15.875C158.21 15.875 160.219 16.2833 161.919 17.1C163.619 17.9 164.927 19.1167 165.844 20.75C166.76 22.3833 167.219 24.45 167.219 26.95C167.219 27.0833 167.21 27.35 167.194 27.75C167.194 28.15 167.177 28.4083 167.144 28.525H152.844ZM158.894 24.525C158.877 23.975 158.752 23.4833 158.519 23.05C158.302 22.6167 157.985 22.275 157.569 22.025C157.152 21.775 156.644 21.65 156.044 21.65C155.46 21.65 154.944 21.7667 154.494 22C154.044 22.2333 153.694 22.5667 153.444 23C153.194 23.4167 153.052 23.925 153.019 24.525H158.894ZM176.111 37.6C174.744 37.6 173.569 37.1167 172.586 36.15C171.619 35.1667 171.136 33.9917 171.136 32.625C171.136 31.225 171.619 30.0417 172.586 29.075C173.569 28.0917 174.744 27.6 176.111 27.6C177.494 27.6 178.669 28.0917 179.636 29.075C180.619 30.0417 181.111 31.225 181.111 32.625C181.111 33.9917 180.619 35.1667 179.636 36.15C178.669 37.1167 177.494 37.6 176.111 37.6Z" fill="#1D2D5F"/>
</svg>
