<svg width="24" height="24" viewBox="0 0 24 24" fill="none" xmlns="http://www.w3.org/2000/svg">
<g clip-path="url(#clip0_344_22793)">
<mask id="mask0_344_22793" style="mask-type:luminance" maskUnits="userSpaceOnUse" x="0" y="0" width="24" height="24">
<path d="M0.196289 0H23.8123V24H0.196289V0Z" fill="white"/>
</mask>
<g mask="url(#mask0_344_22793)">
<path d="M16.7648 18.565C16.949 18.565 17.1315 18.6207 17.2878 18.7305L20.591 21.054L19.8 16.7027C19.748 16.4182 19.8355 16.1242 20.0345 15.916C21.4118 14.4667 21.998 12.8872 21.998 10.6345C21.998 8.30175 20.9725 6.103 19.1098 4.44175C17.2153 2.7545 14.6935 1.826 12.0043 1.826C6.49579 1.828 2.01279 5.77725 2.01279 10.6345C2.01279 15.4917 6.49404 19.443 12.0043 19.443C13.8523 19.443 15.1625 19.205 16.3888 18.6487C16.508 18.5927 16.6363 18.565 16.7648 18.565ZM21.8808 23.9802C21.6983 23.9802 21.514 23.9245 21.3578 23.8147L16.655 20.5052C15.3225 21.0297 13.897 21.2567 12.0063 21.2567C5.49279 21.2567 0.196289 16.4925 0.196289 10.6345C0.196289 4.7765 5.49279 0.010498 12.0043 0.010498C15.1383 0.010498 18.0918 1.1025 20.3155 3.0875C22.5693 5.0965 23.8123 7.77725 23.8123 10.6345C23.8123 13.1832 23.1463 15.1122 21.6648 16.82L22.774 22.9125C22.839 23.2752 22.681 23.6417 22.37 23.8407C22.2193 23.9337 22.05 23.9802 21.8808 23.9802Z" fill="#656B9F"/>
</g>
<path fill-rule="evenodd" clip-rule="evenodd" d="M9.44027 7.24324L12.0003 9.80324L14.5603 7.24324C15.4563 6.34724 16.8003 7.69124 15.9043 8.58724L13.3443 11.1472L15.9043 13.7072C16.8003 14.6032 15.4563 15.9472 14.5603 15.0512L12.0003 12.4912L9.44027 15.0512C8.54427 15.9472 7.20027 14.6032 8.09627 13.7072L10.6563 11.1472L8.09627 8.58724C7.20027 7.69124 8.54427 6.34724 9.44027 7.24324Z" fill="#656B9F"/>
</g>
<defs>
<clipPath id="clip0_344_22793">
<rect width="24" height="24" fill="white"/>
</clipPath>
</defs>
</svg>
