<svg width="24" height="24" viewBox="0 0 24 24" fill="none" xmlns="http://www.w3.org/2000/svg">
<g clip-path="url(#clip0_344_22805)">
<mask id="mask0_344_22805" style="mask-type:luminance" maskUnits="userSpaceOnUse" x="5" y="0" width="14" height="24">
<path d="M5.09961 0H18.9236V24H5.09961V0Z" fill="white"/>
</mask>
<g mask="url(#mask0_344_22805)">
<path fill-rule="evenodd" clip-rule="evenodd" d="M15.9999 0.83C15.6757 1.7585 15.0417 2.53225 14.2102 3.03875C16.9439 3.953 18.9169 6.5415 18.9169 9.58025C18.9169 12.9708 16.4367 15.7983 13.1954 16.361V19.1748H15.1262V21.5523H13.1954V24H10.8139V21.5523H8.8832V19.1748H10.8139V16.361C7.5727 15.7983 5.10645 12.9708 5.10645 9.58025C5.10645 6.5415 7.07945 3.953 9.8132 3.03875C8.9817 2.53225 8.33345 1.7585 8.00945 0.83L9.8132 0.04225C9.91195 0.23925 10.2924 0.7035 10.4614 0.85825C11.3072 1.71625 12.7022 1.71625 13.5619 0.85825C13.8014 0.619 13.9847 0.3235 14.0832 0L15.9999 0.83ZM12.0117 4.82525C14.6329 4.82525 16.7749 6.9495 16.7749 9.58025C16.7749 12.197 14.6329 14.3213 12.0117 14.3213C9.37645 14.3213 7.24845 12.197 7.24845 9.58025C7.24845 6.9495 9.37645 4.82525 12.0117 4.82525Z" fill="#656B9F"/>
</g>
</g>
<defs>
<clipPath id="clip0_344_22805">
<rect width="24" height="24" fill="white"/>
</clipPath>
</defs>
</svg>
