<svg width="16" height="23" viewBox="0 0 16 23" fill="none" xmlns="http://www.w3.org/2000/svg">
<path d="M13.4922 20.502V21.002H13.9922H14.9922C15.1248 21.002 15.252 21.0546 15.3457 21.1484C15.4395 21.2422 15.4922 21.3693 15.4922 21.502C15.4922 21.6346 15.4395 21.7617 15.3457 21.8555C15.252 21.9493 15.1248 22.002 14.9922 22.002H0.992188C0.859581 22.002 0.732403 21.9493 0.638634 21.8555C0.544865 21.7617 0.492188 21.6346 0.492188 21.502C0.492188 21.3693 0.544866 21.2422 0.638634 21.1484C0.732401 21.0546 0.859579 21.002 0.992188 21.002H1.99219H2.49219V20.502V18.8364C2.49515 18.3224 2.5861 17.8127 2.76108 17.3293C2.76643 17.3151 2.77174 17.3027 2.77809 17.2894L2.7885 17.2678L2.79677 17.2452C2.94219 16.8485 3.14296 16.4744 3.39312 16.134L4.79253 14.2688L4.79337 14.2677C5.24564 13.6613 5.49067 12.9254 5.49219 12.169V12.168L5.49219 11.1582L5.49219 11.1567C5.48951 10.2301 5.12165 9.34184 4.4684 8.68463L4.46733 8.68356L3.81106 8.02729C3.8109 8.02713 3.81074 8.02697 3.81059 8.02682C3.13281 7.34516 2.69446 6.46241 2.56073 5.51113L2.56335 5.49834L2.54853 5.4076C2.51766 5.21853 2.49884 5.02769 2.4922 4.83623V2.50195V2.00195H1.9922H0.992198C0.859589 2.00195 0.732412 1.94927 0.638644 1.85551C0.544876 1.76174 0.492198 1.63456 0.492198 1.50195C0.492198 1.36934 0.544876 1.24217 0.638644 1.1484C0.732412 1.05463 0.859589 1.00195 0.992198 1.00195H14.9922C15.1248 1.00195 15.252 1.05463 15.3457 1.1484C15.4395 1.24217 15.4922 1.36935 15.4922 1.50195C15.4922 1.63456 15.4395 1.76174 15.3457 1.85551C15.252 1.94928 15.1248 2.00195 14.9922 2.00195H13.9922H13.4922V2.50195V4.83623C13.4856 5.02768 13.4667 5.21853 13.4359 5.4076L13.421 5.49834L13.4237 5.51107C13.2899 6.46235 12.8516 7.34507 12.1738 8.02672C12.1737 8.02689 12.1735 8.02707 12.1733 8.02724L11.517 8.68351L11.516 8.68458C10.8627 9.3418 10.4949 10.2301 10.4922 11.1567V11.1582L10.4922 12.168L10.4922 12.1689C10.4936 12.9256 10.7389 13.6616 11.1917 14.2679L11.1922 14.2687L12.5908 16.1341C12.841 16.4743 13.0419 16.8483 13.1873 17.2449L13.1958 17.2679L13.2064 17.2899C13.2123 17.3022 13.2176 17.3145 13.2234 17.3299C13.3983 17.813 13.4892 18.3225 13.4922 18.8363V20.502ZM2.53474 5.37738C2.53461 5.37695 2.53463 5.377 2.53475 5.37741L2.53474 5.37738ZM13.4497 5.37708L13.4497 5.37709L13.4497 5.37708ZM3.49219 4.50195V5.00195H3.99219H11.9922H12.4922V4.50195V2.50195V2.00195H11.9922H3.99219H3.49219V2.50195V4.50195ZM4.51624 7.31856L4.51708 7.3194L5.1743 7.97653L5.17531 7.97754C5.87673 8.67485 6.32647 9.58552 6.45383 10.5663L6.51039 11.002H6.94967H9.03467H9.47393L9.5305 10.5664C9.65789 9.58556 10.1076 8.67493 10.809 7.97765L10.8101 7.97661L11.4673 7.31938L11.4681 7.31855C11.6328 7.15317 11.7803 6.9716 11.9085 6.77662L12.4177 6.00195H11.4907H4.49372H3.56668L4.07591 6.77661C4.20409 6.9716 4.35161 7.15317 4.51624 7.31856ZM6.98096 12.002H6.51425L6.48214 12.4676C6.4222 13.3367 6.11327 14.1702 5.59228 14.8685C5.59218 14.8686 5.59207 14.8688 5.59197 14.8689L4.59187 16.2019L3.9916 17.002H4.99182H10.9923H11.9921L11.3924 16.202L10.3928 14.8687C10.3927 14.8686 10.3925 14.8684 10.3924 14.8682C9.87118 14.1702 9.56212 13.3367 9.50223 12.4676L9.47015 12.002H9.00342H6.98096ZM11.9922 21.002H12.4922V20.502V18.835H12.4923L12.492 18.8225C12.4888 18.6922 12.4782 18.5622 12.4602 18.4331L12.4003 18.002H11.965H4.01941H3.58411L3.52417 18.4331C3.50622 18.5622 3.4956 18.6922 3.49234 18.8225L3.49219 18.8225V18.835V20.502V21.002H3.99219H11.9922Z" fill="#10AC84" stroke="#10AC84"/>
</svg>
