<svg width="17" height="21" viewBox="0 0 17 21" fill="none" xmlns="http://www.w3.org/2000/svg">
<path fill-rule="evenodd" clip-rule="evenodd" d="M12.1501 2.7629L12.9635 2.8642C14.8408 3.09801 16.25 4.69359 16.25 6.58545V17.0749C16.25 18.9118 14.8817 20.461 13.0589 20.688C10.0313 21.0651 6.96866 21.0651 3.94107 20.688C2.11826 20.461 0.75 18.9118 0.75 17.0749V6.58545C0.75 4.69359 2.1592 3.09801 4.03655 2.8642L4.8499 2.7629C5.17208 1.60206 6.23654 0.75 7.5 0.75H9.5C10.7635 0.75 11.8279 1.60206 12.1501 2.7629ZM4.75 4.28693L4.22193 4.3527C3.09552 4.49299 2.25 5.45034 2.25 6.58545V17.0749C2.25 18.155 3.05458 19.066 4.12645 19.1995C7.03093 19.5612 9.96907 19.5612 12.8735 19.1995C13.9454 19.066 14.75 18.155 14.75 17.0749V6.58545C14.75 5.45034 13.9045 4.49299 12.7781 4.3527L12.25 4.28693V5.5C12.25 5.91421 11.9142 6.25 11.5 6.25H5.5C5.08579 6.25 4.75 5.91421 4.75 5.5V4.28693ZM6.25 3.5C6.25 2.80964 6.80964 2.25 7.5 2.25H9.5C10.1904 2.25 10.75 2.80964 10.75 3.5V4.75H6.25V3.5Z" fill="#0ABDE3"/>
<path d="M12.25 10.25C12.25 9.83579 11.9142 9.5 11.5 9.5H5.5C5.08579 9.5 4.75 9.83579 4.75 10.25C4.75 10.6642 5.08579 11 5.5 11H11.5C11.9142 11 12.25 10.6642 12.25 10.25Z" fill="#0ABDE3"/>
<path d="M11.25 13.25C11.25 12.8358 10.9142 12.5 10.5 12.5H5.5C5.08579 12.5 4.75 12.8358 4.75 13.25C4.75 13.6642 5.08579 14 5.5 14H10.5C10.9142 14 11.25 13.6642 11.25 13.25Z" fill="#0ABDE3"/>
</svg>
