<svg width="16" height="16" viewBox="0 0 16 16" fill="none" xmlns="http://www.w3.org/2000/svg">
<path d="M14.2738 5.75878C14.2738 5.75878 14.2738 5.75878 14.2738 5.72545C13.8041 4.44293 12.9517 3.33564 11.8321 2.55336C10.7125 1.77108 9.37962 1.35156 8.01379 1.35156C6.64796 1.35156 5.31508 1.77108 4.19546 2.55336C3.07585 3.33564 2.22352 4.44293 1.75379 5.72545C1.75379 5.72545 1.75379 5.72545 1.75379 5.75878C1.22921 7.20605 1.22921 8.79152 1.75379 10.2388C1.75379 10.2388 1.75379 10.2388 1.75379 10.2721C2.22352 11.5546 3.07585 12.6619 4.19546 13.4442C5.31508 14.2265 6.64796 14.646 8.01379 14.646C9.37962 14.646 10.7125 14.2265 11.8321 13.4442C12.9517 12.6619 13.8041 11.5546 14.2738 10.2721C14.2738 10.2721 14.2738 10.2721 14.2738 10.2388C14.7984 8.79152 14.7984 7.20605 14.2738 5.75878ZM2.84046 9.33211C2.60927 8.45826 2.60927 7.53931 2.84046 6.66545H4.08046C3.97381 7.55114 3.97381 8.44642 4.08046 9.33211H2.84046ZM3.38712 10.6654H4.32046C4.47693 11.26 4.7006 11.8348 4.98712 12.3788C4.33332 11.9334 3.78679 11.3482 3.38712 10.6654ZM4.32046 5.33211H3.38712C3.78104 4.6515 4.32058 4.06643 4.96712 3.61878C4.68749 4.16361 4.47055 4.73839 4.32046 5.33211ZM7.33379 13.1321C6.51497 12.5312 5.93989 11.6556 5.71379 10.6654H7.33379V13.1321ZM7.33379 9.33211H5.42712C5.30272 8.44758 5.30272 7.54998 5.42712 6.66545H7.33379V9.33211ZM7.33379 5.33211H5.71379C5.93989 4.34196 6.51497 3.46633 7.33379 2.86545V5.33211ZM12.6138 5.33211H11.6805C11.524 4.73755 11.3003 4.16274 11.0138 3.61878C11.6676 4.06416 12.2141 4.64941 12.6138 5.33211ZM8.66712 2.86545C9.48595 3.46633 10.061 4.34196 10.2871 5.33211H8.66712V2.86545ZM8.66712 13.1321V10.6654H10.2871C10.061 11.6556 9.48595 12.5312 8.66712 13.1321ZM10.5738 9.33211H8.66712V6.66545H10.5738C10.6982 7.54998 10.6982 8.44758 10.5738 9.33211ZM11.0338 12.3788C11.3203 11.8348 11.544 11.26 11.7005 10.6654H12.6338C12.2341 11.3482 11.6876 11.9334 11.0338 12.3788ZM13.1605 9.33211H11.9205C11.9747 8.88975 12.0014 8.44445 12.0005 7.99878C12.0012 7.55312 11.9745 7.10783 11.9205 6.66545H13.1605C13.3916 7.53931 13.3916 8.45826 13.1605 9.33211Z" fill="white"/>
</svg>
