<svg width="37" height="37" viewBox="0 0 37 37" fill="none" xmlns="http://www.w3.org/2000/svg">
<g clip-path="url(#clip0_202_841)">
<path d="M13.2883 29.7395C13.0067 29.5985 12.6688 29.7395 12.5278 30.0212C12.3872 30.3028 12.5278 30.641 12.8094 30.7817C12.9786 30.8664 13.1758 30.9508 13.3449 31.007C13.4012 31.0352 13.4856 31.0633 13.5699 31.0633C13.7953 31.0633 13.9926 30.9227 14.1054 30.7254C14.2179 30.4438 14.0773 30.1055 13.7953 29.993C13.5984 29.8802 13.4293 29.8239 13.2883 29.7395Z" fill="white"/>
<path d="M6.8666 22.7536C6.75373 22.4719 6.44398 22.3028 6.13385 22.4153C5.85223 22.5282 5.68348 22.8379 5.79598 23.1477C5.85223 23.3449 5.93698 23.5141 6.02135 23.6832C6.10573 23.9086 6.3311 24.0211 6.52835 24.0211C6.61273 24.0211 6.66935 24.0211 6.75373 23.9648C7.03535 23.8519 7.17635 23.5141 7.06348 23.2324C6.9791 23.0914 6.92285 22.9223 6.8666 22.7536Z" fill="white"/>
<path d="M6.95099 25.5421C7.06349 25.7112 7.14824 25.8803 7.26074 26.0491C7.37362 26.2182 7.54237 26.303 7.73962 26.303C7.85249 26.303 7.96499 26.2745 8.04937 26.2182C8.30324 26.0491 8.38762 25.6831 8.19037 25.4296C8.07787 25.2886 7.99312 25.1198 7.90874 24.9788C7.73962 24.7253 7.40174 24.641 7.14824 24.7816C6.86662 24.9226 6.78187 25.2605 6.95099 25.5421Z" fill="white"/>
<path d="M11.2609 8.303C11.3734 8.303 11.4863 8.2745 11.5707 8.21825C11.7117 8.10575 11.8804 8.021 12.0214 7.93662C12.2749 7.7675 12.3593 7.42962 12.2187 7.148C12.0777 6.86637 11.7117 6.78162 11.4582 6.95075C11.2891 7.06325 11.1199 7.148 10.9512 7.2605C10.6973 7.42962 10.6129 7.79562 10.8102 8.04912C10.9227 8.21825 11.0918 8.303 11.2609 8.303Z" fill="white"/>
<path d="M5.34483 15.3169C5.28858 15.5142 5.26046 15.7111 5.23233 15.8802C5.17571 16.1899 5.37296 16.4719 5.68308 16.5282C5.71121 16.5282 5.76746 16.5282 5.79558 16.5282C6.04908 16.5282 6.30258 16.3309 6.35883 16.0774C6.38733 15.9083 6.44358 15.7111 6.47171 15.5423C6.55608 15.2322 6.35883 14.9224 6.04908 14.8662C5.73933 14.8381 5.42958 15.0068 5.34483 15.3169Z" fill="white"/>
<path d="M30.0213 11.4298C29.9088 11.2606 29.824 11.0915 29.7115 10.9224C29.5424 10.6689 29.176 10.5845 28.9225 10.7818C28.669 10.9509 28.5846 11.3169 28.7819 11.5704C28.8944 11.7114 28.9791 11.8801 29.0635 12.0211C29.176 12.1903 29.3451 12.3028 29.5424 12.3028C29.6549 12.3028 29.7396 12.2746 29.824 12.2184C30.1056 12.0493 30.1904 11.7114 30.0213 11.4298Z" fill="white"/>
<path d="M30.1333 14.2183C30.2181 14.4436 30.4434 14.5846 30.6688 14.5846C30.7251 14.5846 30.8094 14.5846 30.8661 14.5565C31.1477 14.4436 31.3164 14.1339 31.2039 13.8241C31.1477 13.6269 31.0629 13.4578 30.9786 13.2886C30.8661 13.007 30.5278 12.8664 30.2462 12.9789C29.9646 13.0914 29.8236 13.4296 29.9364 13.7113C29.9927 13.8804 30.0771 14.0491 30.1333 14.2183Z" fill="white"/>
<path d="M7.03521 13.7957C7.09146 13.6269 7.17621 13.4578 7.26059 13.2887C7.40159 13.0071 7.26059 12.6692 6.97896 12.5282C6.69734 12.3876 6.35909 12.5282 6.21846 12.8098C6.13371 12.9789 6.04934 13.1762 5.99309 13.3453C5.88021 13.6269 6.02121 13.9648 6.30284 14.0777C6.35909 14.1058 6.44384 14.1339 6.52821 14.1339C6.72546 14.1339 6.95084 13.9929 7.03521 13.7957Z" fill="white"/>
<path d="M25.2321 30.1336C25.345 30.1336 25.4294 30.1054 25.5137 30.0492C25.6829 29.9367 25.852 29.8519 26.0207 29.7394C26.2742 29.5703 26.359 29.2043 26.1617 28.9508C25.9926 28.6969 25.6266 28.6126 25.3731 28.8098C25.2321 28.9223 25.063 29.0071 24.9224 29.0914C24.6689 29.2606 24.5841 29.5984 24.7251 29.8801C24.8661 30.0492 25.0349 30.1336 25.2321 30.1336Z" fill="white"/>
<path d="M30.6976 22.9509C30.416 22.838 30.0778 22.979 29.9653 23.2606C29.909 23.4297 29.8243 23.5985 29.7399 23.7676C29.5989 24.0492 29.7399 24.3875 30.0215 24.5281C30.1059 24.5562 30.1906 24.5844 30.2469 24.5844C30.4723 24.5844 30.6695 24.4719 30.7539 24.2465C30.8383 24.0774 30.923 23.8801 30.9793 23.7114C31.1203 23.3731 30.9793 23.0634 30.6976 22.9509Z" fill="white"/>
<path d="M31.3172 20.4717C31.0074 20.4155 30.7258 20.6127 30.6696 20.9225C30.6414 21.0916 30.5848 21.2888 30.5567 21.4576C30.4723 21.7677 30.6696 22.0775 30.9793 22.1337C31.0356 22.1337 31.0637 22.1618 31.1203 22.1618C31.3738 22.1618 31.5992 21.9931 31.6554 21.7392C31.7117 21.5423 31.7398 21.3451 31.7961 21.176C31.8246 20.8381 31.6273 20.528 31.3172 20.4717Z" fill="white"/>
<path d="M23.2603 29.9648C23.0912 30.0211 22.9221 30.1055 22.7533 30.1621C22.4717 30.2746 22.3026 30.5843 22.4151 30.8945C22.4998 31.1198 22.7252 31.2605 22.9506 31.2605C23.0068 31.2605 23.0912 31.2605 23.1474 31.2323C23.3447 31.1761 23.5138 31.0913 23.6829 31.007C23.9646 30.8945 24.1052 30.5562 23.9927 30.2746C23.8798 29.9648 23.5419 29.8238 23.2603 29.9648Z" fill="white"/>
<path d="M15.9361 6.35895C15.9642 6.35895 16.0208 6.35895 16.049 6.35895C16.2177 6.33082 16.415 6.3027 16.5841 6.27457C16.6685 6.27457 16.7532 6.21832 16.8095 6.1902V5.26057C16.6966 5.17582 16.556 5.1477 16.415 5.17582C16.2177 5.20432 16.0208 5.23245 15.8236 5.2887C15.5138 5.34495 15.3166 5.6547 15.3728 5.96482C15.4291 6.16207 15.6545 6.35895 15.9361 6.35895Z" fill="white"/>
<path d="M15.5707 30.5562C15.2606 30.4718 14.9508 30.6691 14.8946 30.9788C14.8102 31.2886 15.0071 31.5987 15.3172 31.6549C15.5145 31.7112 15.7113 31.7393 15.8805 31.7674C15.9086 31.7674 15.9648 31.7674 15.9933 31.7674C16.2468 31.7674 16.5003 31.5702 16.5566 31.3167C16.6128 31.0069 16.4156 30.7253 16.1058 30.6691C15.9086 30.6124 15.7395 30.5843 15.5707 30.5562Z" fill="white"/>
<path d="M13.5136 7.09143C13.5984 7.09143 13.6546 7.06331 13.739 7.03518C13.9081 6.97893 14.0772 6.89456 14.246 6.83793C14.5276 6.72543 14.6967 6.41568 14.5842 6.10556C14.4714 5.82393 14.1616 5.65481 13.8519 5.76768C13.6546 5.82393 13.4855 5.90868 13.3164 5.99306C13.0347 6.10556 12.8941 6.44381 13.0066 6.72543C13.0629 6.97893 13.2882 7.09143 13.5136 7.09143Z" fill="white"/>
<path d="M20.8663 6.33092C21.0355 6.35905 21.2323 6.41567 21.4015 6.4438C21.4577 6.4438 21.4858 6.47192 21.5425 6.47192C21.796 6.47192 22.0213 6.3028 22.0776 6.0493C22.162 5.73955 21.9647 5.4298 21.655 5.37317C21.4577 5.31692 21.2608 5.2888 21.0917 5.26067C20.782 5.20442 20.5 5.4013 20.4437 5.71142C20.3593 5.96492 20.5847 6.27467 20.8663 6.33092Z" fill="white"/>
<path d="M23.7114 7.23239C23.7958 7.26051 23.8802 7.28864 23.9368 7.28864C24.1622 7.28864 24.359 7.17614 24.4438 6.95076C24.5844 6.66914 24.4438 6.33089 24.1622 6.19026C23.993 6.10551 23.7958 6.02114 23.6267 5.96489C23.345 5.85201 23.0072 5.99301 22.8943 6.27464C22.7818 6.55626 22.9224 6.89451 23.2044 7.00701C23.3732 7.09139 23.5423 7.17614 23.7114 7.23239Z" fill="white"/>
<path d="M20.9228 30.6691C20.7537 30.6973 20.5568 30.7254 20.3877 30.7535C20.3033 30.7535 20.2467 30.7816 20.1904 30.8379V31.7956C20.2748 31.8523 20.3877 31.8804 20.4721 31.8804C20.5002 31.8804 20.5283 31.8804 20.5568 31.8804C20.7537 31.8523 20.9509 31.8241 21.1482 31.7675C21.4579 31.7113 21.6552 31.4015 21.5989 31.0914C21.5427 30.7816 21.2326 30.5844 20.9228 30.6691Z" fill="white"/>
<path d="M18.4999 7.23238C18.8097 7.23238 19.0632 6.97888 19.0632 6.66913V3.0635L19.1479 3.20412C19.2604 3.37325 19.4296 3.48575 19.6268 3.48575C19.7393 3.48575 19.8241 3.45763 19.9084 3.40138C20.1619 3.23225 20.2463 2.89438 20.1057 2.64088L18.9788 0.781625C18.8663 0.6125 18.6972 0.5 18.4999 0.5C18.3027 0.5 18.1054 0.6125 18.0211 0.781625L16.8942 2.64088C16.7254 2.86625 16.8098 3.23225 17.0914 3.37325C17.3449 3.54237 17.7113 3.45763 17.8519 3.176L17.9367 3.0635V6.66913C17.9367 6.97888 18.1902 7.23238 18.4999 7.23238Z" fill="white"/>
<path d="M18.4997 29.7676C18.1899 29.7676 17.9364 30.0211 17.9364 30.3308V33.9365L17.8517 33.7958C17.6829 33.5423 17.3447 33.4295 17.0912 33.5986C16.8377 33.7677 16.7533 34.1056 16.8939 34.3591L18.0208 36.2183C18.1333 36.3875 18.3024 36.5 18.4997 36.5C18.6969 36.5 18.8942 36.3875 18.9785 36.2183L20.1054 34.3591C20.2742 34.1056 20.1898 33.7392 19.9082 33.5986C19.6547 33.4295 19.2883 33.5142 19.1477 33.7958L19.0629 33.9365V30.3308C19.0629 30.0211 18.8094 29.7676 18.4997 29.7676Z" fill="white"/>
<path d="M30.753 16.5564C30.7812 16.6408 30.8093 16.7255 30.8659 16.8099H31.767C31.8518 16.697 31.908 16.5564 31.8799 16.3873C31.8518 16.19 31.8237 15.9931 31.767 15.7959C31.7108 15.4858 31.401 15.2889 31.0909 15.3451C30.7812 15.4014 30.5839 15.7111 30.6405 16.0213C30.6968 16.2181 30.7249 16.3873 30.753 16.5564Z" fill="white"/>
<path d="M5.90833 21.5986C6.21808 21.5424 6.41533 21.2322 6.35871 20.9225C6.33058 20.7534 6.30246 20.5565 6.27433 20.3874C6.27433 20.303 6.21808 20.2182 6.18996 20.162H5.26033C5.17558 20.2745 5.14746 20.4155 5.17558 20.5565C5.20408 20.7534 5.23221 20.9506 5.28846 21.1479C5.34471 21.4295 5.57008 21.5986 5.85171 21.5986C5.82358 21.6267 5.87983 21.6267 5.90833 21.5986Z" fill="white"/>
<path d="M36.2465 18.0212L34.3872 16.8943C34.1337 16.7256 33.7677 16.8099 33.6267 17.0916C33.4576 17.3451 33.5423 17.7114 33.824 17.8521L33.9646 17.9368H30.3308C30.0211 17.9368 29.7676 18.1903 29.7676 18.5001C29.7676 18.8098 30.0211 19.0633 30.3308 19.0633H33.9365L33.7958 19.1481C33.5423 19.3168 33.4576 19.6551 33.5986 19.9086C33.7111 20.0777 33.8802 20.1902 34.0775 20.1902C34.19 20.1902 34.2747 20.1621 34.3591 20.1058L36.2183 18.9789C36.3875 18.8664 36.5 18.6973 36.5 18.5001C36.5 18.3028 36.4156 18.1337 36.2465 18.0212Z" fill="white"/>
<path d="M3.20412 19.1479L3.0635 19.0632H6.66913C6.97888 19.0632 7.23238 18.8097 7.23238 18.4999C7.23238 18.1902 6.97888 17.9367 6.66913 17.9367H3.0635L3.20412 17.8519C3.45762 17.6832 3.54238 17.3449 3.40138 17.0914C3.23225 16.8379 2.89438 16.7254 2.64088 16.8942L0.781625 18.0211C0.6125 18.1336 0.5 18.3027 0.5 18.4999C0.5 18.6972 0.6125 18.8663 0.781625 18.9788L2.64088 20.1057C2.72525 20.1619 2.83812 20.1901 2.9225 20.1901C3.11975 20.1901 3.28888 20.1057 3.40138 19.9084C3.54238 19.6549 3.45762 19.3167 3.20412 19.1479Z" fill="white"/>
<path d="M29.4009 26.4998C29.5138 26.3311 29.6263 26.1901 29.7392 26.021C29.9083 25.7675 29.8517 25.4015 29.5982 25.2323C29.3447 25.0632 28.9787 25.1198 28.8095 25.3733C28.6967 25.514 28.6123 25.6831 28.4998 25.8241C28.4432 25.8803 28.415 25.9366 28.415 26.021L29.0912 26.6971C29.204 26.669 29.3165 26.6127 29.4009 26.4998Z" fill="white"/>
<path d="M7.57064 10.5282C7.45814 10.697 7.34564 10.838 7.23276 11.0071C7.06364 11.2606 7.12026 11.6266 7.40189 11.7957C7.48626 11.852 7.59914 11.8801 7.71164 11.8801C7.88076 11.8801 8.07801 11.7957 8.19051 11.6266C8.30339 11.486 8.38776 11.3169 8.50026 11.1759C8.55689 11.1196 8.58501 11.0352 8.58501 10.9509L7.93701 10.3029C7.79601 10.331 7.65539 10.4154 7.57064 10.5282Z" fill="white"/>
<path d="M28.1898 30.1902C28.1054 30.4999 28.3027 30.8097 28.6124 30.8663L30.7252 31.4014C31.1197 31.5139 31.5138 31.1198 31.4013 30.7253L30.8662 28.6126C30.7814 28.3028 30.4998 28.1337 30.1901 28.1899C29.8799 28.2747 29.7112 28.5563 29.7674 28.8661L29.7956 29.0071L27.2321 26.4436C27.0067 26.2182 26.6688 26.2182 26.4434 26.4436C26.2181 26.6689 26.2181 27.0068 26.4434 27.2322L29.0069 29.7957L28.8659 29.7676C28.5562 29.7113 28.2746 29.8801 28.1898 30.1902Z" fill="white"/>
<path d="M8.8102 6.8097C8.89457 6.49995 8.69732 6.1902 8.38757 6.13358L6.27482 5.59845C6.07757 5.5422 5.88032 5.59845 5.7397 5.73945C5.5987 5.88008 5.54245 6.07733 5.5987 6.27458L6.13382 8.38733C6.21857 8.66895 6.52832 8.8662 6.80995 8.80995C7.12007 8.7252 7.28882 8.44358 7.23257 8.13383L7.20445 7.99283L9.76795 10.5563C9.88045 10.6688 10.0214 10.7255 10.1621 10.7255C10.3031 10.7255 10.4437 10.6688 10.5566 10.5563C10.7819 10.331 10.7819 9.99308 10.5566 9.7677L7.99307 7.2042L8.13407 7.23233C8.44382 7.28858 8.72545 7.11983 8.8102 6.8097Z" fill="white"/>
<path d="M11.007 29.7395C11.0914 29.7957 11.2042 29.8238 11.3167 29.8238C11.4859 29.8238 11.6831 29.7395 11.7956 29.5703C11.9647 29.3168 11.9085 28.9508 11.6265 28.7817C11.4859 28.6688 11.3167 28.5845 11.1757 28.472C11.1195 28.4153 11.0351 28.3872 10.9789 28.3872L10.3027 29.0633C10.3309 29.2043 10.4152 29.3168 10.5281 29.4012C10.6687 29.5422 10.8379 29.6547 11.007 29.7395Z" fill="white"/>
<path d="M26.472 7.57027C26.3033 7.45777 26.1623 7.34527 25.9932 7.2324C25.7397 7.06327 25.3737 7.1199 25.2045 7.40152C25.0354 7.65502 25.0917 8.02102 25.3737 8.19015C25.5143 8.30302 25.6834 8.3874 25.8244 8.4999C25.9088 8.55652 25.9932 8.58465 26.0779 8.58465L26.7255 7.93665C26.6693 7.79565 26.5849 7.65502 26.472 7.57027Z" fill="white"/>
<path d="M10.5283 26.4718C10.3029 26.2464 9.96463 26.2464 9.73925 26.4718L7.17613 29.0353L7.20425 28.8943C7.28863 28.5845 7.09138 28.2748 6.78163 28.2181C6.47188 28.1338 6.16213 28.331 6.1055 28.6408L5.57038 30.7535C5.51413 30.9508 5.57038 31.148 5.71138 31.2886C5.852 31.4296 6.04925 31.4859 6.2465 31.4296L8.35925 30.8945C8.669 30.8098 8.83813 30.5281 8.78188 30.2184C8.69713 29.9086 8.4155 29.7395 8.10575 29.7958L7.96475 29.8239L10.5283 27.2604C10.7536 27.0354 10.7536 26.6971 10.5283 26.4718Z" fill="white"/>
<path d="M26.4718 10.5282C26.6971 10.7536 27.0635 10.7536 27.2608 10.5282L29.8239 7.9647L29.7958 8.1057C29.7114 8.41545 29.9086 8.7252 30.2184 8.78183C30.2746 8.78183 30.3028 8.80995 30.359 8.80995C30.6125 8.80995 30.8379 8.64083 30.8945 8.38733L31.4296 6.27458C31.4859 6.07733 31.4296 5.88008 31.2886 5.73945C31.148 5.59845 30.9508 5.5422 30.7535 5.59845L28.6408 6.13358C28.331 6.21833 28.1619 6.49995 28.2181 6.8097C28.3029 7.11983 28.5845 7.28858 28.8943 7.23233L29.0353 7.2042L26.4718 9.7677C26.2464 9.96458 26.2464 10.3028 26.4718 10.5282Z" fill="white"/>
<path d="M22.8377 16.3591L22.4998 15.9365C21.8237 15.0635 21.1194 14.162 20.5277 13.2042C20.6687 12.641 20.8378 12.1621 21.0913 11.7113C21.1194 11.6547 21.1757 11.5985 21.2319 11.5141C21.4854 11.1758 21.8799 10.6407 21.6545 10.0775C21.4854 9.62671 20.9503 9.45758 20.5277 9.51421C20.1054 9.57046 19.7953 9.82396 19.5418 10.0493C19.3164 10.2181 19.2039 10.3028 19.1195 10.331C19.091 10.3028 19.091 10.3028 19.0629 10.2747C18.9785 10.1618 18.8375 9.99308 18.6407 9.88021C18.0208 9.57046 17.57 10.0775 17.4009 10.2466C17.3728 10.2747 17.3447 10.3028 17.3165 10.331C17.2322 10.4153 17.204 10.3872 17.1755 10.3872C17.1193 10.3591 17.0349 10.3028 16.9505 10.2466C16.8095 10.1618 16.6123 10.0493 16.3869 9.99308C16.1334 9.93646 15.8237 9.96458 15.6264 10.1337C15.4292 10.2747 15.3167 10.5001 15.2885 10.7536C15.2604 11.1477 15.5139 11.4578 15.6545 11.6266L15.7108 11.7113C15.7108 11.7113 16.0772 12.1902 16.3307 13.4015C16.3307 13.4015 16.3307 13.4296 16.3025 13.4296C15.7393 14.2745 15.0913 15.0916 14.4995 15.9083L14.1617 16.3591C12.8094 18.1336 11.57 20.1338 11.7392 22.697C11.9364 25.7956 14.894 27.3451 17.5419 27.4857C18.1618 27.5142 18.8094 27.5142 19.4293 27.4857C22.0772 27.3451 25.0348 25.7675 25.232 22.697C25.4293 20.1338 24.1899 18.1336 22.8377 16.3591ZM18.0489 11.1758C18.1052 11.1196 18.1618 11.0633 18.218 11.0071C18.3305 11.1477 18.4997 11.345 18.8094 11.4297C19.4574 11.5703 19.9082 11.2325 20.2179 10.9508C20.1617 11.0352 20.1054 11.0915 20.0773 11.1758C19.739 11.7676 19.5137 12.4437 19.3449 13.1761H17.4294C17.2603 12.3875 17.0349 11.8238 16.8658 11.486C17.1474 11.5422 17.5982 11.5703 18.0489 11.1758ZM19.4293 23.4578C19.3164 23.5141 19.1758 23.5422 19.0348 23.5703V23.852C19.0348 24.1621 18.7813 24.4156 18.4715 24.4156C18.1618 24.4156 17.9083 24.1621 17.9083 23.852V23.5422C17.711 23.486 17.4857 23.4012 17.2884 23.2887C17.0068 23.1196 16.922 22.7817 17.0912 22.5282C17.2603 22.2466 17.5982 22.1618 17.8517 22.331C18.1899 22.5282 18.6407 22.5845 18.9785 22.4435C19.1195 22.3872 19.373 22.2181 19.3164 21.9646C19.232 21.7111 18.9504 21.5986 18.3872 21.4576C17.8517 21.317 17.1755 21.1197 16.7814 20.528C16.4432 19.9928 16.4432 19.3167 16.7814 18.8097C17.063 18.4156 17.4575 18.1902 17.9083 18.1055V17.6547C17.9083 17.345 18.1618 17.0915 18.4715 17.0915C18.7813 17.0915 19.0348 17.345 19.0348 17.6547V18.0492C19.2602 18.1055 19.4855 18.1902 19.6828 18.3027C19.9363 18.4718 20.0207 18.8097 19.88 19.0913C19.7109 19.3452 19.373 19.4296 19.091 19.2886C18.9785 19.2323 18.866 19.1761 18.7532 19.148C18.3872 19.0913 17.8798 19.1198 17.6829 19.4015C17.57 19.5421 17.6263 19.7675 17.711 19.8803C17.8517 20.1057 18.2462 20.2182 18.6688 20.3311C19.3164 20.4998 20.1054 20.7252 20.387 21.5705C20.6405 22.331 20.246 23.1196 19.4293 23.4578Z" fill="white"/>
</g>
<defs>
<clipPath id="clip0_202_841">
<rect width="36" height="36" fill="white" transform="translate(0.5 0.5)"/>
</clipPath>
</defs>
</svg>
