<svg width="151" height="150" viewBox="0 0 151 150" fill="none" xmlns="http://www.w3.org/2000/svg">
<g clip-path="url(#clip0_344_21368)">
<path d="M99.5001 64.0969C103.997 60.5282 107.205 56.6891 109.034 52.6688C111.433 47.4204 111.433 41.811 108.945 35.9329C101.269 18.5969 83.0673 0.329743 49.8439 14.7266C26.1267 24.9844 22.1376 45.4407 26.036 61.4579C27.5657 67.6672 29.5142 73.2454 33.2329 77.1454C36.711 80.8032 41.7189 82.9641 49.3345 82.8141C51.5235 82.7829 53.922 82.5438 56.5907 82.0938L56.1407 82.2735C56.1407 82.2735 55.7517 96.4907 61.9876 103.63C68.2251 110.767 78.8095 108.849 89.5439 105.428C99.7986 102.159 110.714 94.3016 112.003 85.5126C113.233 77.0251 106.006 66.886 99.5001 64.0969Z" fill="white"/>
<path d="M64.0562 49.55C64.0562 49.55 67.0249 54.6484 69.4249 54.0188C71.8233 53.3891 69.9046 47.2109 69.9046 47.2109L66.2155 46.4609L64.0562 49.55Z" fill="#FFA4A4"/>
<path d="M46.6063 61.7579C46.6063 62.0532 46.5906 62.3485 46.5625 62.6422C46.5328 62.9375 46.4906 63.2297 46.4328 63.5188C46.375 63.8094 46.3031 64.0954 46.2172 64.3782C46.1313 64.661 46.0312 64.9391 45.9188 65.2126C45.8062 65.486 45.6797 65.7532 45.5406 66.0141C45.4 66.2751 45.2484 66.5282 45.0844 66.7735C44.9203 67.0188 44.7437 67.2563 44.5562 67.4844C44.3688 67.7141 44.1719 67.9329 43.9625 68.1422C43.7531 68.35 43.5344 68.5485 43.3063 68.736C43.0781 68.9235 42.8406 69.1 42.5938 69.2641C42.3484 69.4282 42.0953 69.5797 41.8344 69.7204C41.5734 69.8594 41.3078 69.986 41.0344 70.0985C40.7609 70.2126 40.4828 70.311 40.2 70.3969C39.9172 70.4829 39.6313 70.5547 39.3406 70.6126C39.0516 70.6704 38.7594 70.7141 38.4641 70.7422C38.1703 70.7719 37.875 70.786 37.5797 70.786C37.2844 70.786 36.9891 70.7719 36.6953 70.7422C36.4016 70.7141 36.1094 70.6704 35.8187 70.6126C35.5297 70.5547 35.2438 70.4829 34.9609 70.3969C34.6766 70.311 34.4 70.2126 34.1266 70.0985C33.8531 69.986 33.5859 69.8594 33.325 69.7204C33.0656 69.5797 32.8109 69.4282 32.5656 69.2641C32.3203 69.1 32.0828 68.9235 31.8547 68.736C31.6266 68.5485 31.4078 68.35 31.1984 68.1422C30.9891 67.9329 30.7906 67.7141 30.6031 67.4844C30.4156 67.2563 30.2406 67.0188 30.075 66.7735C29.9109 66.5282 29.7594 66.2751 29.6203 66.0141C29.4813 65.7532 29.3547 65.486 29.2422 65.2126C29.1281 64.9391 29.0297 64.661 28.9437 64.3782C28.8578 64.0954 28.7859 63.8094 28.7281 63.5188C28.6703 63.2297 28.6266 62.9375 28.5984 62.6422C28.5687 62.3485 28.5547 62.0532 28.5547 61.7579C28.5547 61.4626 28.5687 61.1672 28.5984 60.8735C28.6266 60.5782 28.6703 60.286 28.7281 59.9969C28.7859 59.7063 28.8578 59.4204 28.9437 59.1375C29.0297 58.8547 29.1281 58.5766 29.2422 58.3032C29.3547 58.0297 29.4813 57.7625 29.6203 57.5016C29.7594 57.2407 29.9109 56.9875 30.075 56.7422C30.2406 56.4954 30.4156 56.2594 30.6031 56.0297C30.7906 55.8016 30.9891 55.5829 31.1984 55.3735C31.4078 55.1641 31.6266 54.9657 31.8547 54.7782C32.0828 54.5907 32.3203 54.4157 32.5656 54.2516C32.8109 54.086 33.0656 53.9344 33.325 53.7954C33.5859 53.6563 33.8531 53.5297 34.1266 53.4172C34.4 53.3032 34.6766 53.2047 34.9609 53.1188C35.2438 53.0329 35.5297 52.961 35.8187 52.9032C36.1094 52.8454 36.4016 52.8016 36.6953 52.7735C36.9891 52.7438 37.2844 52.7297 37.5797 52.7297C37.875 52.7297 38.1703 52.7438 38.4641 52.7735C38.7594 52.8016 39.0516 52.8454 39.3406 52.9032C39.6313 52.961 39.9172 53.0329 40.2 53.1188C40.4828 53.2047 40.7609 53.3032 41.0344 53.4172C41.3078 53.5297 41.5734 53.6563 41.8344 53.7954C42.0953 53.9344 42.3484 54.086 42.5938 54.2516C42.8406 54.4157 43.0781 54.5907 43.3063 54.7782C43.5344 54.9657 43.7531 55.1641 43.9625 55.3735C44.1719 55.5829 44.3688 55.8016 44.5562 56.0297C44.7437 56.2594 44.9203 56.4954 45.0844 56.7422C45.2484 56.9875 45.4 57.2407 45.5406 57.5016C45.6797 57.7625 45.8062 58.0297 45.9188 58.3032C46.0312 58.5766 46.1313 58.8547 46.2172 59.1375C46.3031 59.4204 46.375 59.7063 46.4328 59.9969C46.4906 60.286 46.5328 60.5782 46.5625 60.8735C46.5906 61.1672 46.6063 61.4626 46.6063 61.7579Z" fill="#FBBFD4"/>
<path d="M97.9798 26.9078C98.272 26.9562 98.5595 27.0171 98.8454 27.0921C99.1314 27.1687 99.4126 27.2578 99.6892 27.3609C99.9673 27.4656 100.238 27.5812 100.503 27.7109C100.769 27.8421 101.027 27.9843 101.278 28.1406C101.53 28.2953 101.774 28.4625 102.008 28.6421C102.244 28.8218 102.469 29.0125 102.686 29.214C102.902 29.4156 103.108 29.6265 103.303 29.8484C103.499 30.0703 103.683 30.3015 103.856 30.5406C104.028 30.7812 104.189 31.0281 104.338 31.2843C104.486 31.5406 104.622 31.8015 104.744 32.0718C104.867 32.3406 104.977 32.614 105.072 32.8937C105.167 33.1734 105.25 33.4578 105.317 33.7453C105.386 34.0328 105.439 34.3234 105.478 34.6171C105.517 34.9093 105.542 35.2046 105.553 35.5C105.564 35.7953 105.559 36.0906 105.541 36.3859C105.524 36.6812 105.489 36.9734 105.442 37.2656C105.395 37.5578 105.333 37.8468 105.258 38.1328C105.183 38.4187 105.092 38.7 104.989 38.9765C104.886 39.2531 104.769 39.525 104.639 39.7906C104.509 40.0562 104.366 40.314 104.211 40.5656C104.056 40.8171 103.888 41.0609 103.709 41.2968C103.53 41.5312 103.339 41.7562 103.138 41.9734C102.936 42.189 102.725 42.3953 102.503 42.5906C102.281 42.7875 102.05 42.9703 101.811 43.1437C101.57 43.3171 101.324 43.4781 101.067 43.6265C100.813 43.775 100.55 43.9109 100.281 44.0328C100.013 44.1562 99.7376 44.2656 99.4579 44.3609C99.1782 44.4562 98.8954 44.539 98.6064 44.6062C98.3189 44.6749 98.0282 44.7281 97.7361 44.7671C97.4423 44.8062 97.1486 44.8312 96.8532 44.8421C96.5579 44.8531 96.2626 44.8484 95.9673 44.8296C95.6736 44.8109 95.3798 44.7781 95.0876 44.7312C94.7954 44.6843 94.5064 44.6218 94.222 44.5468C93.9361 44.4703 93.6548 44.3812 93.3767 44.2781C93.1001 44.1749 92.8298 44.0578 92.5642 43.9281C92.2986 43.7968 92.0392 43.6546 91.7892 43.5C91.5376 43.3437 91.2939 43.1765 91.0595 42.9968C90.8236 42.8171 90.5986 42.6281 90.3814 42.4265C90.1657 42.225 89.9595 42.0125 89.7642 41.7906C89.5689 41.5687 89.3845 41.3375 89.2111 41.0984C89.0392 40.8578 88.8782 40.6109 88.7298 40.3546C88.5814 40.0999 88.4454 39.8375 88.3236 39.5687C88.2001 39.2984 88.0907 39.025 87.9954 38.7453C87.8986 38.4656 87.8173 38.1812 87.7501 37.8937C87.6814 37.6062 87.6282 37.3156 87.5892 37.0218C87.5486 36.7296 87.5236 36.4343 87.5142 36.139C87.5032 35.8437 87.5079 35.5484 87.5251 35.2531C87.5439 34.9593 87.5767 34.6656 87.6251 34.3734C87.672 34.0812 87.7329 33.7921 87.8095 33.5062C87.8845 33.2203 87.9751 32.939 88.0782 32.6625C88.1814 32.3859 88.2986 32.114 88.4282 31.8484C88.5579 31.5828 88.7001 31.325 88.8564 31.0734C89.0111 30.8218 89.1782 30.5781 89.3579 30.3437C89.5376 30.1078 89.7282 29.8828 89.9298 29.6656C90.1314 29.45 90.3423 29.2437 90.5642 29.0484C90.7861 28.8531 91.0173 28.6687 91.2564 28.4953C91.497 28.3218 91.7439 28.1625 92.0001 28.014C92.2548 27.864 92.5173 27.7296 92.7861 27.6062C93.0548 27.4843 93.3298 27.375 93.6095 27.2781C93.8892 27.1828 94.172 27.1015 94.4595 27.0328C94.7486 26.9656 95.0376 26.9109 95.3314 26.8718C95.6236 26.8328 95.9189 26.8078 96.2142 26.7968C96.5095 26.7859 96.8048 26.7906 97.1001 26.8093C97.3939 26.8281 97.6876 26.8609 97.9798 26.9078Z" fill="#FBBFD4"/>
<path d="M51.1326 38.6328C47.8342 36.7125 43.0076 38.9015 40.3092 43.5218C37.6092 48.1406 38.0905 53.4187 41.3873 55.3687C44.6858 57.289 49.5139 55.0984 52.2123 50.4796C54.8811 45.8609 54.4014 40.5515 51.1326 38.6328Z" fill="black"/>
<path d="M78.4202 39.4125C83.667 40.4015 88.4952 38.1828 89.2139 34.4328C89.9342 30.6843 86.2452 26.8453 80.9983 25.8546C75.7514 24.8656 70.9233 27.0843 70.203 30.8343C69.5139 34.5828 73.1717 38.4218 78.4202 39.4125Z" fill="black"/>
<path d="M62.858 50.8704C62.9173 50.8704 62.9783 50.8704 63.0377 50.8391C63.2767 50.7797 63.5173 50.6907 63.758 50.6C64.6861 52.0391 66.7861 54.8891 69.0048 54.8891C69.2142 54.8891 69.4252 54.8594 69.6345 54.7985C70.2033 54.6485 70.6845 54.2594 70.983 53.7188C71.8533 52.1594 71.283 49.2204 70.8939 47.7797C71.1642 47.661 71.433 47.511 71.7033 47.3313C72.0923 47.0907 72.183 46.5813 71.9127 46.1907C71.6439 45.8016 71.133 45.711 70.7736 45.9813C70.5033 46.161 70.2033 46.311 69.9048 46.4C69.8142 46.4 69.7236 46.4 69.6345 46.4313C69.5736 46.461 69.5142 46.461 69.4845 46.4907C68.6142 46.6407 67.7158 46.4 66.9955 45.861C67.7455 45.111 68.0455 44.0016 67.8955 43.6407C67.6845 43.1907 66.4564 43.4016 65.1064 43.9719C63.758 44.5407 62.7377 45.2907 62.947 45.7407C63.097 46.0704 63.997 46.611 65.0173 46.6407C64.8361 47.9 63.9064 48.95 62.6173 49.25C62.1673 49.3407 61.8986 49.7907 62.0173 50.2407C62.1377 50.6 62.4986 50.8704 62.858 50.8704ZM69.5439 52.9391C69.4252 53.15 69.3048 53.2094 69.2142 53.2391C68.1048 53.5094 66.2767 51.5 65.1361 49.7594C65.7955 49.161 66.2767 48.411 66.5158 47.5407C67.3548 48.0204 68.3142 48.2297 69.2752 48.1704C69.7236 49.7594 70.0548 52.0094 69.5439 52.9391Z" fill="black"/>
<path d="M106.966 96.0703C110.414 92.5016 112.363 88.7828 112.813 85.6328C114.013 77.4141 107.566 67.5172 100.969 63.9469C105.077 60.4984 108.045 56.8391 109.784 53C112.274 47.45 112.213 41.6313 109.575 35.6625C108.134 32.3641 106.095 28.5547 103.308 24.8344C105.256 23.3656 106.636 21.1453 107.355 18.2969C108.255 14.7578 107.475 11.0984 105.077 7.73906C102.108 3.53906 97.011 0.45 94.1314 0.179688L93.8923 0.15C93.2329 0.0906248 92.3329 0 91.2829 0C87.9845 0 83.2782 0.9 79.7095 6.23906C79.0798 7.16875 78.6595 8.18906 78.3892 9.20781C69.6939 7.82812 60.0095 9.44844 49.4548 14.0078C42.2282 17.1266 36.9501 21.0562 33.1423 25.3453C25.736 22.3453 20.6392 26.275 18.4204 27.9844L18.2095 28.1641C15.9017 29.9344 13.2626 35.3031 13.022 40.4313C12.8126 44.5703 14.1017 48.05 16.7704 50.5703C19.0189 52.7 21.5079 53.8391 24.0564 53.9297C24.297 57.1984 24.8064 59.8984 25.2267 61.6672C27.086 69.3766 29.7845 77.0547 36.8001 80.9844C39.9798 82.7531 43.9064 83.6531 48.6142 83.6531C50.6845 83.6531 52.9329 83.4734 55.3314 83.1141C55.361 86.3531 55.811 97.8109 61.3876 104.169C64.686 107.948 69.1548 109.298 74.0423 109.298C75.7814 109.298 77.5798 109.119 79.4095 108.848C81.4782 111.367 87.2954 117.577 92.1236 115.267C97.1001 112.897 94.1923 106.959 93.0829 105.039C93.8626 104.739 94.611 104.409 95.361 104.08C96.2907 106.478 99.0798 112.178 103.908 110.019C108.614 107.889 107.625 99.55 106.966 96.0703ZM37.5798 79.5141C31.1032 75.8844 28.5845 68.5969 26.786 61.2484C26.3657 59.5688 25.886 56.9891 25.647 53.8391C25.6157 53.5688 25.6157 53.3 25.586 53.0297C25.586 52.7594 25.5564 52.4891 25.5564 52.2203C25.5564 51.7703 25.5267 51.2891 25.5267 50.7797C25.5267 43.8516 27.1751 35.0938 33.5626 27.3547C33.7423 27.1453 33.922 26.9344 34.1017 26.725C34.2814 26.5141 34.4626 26.3047 34.6423 26.0953C38.2704 22.1063 43.2767 18.4156 50.0845 15.4766C57.9704 12.0578 65.3767 10.3484 72.1829 10.3484C74.222 10.3484 76.2017 10.4984 78.1501 10.7984C78.4204 10.8281 78.6892 10.8875 78.9595 10.9484C79.2298 11.0078 79.5001 11.0672 79.7689 11.0984C82.797 11.7281 85.7064 12.7469 88.4642 14.1578C93.622 16.7969 97.6704 20.4563 100.819 24.325C100.999 24.5344 101.178 24.775 101.328 24.9844C101.508 25.1953 101.688 25.4344 101.838 25.6453C104.567 29.2734 106.575 33.0234 107.984 36.2625C110.414 41.7812 110.474 47.1813 108.195 52.2797C106.725 55.5484 104.267 58.7281 100.878 61.7281C100.999 58.4578 100.459 55.5187 97.4298 54.8594C93.6517 54.0484 89.1251 60.5578 88.4345 70.0656C82.8876 72.975 76.2907 75.675 68.7642 78.1047C68.1048 78.3141 67.4751 78.525 66.8454 78.7047C63.847 75.7047 59.4689 72.975 55.7814 72.225C55.361 72.1359 52.0923 72.0156 50.8939 73.3359C49.1845 75.225 50.5939 79.0047 54.1017 81.5844C47.1751 82.5141 41.6876 81.8234 37.5798 79.5141ZM62.6173 103.089C59.6485 99.6703 58.2407 94.5109 57.5501 90.1922C63.5173 91.4219 74.2814 88.3016 87.5657 81.9734C99.0798 76.4844 103.667 71.3859 105.047 69.2859C109.005 73.6359 111.944 80.0234 111.194 85.3625C109.964 93.7906 99.2595 101.439 89.3048 104.619C79.5001 107.769 68.6751 110.048 62.6173 103.089Z" fill="black"/>
<path d="M116.202 135.483C116.231 135.903 116.591 136.233 117.011 136.233C117.041 136.233 117.07 136.233 117.1 136.233C117.55 136.203 117.88 135.783 117.85 135.333C116.65 122.406 106.395 116.167 105.945 115.927C105.556 115.688 105.047 115.838 104.806 116.227C104.567 116.617 104.717 117.127 105.106 117.367C105.197 117.397 115.092 123.366 116.202 135.483Z" fill="black"/>
<path d="M110.623 112.387C110.353 112.747 110.414 113.258 110.773 113.527C110.864 113.587 119.859 120.486 121.869 132.244C121.928 132.633 122.287 132.933 122.678 132.933C122.737 132.933 122.767 132.933 122.828 132.933C123.278 132.844 123.576 132.423 123.487 131.973C121.358 119.556 112.153 112.508 111.762 112.208C111.403 111.967 110.894 112.028 110.623 112.387Z" fill="black"/>
<mask id="mask0_344_21368" style="mask-type:luminance" maskUnits="userSpaceOnUse" x="106" y="124" width="33" height="26">
<path d="M106.9 124.8H138.181V150H106.9V124.8Z" fill="white"/>
</mask>
<g mask="url(#mask0_344_21368)">
<path d="M138.15 132.694C138.15 130.055 135.961 127.564 131.583 125.284C131.194 125.075 130.684 125.225 130.473 125.645C130.264 126.034 130.414 126.545 130.834 126.755C134.551 128.705 136.531 130.773 136.531 132.723C136.531 135.483 132.692 137.522 132.633 137.522C132.303 137.703 132.123 138.092 132.212 138.483C132.242 138.542 133.683 144.002 130.173 145.831C125.436 148.261 121.837 144.57 121.687 144.422C121.478 144.211 121.208 144.122 120.908 144.181C120.639 144.241 120.398 144.452 120.309 144.72C120.309 144.752 119.559 146.97 117.52 147.9C116.141 148.53 114.431 148.441 112.483 147.661C110.714 146.941 109.605 145.831 109.034 144.272C107.566 140.252 110.473 134.703 110.503 134.644C110.714 134.253 110.564 133.744 110.173 133.533C109.784 133.323 109.275 133.473 109.064 133.862C108.945 134.103 105.797 140.102 107.505 144.811C108.225 146.82 109.694 148.291 111.883 149.191C113.172 149.73 114.401 150 115.541 150C116.501 150 117.43 149.791 118.27 149.4C119.919 148.62 120.908 147.27 121.419 146.311C123.037 147.511 126.636 149.52 130.983 147.27C134.881 145.261 134.342 140.402 134.012 138.662C135.181 137.853 138.12 135.723 138.15 132.694Z" fill="black"/>
</g>
<mask id="mask1_344_21368" style="mask-type:luminance" maskUnits="userSpaceOnUse" x="25" y="88" width="17" height="29">
<path d="M25.2998 88.4H41.6998V116.4H25.2998V88.4Z" fill="white"/>
</mask>
<g mask="url(#mask1_344_21368)">
<mask id="mask2_344_21368" style="mask-type:luminance" maskUnits="userSpaceOnUse" x="-1" y="77" width="66" height="61">
<path d="M17.8592 77.8672L64.1654 103.855L45.3717 137.342L-0.93457 111.355L17.8592 77.8672Z" fill="white"/>
</mask>
<g mask="url(#mask2_344_21368)">
<mask id="mask3_344_21368" style="mask-type:luminance" maskUnits="userSpaceOnUse" x="-1" y="77" width="66" height="61">
<path d="M17.8592 77.8672L64.1654 103.855L45.3717 137.342L-0.93457 111.355L17.8592 77.8672Z" fill="white"/>
</mask>
<g mask="url(#mask3_344_21368)">
<mask id="mask4_344_21368" style="mask-type:luminance" maskUnits="userSpaceOnUse" x="-1" y="77" width="66" height="61">
<path d="M17.8592 77.8672L64.1654 103.855L45.3717 137.342L-0.93457 111.355L17.8592 77.8672Z" fill="white"/>
</mask>
<g mask="url(#mask4_344_21368)">
<path d="M41.281 100.283C39.8139 98.8641 38.2685 97.4516 37.281 95.6391C36.9123 94.9657 36.3967 93.7516 36.4357 92.7532C36.442 92.0891 36.5451 90.5188 37.3076 88.7922C37.1935 88.8235 37.0654 88.9047 36.9264 89.0516C35.0373 91.0375 34.281 94.0094 34.8951 96.6766C35.1982 97.9844 35.8217 99.1266 36.6107 100.161C35.4014 100.17 34.1904 100.184 32.981 100.205C32.1154 100.22 31.367 102.367 31.5389 103.059C31.6873 103.652 31.9529 104.13 32.2935 104.566C31.967 104.513 31.642 104.483 31.3342 104.509C29.8373 104.641 28.917 106.672 28.7357 107.948C28.5607 109.161 29.0357 110.334 28.8842 111.547C28.6498 113.436 27.3889 114.684 25.8232 115.65C25.5342 115.828 25.0264 116.461 25.7279 116.383C28.0123 116.125 29.756 113.63 30.4639 111.616C30.7529 110.791 30.9076 109.898 30.8951 109.025C30.8889 108.556 30.8123 108.105 30.742 107.642C30.7389 107.622 30.7357 107.6 30.7326 107.58C31.3295 107.644 32.0107 107.861 32.3951 107.928C33.2342 108.077 34.0717 108.223 34.9107 108.372C35.8498 108.538 36.542 106.623 36.5857 105.922C36.6498 104.9 36.3076 104.133 35.681 103.411C37.0998 103.406 38.5185 103.402 39.9373 103.402C40.717 103.402 41.8498 100.833 41.281 100.283Z" fill="#FE4C6F"/>
</g>
</g>
</g>
</g>
<mask id="mask5_344_21368" style="mask-type:luminance" maskUnits="userSpaceOnUse" x="10" y="90" width="13" height="30">
<path d="M10.5 90.4H22.1V119.2H10.5V90.4Z" fill="white"/>
</mask>
<g mask="url(#mask5_344_21368)">
<mask id="mask6_344_21368" style="mask-type:luminance" maskUnits="userSpaceOnUse" x="-1" y="77" width="66" height="61">
<path d="M17.8592 77.8672L64.1654 103.855L45.3717 137.342L-0.93457 111.355L17.8592 77.8672Z" fill="white"/>
</mask>
<g mask="url(#mask6_344_21368)">
<mask id="mask7_344_21368" style="mask-type:luminance" maskUnits="userSpaceOnUse" x="-1" y="77" width="66" height="61">
<path d="M17.8592 77.8672L64.1654 103.855L45.3717 137.342L-0.93457 111.355L17.8592 77.8672Z" fill="white"/>
</mask>
<g mask="url(#mask7_344_21368)">
<mask id="mask8_344_21368" style="mask-type:luminance" maskUnits="userSpaceOnUse" x="-1" y="77" width="66" height="61">
<path d="M17.8592 77.8672L64.1654 103.855L45.3717 137.342L-0.93457 111.355L17.8592 77.8672Z" fill="white"/>
</mask>
<g mask="url(#mask8_344_21368)">
<path d="M19.0358 117.056C17.8436 116.263 17.2061 115.523 17.3295 114.266C17.4295 113.252 18.0014 112.227 18.8295 111.213C20.4279 109.253 22.2654 107.38 21.5467 105.494C20.9154 103.83 18.9451 102.852 16.5842 102.138C15.5514 101.827 14.4264 101.567 13.5248 101.148C13.3561 101.07 13.0983 100.786 13.2139 101.042C13.0717 100.727 13.3154 100.192 13.5154 99.8032C14.1608 98.5579 14.9639 97.3657 15.2608 96.1188C15.4217 95.4422 15.4623 94.7782 15.4311 94.1282C15.3764 92.9407 14.5983 91.9907 14.1154 90.9204C13.9967 90.6547 13.7483 90.3501 13.242 90.7126C12.7795 91.0454 12.8404 91.8001 12.9779 92.0891C12.9373 92.0032 12.6592 92.3969 12.6733 92.3704C12.6139 92.4876 12.7014 92.6422 12.7108 92.7501C12.7404 93.061 12.7608 93.3704 12.7389 93.6922C12.6951 94.3157 12.5467 94.9547 12.3076 95.5985C11.8717 96.7672 10.817 97.9641 10.5889 99.1251C10.2076 101.075 12.0889 102.592 14.4061 103.438C15.4404 103.816 16.5889 104.097 17.6529 104.45C18.4748 104.722 19.4451 104.973 19.367 105.567C19.2342 106.591 18.1936 107.686 17.3779 108.684C16.5279 109.723 15.7701 110.767 15.4451 111.831C14.6654 114.389 15.6389 117.292 18.317 118.803C18.6686 119.003 19.0686 118.263 19.1029 118.183C19.2451 117.848 19.3779 117.284 19.0358 117.056Z" fill="#48CDDF"/>
</g>
</g>
</g>
</g>
<mask id="mask9_344_21368" style="mask-type:luminance" maskUnits="userSpaceOnUse" x="29" y="114" width="22" height="15">
<path d="M29.2998 114.4H50.0998V128.8H29.2998V114.4Z" fill="white"/>
</mask>
<g mask="url(#mask9_344_21368)">
<mask id="mask10_344_21368" style="mask-type:luminance" maskUnits="userSpaceOnUse" x="-1" y="77" width="66" height="61">
<path d="M17.8592 77.8672L64.1654 103.855L45.3717 137.342L-0.93457 111.355L17.8592 77.8672Z" fill="white"/>
</mask>
<g mask="url(#mask10_344_21368)">
<mask id="mask11_344_21368" style="mask-type:luminance" maskUnits="userSpaceOnUse" x="-1" y="77" width="66" height="61">
<path d="M17.8592 77.8672L64.1654 103.855L45.3717 137.342L-0.93457 111.355L17.8592 77.8672Z" fill="white"/>
</mask>
<g mask="url(#mask11_344_21368)">
<mask id="mask12_344_21368" style="mask-type:luminance" maskUnits="userSpaceOnUse" x="-1" y="77" width="66" height="61">
<path d="M17.8592 77.8672L64.1654 103.855L45.3717 137.342L-0.93457 111.355L17.8592 77.8672Z" fill="white"/>
</mask>
<g mask="url(#mask12_344_21368)">
<path d="M30.2199 126.877C31.4418 127.217 32.2855 127.211 32.9855 126.377C33.5496 125.705 33.8308 124.703 33.948 123.533C34.173 121.273 34.1996 118.903 35.8011 118.267C37.2136 117.708 39.0261 118.469 40.9136 119.653C41.7402 120.172 42.5886 120.786 43.3996 121.152C43.5527 121.219 43.8855 121.225 43.6574 121.3C43.9386 121.209 44.1183 120.723 44.234 120.356C44.6058 119.172 44.848 117.914 45.434 116.967C45.7511 116.455 46.1355 116.031 46.5543 115.664C47.3199 114.994 48.3824 114.958 49.3386 114.648C49.5746 114.572 49.9136 114.559 50.0011 115.12C50.0808 115.636 49.5793 116.044 49.3168 116.122C49.3949 116.098 49.3215 116.523 49.3293 116.497C49.2933 116.608 49.1449 116.641 49.073 116.698C48.8636 116.864 48.659 117.034 48.4761 117.241C48.1183 117.642 47.8152 118.125 47.5668 118.672C47.1136 119.667 47.0246 121.102 46.448 121.948C45.4824 123.37 43.3933 122.992 41.4496 121.916C40.5824 121.434 39.7043 120.819 38.834 120.303C38.1605 119.905 37.4121 119.392 37.0933 119.8C36.5449 120.502 36.509 121.864 36.3933 123.016C36.2746 124.216 36.098 125.355 35.6418 126.211C34.5449 128.27 32.159 129.336 29.584 128.409C29.2465 128.287 29.4574 127.572 29.484 127.503C29.6027 127.206 29.8699 126.78 30.2199 126.877Z" fill="#FFD939"/>
</g>
</g>
</g>
</g>
<mask id="mask13_344_21368" style="mask-type:luminance" maskUnits="userSpaceOnUse" x="52" y="116" width="3" height="4">
<path d="M52.1001 116.8H54.1001V119.2H52.1001V116.8Z" fill="white"/>
</mask>
<g mask="url(#mask13_344_21368)">
<mask id="mask14_344_21368" style="mask-type:luminance" maskUnits="userSpaceOnUse" x="-1" y="77" width="66" height="61">
<path d="M17.8597 77.8672L64.1659 103.855L45.3722 137.342L-0.934082 111.355L17.8597 77.8672Z" fill="white"/>
</mask>
<g mask="url(#mask14_344_21368)">
<mask id="mask15_344_21368" style="mask-type:luminance" maskUnits="userSpaceOnUse" x="-1" y="77" width="66" height="61">
<path d="M17.8597 77.8672L64.1659 103.855L45.3722 137.342L-0.934082 111.355L17.8597 77.8672Z" fill="white"/>
</mask>
<g mask="url(#mask15_344_21368)">
<mask id="mask16_344_21368" style="mask-type:luminance" maskUnits="userSpaceOnUse" x="-1" y="77" width="66" height="61">
<path d="M17.8597 77.8672L64.1659 103.855L45.3722 137.342L-0.934082 111.355L17.8597 77.8672Z" fill="white"/>
</mask>
<g mask="url(#mask16_344_21368)">
<path d="M53.9224 118.423L53.7755 118.083C53.7567 118.039 53.7599 117.991 53.7864 117.95L53.9817 117.638C54.0458 117.536 53.9661 117.406 53.8474 117.417L53.4786 117.452C53.4317 117.455 53.3849 117.436 53.3552 117.4L53.1177 117.117C53.0411 117.025 52.8927 117.061 52.8661 117.177L52.7864 117.538C52.7755 117.584 52.7427 117.622 52.6989 117.639L52.3552 117.777C52.2442 117.822 52.2333 117.973 52.3364 118.034L52.6536 118.223C52.6958 118.247 52.7208 118.291 52.7239 118.336L52.7489 118.706C52.7567 118.825 52.8989 118.883 52.988 118.805L53.2661 118.561C53.302 118.53 53.3505 118.517 53.3958 118.53L53.7552 118.619C53.8708 118.648 53.9692 118.533 53.9224 118.423Z" fill="#FE4C6F"/>
</g>
</g>
</g>
</g>
<mask id="mask17_344_21368" style="mask-type:luminance" maskUnits="userSpaceOnUse" x="31" y="113" width="3" height="3">
<path d="M31.7002 113.6H33.7002V115.6H31.7002V113.6Z" fill="white"/>
</mask>
<g mask="url(#mask17_344_21368)">
<mask id="mask18_344_21368" style="mask-type:luminance" maskUnits="userSpaceOnUse" x="-1" y="77" width="66" height="61">
<path d="M17.8597 77.8672L64.1659 103.855L45.3722 137.342L-0.934082 111.355L17.8597 77.8672Z" fill="white"/>
</mask>
<g mask="url(#mask18_344_21368)">
<mask id="mask19_344_21368" style="mask-type:luminance" maskUnits="userSpaceOnUse" x="-1" y="77" width="66" height="61">
<path d="M17.8597 77.8672L64.1659 103.855L45.3722 137.342L-0.934082 111.355L17.8597 77.8672Z" fill="white"/>
</mask>
<g mask="url(#mask19_344_21368)">
<mask id="mask20_344_21368" style="mask-type:luminance" maskUnits="userSpaceOnUse" x="-1" y="77" width="66" height="61">
<path d="M17.8597 77.8672L64.1659 103.855L45.3722 137.342L-0.934082 111.355L17.8597 77.8672Z" fill="white"/>
</mask>
<g mask="url(#mask20_344_21368)">
<path d="M33.4877 115.017L33.344 114.686C33.3252 114.644 33.3299 114.595 33.3534 114.556L33.5456 114.252C33.6081 114.153 33.5299 114.027 33.4143 114.037L33.0549 114.07C33.0096 114.075 32.9643 114.056 32.9346 114.02L32.7034 113.744C32.6284 113.655 32.4846 113.689 32.4581 113.803L32.3799 114.155C32.369 114.198 32.3377 114.236 32.2956 114.253L31.9612 114.387C31.8518 114.431 31.8409 114.58 31.9409 114.639L32.2518 114.822C32.2909 114.845 32.3159 114.887 32.319 114.933L32.344 115.292C32.3518 115.409 32.4893 115.466 32.5768 115.389L32.8471 115.152C32.8815 115.12 32.9299 115.109 32.9737 115.12L33.3237 115.209C33.4362 115.237 33.5331 115.123 33.4877 115.017Z" fill="#48CDDF"/>
</g>
</g>
</g>
</g>
<mask id="mask21_344_21368" style="mask-type:luminance" maskUnits="userSpaceOnUse" x="21" y="99" width="4" height="4">
<path d="M21.7002 99.2H24.9002V102.4H21.7002V99.2Z" fill="white"/>
</mask>
<g mask="url(#mask21_344_21368)">
<mask id="mask22_344_21368" style="mask-type:luminance" maskUnits="userSpaceOnUse" x="-1" y="77" width="66" height="61">
<path d="M17.8597 77.8672L64.1659 103.855L45.3722 137.342L-0.934082 111.355L17.8597 77.8672Z" fill="white"/>
</mask>
<g mask="url(#mask22_344_21368)">
<mask id="mask23_344_21368" style="mask-type:luminance" maskUnits="userSpaceOnUse" x="-1" y="77" width="66" height="61">
<path d="M17.8597 77.8672L64.1659 103.855L45.3722 137.342L-0.934082 111.355L17.8597 77.8672Z" fill="white"/>
</mask>
<g mask="url(#mask23_344_21368)">
<mask id="mask24_344_21368" style="mask-type:luminance" maskUnits="userSpaceOnUse" x="-1" y="77" width="66" height="61">
<path d="M17.8597 77.8672L64.1659 103.855L45.3722 137.342L-0.934082 111.355L17.8597 77.8672Z" fill="white"/>
</mask>
<g mask="url(#mask24_344_21368)">
<path d="M24.494 101.539L24.2768 101.036C24.2486 100.972 24.2549 100.898 24.2924 100.839L24.5846 100.375C24.6783 100.225 24.5596 100.033 24.383 100.048L23.8377 100.098C23.7674 100.106 23.6986 100.077 23.6533 100.023L23.3018 99.6031C23.1877 99.4671 22.969 99.5203 22.9299 99.6921L22.8096 100.227C22.794 100.295 22.7455 100.352 22.6799 100.378L22.1721 100.581C22.008 100.648 21.9893 100.873 22.1424 100.964L22.6143 101.244C22.6752 101.28 22.7143 101.342 22.719 101.412L22.7549 101.959C22.7674 102.136 22.9768 102.222 23.1096 102.106L23.5221 101.744C23.5736 101.698 23.6455 101.68 23.7143 101.697L24.2455 101.831C24.4174 101.875 24.5643 101.703 24.494 101.539Z" fill="#FFD939"/>
</g>
</g>
</g>
</g>
<mask id="mask25_344_21368" style="mask-type:luminance" maskUnits="userSpaceOnUse" x="28" y="85" width="3" height="3">
<path d="M28.5 85.6H30.9V88H28.5V85.6Z" fill="white"/>
</mask>
<g mask="url(#mask25_344_21368)">
<mask id="mask26_344_21368" style="mask-type:luminance" maskUnits="userSpaceOnUse" x="-1" y="77" width="66" height="61">
<path d="M17.8592 77.8672L64.1654 103.855L45.3717 137.342L-0.93457 111.355L17.8592 77.8672Z" fill="white"/>
</mask>
<g mask="url(#mask26_344_21368)">
<mask id="mask27_344_21368" style="mask-type:luminance" maskUnits="userSpaceOnUse" x="-1" y="77" width="66" height="61">
<path d="M17.8592 77.8672L64.1654 103.855L45.3717 137.342L-0.93457 111.355L17.8592 77.8672Z" fill="white"/>
</mask>
<g mask="url(#mask27_344_21368)">
<mask id="mask28_344_21368" style="mask-type:luminance" maskUnits="userSpaceOnUse" x="-1" y="77" width="66" height="61">
<path d="M17.8592 77.8672L64.1654 103.855L45.3717 137.342L-0.93457 111.355L17.8592 77.8672Z" fill="white"/>
</mask>
<g mask="url(#mask28_344_21368)">
<path d="M30.4702 87.3968L30.3171 87.0421C30.2967 86.9952 30.3014 86.9437 30.328 86.9015L30.5342 86.5749C30.5999 86.4687 30.5155 86.3327 30.3921 86.3452L30.0077 86.3796C29.9577 86.3843 29.9092 86.364 29.878 86.3265L29.6296 86.0296C29.5499 85.9343 29.3936 85.9718 29.3671 86.0937L29.2827 86.4702C29.2717 86.5187 29.2374 86.5593 29.1921 86.5781L28.8327 86.7202C28.7171 86.7671 28.7046 86.9265 28.8124 86.9906L29.1452 87.1874C29.1874 87.2124 29.2155 87.2577 29.2186 87.3062L29.2436 87.6921C29.253 87.8171 29.3999 87.8781 29.4936 87.7952L29.7842 87.5406C29.8217 87.5077 29.8717 87.4952 29.9202 87.5077L30.2952 87.6015C30.4171 87.6327 30.5202 87.5109 30.4702 87.3968Z" fill="#FE4C6F"/>
</g>
</g>
</g>
</g>
<mask id="mask29_344_21368" style="mask-type:luminance" maskUnits="userSpaceOnUse" x="5" y="109" width="3" height="3">
<path d="M5.7002 109.6H7.7002V112H5.7002V109.6Z" fill="white"/>
</mask>
<g mask="url(#mask29_344_21368)">
<mask id="mask30_344_21368" style="mask-type:luminance" maskUnits="userSpaceOnUse" x="-1" y="77" width="66" height="61">
<path d="M17.8597 77.8672L64.1659 103.855L45.3722 137.342L-0.934082 111.355L17.8597 77.8672Z" fill="white"/>
</mask>
<g mask="url(#mask30_344_21368)">
<mask id="mask31_344_21368" style="mask-type:luminance" maskUnits="userSpaceOnUse" x="-1" y="77" width="66" height="61">
<path d="M17.8597 77.8672L64.1659 103.855L45.3722 137.342L-0.934082 111.355L17.8597 77.8672Z" fill="white"/>
</mask>
<g mask="url(#mask31_344_21368)">
<mask id="mask32_344_21368" style="mask-type:luminance" maskUnits="userSpaceOnUse" x="-1" y="77" width="66" height="61">
<path d="M17.8597 77.8672L64.1659 103.855L45.3722 137.342L-0.934082 111.355L17.8597 77.8672Z" fill="white"/>
</mask>
<g mask="url(#mask32_344_21368)">
<path d="M7.55801 111.238L7.40489 110.883C7.38457 110.838 7.3877 110.784 7.41582 110.742L7.62051 110.416C7.68614 110.309 7.60332 110.173 7.47832 110.186L7.09395 110.222C7.04551 110.227 6.99551 110.206 6.96426 110.169L6.71739 109.872C6.63614 109.775 6.48145 109.813 6.45489 109.934L6.36895 110.313C6.35801 110.359 6.3252 110.4 6.27832 110.419L5.92051 110.563C5.80332 110.608 5.79082 110.767 5.89864 110.831L6.23145 111.028C6.27364 111.053 6.30176 111.098 6.30489 111.147L6.33145 111.533C6.33926 111.658 6.4877 111.719 6.58145 111.636L6.87051 111.381C6.90801 111.348 6.95957 111.336 7.00801 111.348L7.38145 111.442C7.50332 111.473 7.60645 111.352 7.55801 111.238Z" fill="#48CDDF"/>
</g>
</g>
</g>
</g>
<mask id="mask33_344_21368" style="mask-type:luminance" maskUnits="userSpaceOnUse" x="8" y="93" width="3" height="3">
<path d="M8.5 93.6H10.5V95.6H8.5V93.6Z" fill="white"/>
</mask>
<g mask="url(#mask33_344_21368)">
<mask id="mask34_344_21368" style="mask-type:luminance" maskUnits="userSpaceOnUse" x="-1" y="77" width="66" height="61">
<path d="M17.8592 77.8672L64.1654 103.855L45.3717 137.342L-0.93457 111.355L17.8592 77.8672Z" fill="white"/>
</mask>
<g mask="url(#mask34_344_21368)">
<mask id="mask35_344_21368" style="mask-type:luminance" maskUnits="userSpaceOnUse" x="-1" y="77" width="66" height="61">
<path d="M17.8592 77.8672L64.1654 103.855L45.3717 137.342L-0.93457 111.355L17.8592 77.8672Z" fill="white"/>
</mask>
<g mask="url(#mask35_344_21368)">
<mask id="mask36_344_21368" style="mask-type:luminance" maskUnits="userSpaceOnUse" x="-1" y="77" width="66" height="61">
<path d="M17.8592 77.8672L64.1654 103.855L45.3717 137.342L-0.93457 111.355L17.8592 77.8672Z" fill="white"/>
</mask>
<g mask="url(#mask36_344_21368)">
<path d="M10.3125 95.075L10.1593 94.7204C10.139 94.675 10.1437 94.6235 10.1687 94.5813L10.375 94.2532C10.4421 94.1485 10.3578 94.0125 10.2343 94.0235L9.8484 94.0594C9.79996 94.0641 9.75152 94.0438 9.71871 94.0063L9.47184 93.7094C9.39059 93.6125 9.2359 93.65 9.20934 93.7719L9.1234 94.15C9.11402 94.1985 9.07965 94.2375 9.03277 94.2563L8.67496 94.4C8.55934 94.4469 8.54684 94.6047 8.65465 94.6688L8.9859 94.8672C9.02965 94.8922 9.05621 94.936 9.05934 94.986L9.0859 95.3719C9.09527 95.4954 9.24215 95.5563 9.3359 95.4735L9.62652 95.2188C9.66246 95.1875 9.71402 95.175 9.76246 95.186L10.1375 95.2813C10.2578 95.311 10.3625 95.1891 10.3125 95.075Z" fill="#FE4C6F"/>
</g>
</g>
</g>
</g>
<mask id="mask37_344_21368" style="mask-type:luminance" maskUnits="userSpaceOnUse" x="47" y="98" width="4" height="4">
<path d="M47.7002 98.8H50.9002V101.6H47.7002V98.8Z" fill="white"/>
</mask>
<g mask="url(#mask37_344_21368)">
<mask id="mask38_344_21368" style="mask-type:luminance" maskUnits="userSpaceOnUse" x="-1" y="77" width="66" height="61">
<path d="M17.8597 77.8672L64.1659 103.855L45.3722 137.342L-0.934082 111.355L17.8597 77.8672Z" fill="white"/>
</mask>
<g mask="url(#mask38_344_21368)">
<mask id="mask39_344_21368" style="mask-type:luminance" maskUnits="userSpaceOnUse" x="-1" y="77" width="66" height="61">
<path d="M17.8597 77.8672L64.1659 103.855L45.3722 137.342L-0.934082 111.355L17.8597 77.8672Z" fill="white"/>
</mask>
<g mask="url(#mask39_344_21368)">
<mask id="mask40_344_21368" style="mask-type:luminance" maskUnits="userSpaceOnUse" x="-1" y="77" width="66" height="61">
<path d="M17.8597 77.8672L64.1659 103.855L45.3722 137.342L-0.934082 111.355L17.8597 77.8672Z" fill="white"/>
</mask>
<g mask="url(#mask40_344_21368)">
<path d="M50.411 100.911L50.1985 100.419C50.172 100.356 50.1766 100.284 50.2141 100.227L50.4985 99.7719C50.5907 99.6266 50.4751 99.4375 50.3032 99.4532L49.7688 99.5032C49.7016 99.5094 49.6329 99.4813 49.5891 99.4297L49.2454 99.0172C49.1345 98.8844 48.9204 98.9375 48.8813 99.1063L48.7641 99.6282C48.7501 99.6954 48.7032 99.75 48.6391 99.7766L48.1423 99.975C47.9813 100.039 47.9641 100.259 48.1126 100.348L48.5735 100.622C48.6329 100.656 48.6704 100.719 48.6751 100.788L48.711 101.322C48.7235 101.494 48.9282 101.578 49.0579 101.464L49.4595 101.111C49.5126 101.066 49.5829 101.048 49.6485 101.066L50.1688 101.197C50.336 101.239 50.4798 101.07 50.411 100.911Z" fill="#7870DE"/>
</g>
</g>
</g>
</g>
<mask id="mask41_344_21368" style="mask-type:luminance" maskUnits="userSpaceOnUse" x="21" y="91" width="4" height="3">
<path d="M21.2998 91.2H24.0998V94H21.2998V91.2Z" fill="white"/>
</mask>
<g mask="url(#mask41_344_21368)">
<mask id="mask42_344_21368" style="mask-type:luminance" maskUnits="userSpaceOnUse" x="-1" y="77" width="66" height="61">
<path d="M17.8592 77.8672L64.1654 103.855L45.3717 137.342L-0.93457 111.355L17.8592 77.8672Z" fill="white"/>
</mask>
<g mask="url(#mask42_344_21368)">
<mask id="mask43_344_21368" style="mask-type:luminance" maskUnits="userSpaceOnUse" x="-1" y="77" width="66" height="61">
<path d="M17.8592 77.8672L64.1654 103.855L45.3717 137.342L-0.93457 111.355L17.8592 77.8672Z" fill="white"/>
</mask>
<g mask="url(#mask43_344_21368)">
<mask id="mask44_344_21368" style="mask-type:luminance" maskUnits="userSpaceOnUse" x="-1" y="77" width="66" height="61">
<path d="M17.8592 77.8672L64.1654 103.855L45.3717 137.342L-0.93457 111.355L17.8592 77.8672Z" fill="white"/>
</mask>
<g mask="url(#mask44_344_21368)">
<path d="M22.0169 92.2125C22.6185 92.3485 23.0138 92.8985 23.07 93.4875C23.1263 94.0531 23.9935 93.8985 23.9403 93.3375C23.8403 92.3219 23.0747 91.5547 22.1013 91.3344C21.5497 91.2094 21.4716 92.0891 22.0169 92.2125Z" fill="#7870DE"/>
</g>
</g>
</g>
</g>
<mask id="mask45_344_21368" style="mask-type:luminance" maskUnits="userSpaceOnUse" x="54" y="106" width="5" height="2">
<path d="M54.8999 106H58.0999V107.6H54.8999V106Z" fill="white"/>
</mask>
<g mask="url(#mask45_344_21368)">
<mask id="mask46_344_21368" style="mask-type:luminance" maskUnits="userSpaceOnUse" x="-1" y="77" width="66" height="61">
<path d="M17.8592 77.8672L64.1654 103.855L45.3717 137.342L-0.93457 111.355L17.8592 77.8672Z" fill="white"/>
</mask>
<g mask="url(#mask46_344_21368)">
<mask id="mask47_344_21368" style="mask-type:luminance" maskUnits="userSpaceOnUse" x="-1" y="77" width="66" height="61">
<path d="M17.8592 77.8672L64.1654 103.855L45.3717 137.342L-0.93457 111.355L17.8592 77.8672Z" fill="white"/>
</mask>
<g mask="url(#mask47_344_21368)">
<mask id="mask48_344_21368" style="mask-type:luminance" maskUnits="userSpaceOnUse" x="-1" y="77" width="66" height="61">
<path d="M17.8592 77.8672L64.1654 103.855L45.3717 137.342L-0.93457 111.355L17.8592 77.8672Z" fill="white"/>
</mask>
<g mask="url(#mask48_344_21368)">
<path d="M55.7637 107.102C56.3215 106.838 56.9715 107.03 57.3793 107.459C57.7699 107.872 58.359 107.216 57.9699 106.806C57.2684 106.066 56.1918 105.933 55.2903 106.356C54.7777 106.598 55.2574 107.339 55.7637 107.102Z" fill="#FE4C6F"/>
</g>
</g>
</g>
</g>
<mask id="mask49_344_21368" style="mask-type:luminance" maskUnits="userSpaceOnUse" x="40" y="108" width="5" height="4">
<path d="M40.5 108H44.1V112H40.5V108Z" fill="white"/>
</mask>
<g mask="url(#mask49_344_21368)">
<mask id="mask50_344_21368" style="mask-type:luminance" maskUnits="userSpaceOnUse" x="-1" y="77" width="66" height="61">
<path d="M17.8592 77.8672L64.1654 103.855L45.3717 137.342L-0.93457 111.355L17.8592 77.8672Z" fill="white"/>
</mask>
<g mask="url(#mask50_344_21368)">
<mask id="mask51_344_21368" style="mask-type:luminance" maskUnits="userSpaceOnUse" x="-1" y="77" width="66" height="61">
<path d="M17.8592 77.8672L64.1654 103.855L45.3717 137.342L-0.93457 111.355L17.8592 77.8672Z" fill="white"/>
</mask>
<g mask="url(#mask51_344_21368)">
<mask id="mask52_344_21368" style="mask-type:luminance" maskUnits="userSpaceOnUse" x="-1" y="77" width="66" height="61">
<path d="M17.8592 77.8672L64.1654 103.855L45.3717 137.342L-0.93457 111.355L17.8592 77.8672Z" fill="white"/>
</mask>
<g mask="url(#mask52_344_21368)">
<path d="M41.7044 111.305C41.706 111.364 42.2622 111.138 42.3356 111.098C42.5513 110.986 42.7466 110.845 42.8669 110.628C42.9856 110.417 42.995 110.191 42.9747 109.955C42.9481 109.644 42.8731 109.006 43.4325 109.316C43.9263 109.589 44.2466 108.767 43.756 108.495C43.0075 108.081 42.0575 108.639 42.0325 109.481C42.0247 109.706 42.1778 110.072 42.0231 110.267C41.9122 110.408 41.5263 110.466 41.3622 110.548C40.9856 110.741 40.8122 111.005 40.831 111.428C40.856 111.995 41.7294 111.867 41.7044 111.305Z" fill="#48CDDF"/>
</g>
</g>
</g>
</g>
<mask id="mask53_344_21368" style="mask-type:luminance" maskUnits="userSpaceOnUse" x="28" y="122" width="2" height="2">
<path d="M28.1001 122H29.7001V123.6H28.1001V122Z" fill="white"/>
</mask>
<g mask="url(#mask53_344_21368)">
<mask id="mask54_344_21368" style="mask-type:luminance" maskUnits="userSpaceOnUse" x="-1" y="77" width="66" height="61">
<path d="M17.8597 77.8672L64.1659 103.855L45.3722 137.342L-0.934082 111.355L17.8597 77.8672Z" fill="white"/>
</mask>
<g mask="url(#mask54_344_21368)">
<mask id="mask55_344_21368" style="mask-type:luminance" maskUnits="userSpaceOnUse" x="-1" y="77" width="66" height="61">
<path d="M17.8597 77.8672L64.1659 103.855L45.3722 137.342L-0.934082 111.355L17.8597 77.8672Z" fill="white"/>
</mask>
<g mask="url(#mask55_344_21368)">
<mask id="mask56_344_21368" style="mask-type:luminance" maskUnits="userSpaceOnUse" x="-1" y="77" width="66" height="61">
<path d="M17.8597 77.8672L64.1659 103.855L45.3722 137.342L-0.934082 111.355L17.8597 77.8672Z" fill="white"/>
</mask>
<g mask="url(#mask56_344_21368)">
<path d="M29.2471 122.947C29.383 122.705 29.2971 122.4 29.0549 122.264C28.8127 122.128 28.508 122.214 28.3721 122.456C28.2362 122.697 28.3221 123.003 28.5643 123.139C28.8049 123.275 29.1112 123.189 29.2471 122.947Z" fill="#FF9241"/>
</g>
</g>
</g>
</g>
<mask id="mask57_344_21368" style="mask-type:luminance" maskUnits="userSpaceOnUse" x="52" y="121" width="3" height="2">
<path d="M52.8999 121.2H54.0999V122.8H52.8999V121.2Z" fill="white"/>
</mask>
<g mask="url(#mask57_344_21368)">
<mask id="mask58_344_21368" style="mask-type:luminance" maskUnits="userSpaceOnUse" x="-1" y="77" width="66" height="61">
<path d="M17.8592 77.8672L64.1654 103.855L45.3717 137.342L-0.93457 111.355L17.8592 77.8672Z" fill="white"/>
</mask>
<g mask="url(#mask58_344_21368)">
<mask id="mask59_344_21368" style="mask-type:luminance" maskUnits="userSpaceOnUse" x="-1" y="77" width="66" height="61">
<path d="M17.8592 77.8672L64.1654 103.855L45.3717 137.342L-0.93457 111.355L17.8592 77.8672Z" fill="white"/>
</mask>
<g mask="url(#mask59_344_21368)">
<mask id="mask60_344_21368" style="mask-type:luminance" maskUnits="userSpaceOnUse" x="-1" y="77" width="66" height="61">
<path d="M17.8592 77.8672L64.1654 103.855L45.3717 137.342L-0.93457 111.355L17.8592 77.8672Z" fill="white"/>
</mask>
<g mask="url(#mask60_344_21368)">
<path d="M53.8968 122.169C54.0327 121.927 53.9452 121.62 53.7046 121.484C53.4624 121.348 53.1562 121.434 53.0202 121.677C52.8843 121.919 52.9718 122.225 53.2124 122.359C53.4546 122.495 53.7608 122.409 53.8968 122.169Z" fill="#48CDDF"/>
</g>
</g>
</g>
</g>
<mask id="mask61_344_21368" style="mask-type:luminance" maskUnits="userSpaceOnUse" x="18" y="86" width="3" height="2">
<path d="M18.5 86H20.1V87.6H18.5V86Z" fill="white"/>
</mask>
<g mask="url(#mask61_344_21368)">
<mask id="mask62_344_21368" style="mask-type:luminance" maskUnits="userSpaceOnUse" x="-1" y="77" width="66" height="61">
<path d="M17.8592 77.8672L64.1654 103.855L45.3717 137.342L-0.93457 111.355L17.8592 77.8672Z" fill="white"/>
</mask>
<g mask="url(#mask62_344_21368)">
<mask id="mask63_344_21368" style="mask-type:luminance" maskUnits="userSpaceOnUse" x="-1" y="77" width="66" height="61">
<path d="M17.8592 77.8672L64.1654 103.855L45.3717 137.342L-0.93457 111.355L17.8592 77.8672Z" fill="white"/>
</mask>
<g mask="url(#mask63_344_21368)">
<mask id="mask64_344_21368" style="mask-type:luminance" maskUnits="userSpaceOnUse" x="-1" y="77" width="66" height="61">
<path d="M17.8592 77.8672L64.1654 103.855L45.3717 137.342L-0.93457 111.355L17.8592 77.8672Z" fill="white"/>
</mask>
<g mask="url(#mask64_344_21368)">
<path d="M19.6465 87.0594C19.7825 86.8172 19.6965 86.5109 19.4543 86.375C19.2121 86.2406 18.9059 86.3266 18.77 86.5672C18.6356 86.8094 18.7215 87.1156 18.9637 87.2516C19.2043 87.3859 19.5106 87.3 19.6465 87.0594Z" fill="#FF9241"/>
</g>
</g>
</g>
</g>
<mask id="mask65_344_21368" style="mask-type:luminance" maskUnits="userSpaceOnUse" x="50" y="108" width="2" height="2">
<path d="M50.1001 108.4H51.7001V110H50.1001V108.4Z" fill="white"/>
</mask>
<g mask="url(#mask65_344_21368)">
<mask id="mask66_344_21368" style="mask-type:luminance" maskUnits="userSpaceOnUse" x="-1" y="77" width="66" height="61">
<path d="M17.8597 77.8672L64.1659 103.855L45.3722 137.342L-0.934082 111.355L17.8597 77.8672Z" fill="white"/>
</mask>
<g mask="url(#mask66_344_21368)">
<mask id="mask67_344_21368" style="mask-type:luminance" maskUnits="userSpaceOnUse" x="-1" y="77" width="66" height="61">
<path d="M17.8597 77.8672L64.1659 103.855L45.3722 137.342L-0.934082 111.355L17.8597 77.8672Z" fill="white"/>
</mask>
<g mask="url(#mask67_344_21368)">
<mask id="mask68_344_21368" style="mask-type:luminance" maskUnits="userSpaceOnUse" x="-1" y="77" width="66" height="61">
<path d="M17.8597 77.8672L64.1659 103.855L45.3722 137.342L-0.934082 111.355L17.8597 77.8672Z" fill="white"/>
</mask>
<g mask="url(#mask68_344_21368)">
<path d="M51.3036 109.533C51.438 109.291 51.3536 108.986 51.1115 108.85C50.8693 108.714 50.563 108.8 50.4271 109.042C50.2927 109.283 50.3771 109.589 50.6193 109.725C50.8615 109.861 51.1677 109.775 51.3036 109.533Z" fill="#FE4C6F"/>
</g>
</g>
</g>
</g>
<mask id="mask69_344_21368" style="mask-type:luminance" maskUnits="userSpaceOnUse" x="28" y="96" width="3" height="2">
<path d="M28.8999 96H30.8999V98H28.8999V96Z" fill="white"/>
</mask>
<g mask="url(#mask69_344_21368)">
<mask id="mask70_344_21368" style="mask-type:luminance" maskUnits="userSpaceOnUse" x="-1" y="77" width="66" height="61">
<path d="M17.8592 77.8672L64.1654 103.855L45.3717 137.342L-0.93457 111.355L17.8592 77.8672Z" fill="white"/>
</mask>
<g mask="url(#mask70_344_21368)">
<mask id="mask71_344_21368" style="mask-type:luminance" maskUnits="userSpaceOnUse" x="-1" y="77" width="66" height="61">
<path d="M17.8592 77.8672L64.1654 103.855L45.3717 137.342L-0.93457 111.355L17.8592 77.8672Z" fill="white"/>
</mask>
<g mask="url(#mask71_344_21368)">
<mask id="mask72_344_21368" style="mask-type:luminance" maskUnits="userSpaceOnUse" x="-1" y="77" width="66" height="61">
<path d="M17.8592 77.8672L64.1654 103.855L45.3717 137.342L-0.93457 111.355L17.8592 77.8672Z" fill="white"/>
</mask>
<g mask="url(#mask72_344_21368)">
<path d="M30.4732 97.536C30.6811 97.1657 30.5498 96.6953 30.1779 96.4875C29.8076 96.2797 29.3373 96.411 29.1295 96.7813C28.9217 97.1532 29.0545 97.6219 29.4248 97.8297C29.7967 98.0391 30.2654 97.9063 30.4732 97.536Z" fill="#FFD939"/>
</g>
</g>
</g>
</g>
<mask id="mask73_344_21368" style="mask-type:luminance" maskUnits="userSpaceOnUse" x="12" y="106" width="3" height="3">
<path d="M12.1001 106.4H14.1001V108.4H12.1001V106.4Z" fill="white"/>
</mask>
<g mask="url(#mask73_344_21368)">
<mask id="mask74_344_21368" style="mask-type:luminance" maskUnits="userSpaceOnUse" x="-1" y="77" width="66" height="61">
<path d="M17.8597 77.8672L64.1659 103.855L45.3722 137.342L-0.934082 111.355L17.8597 77.8672Z" fill="white"/>
</mask>
<g mask="url(#mask74_344_21368)">
<mask id="mask75_344_21368" style="mask-type:luminance" maskUnits="userSpaceOnUse" x="-1" y="77" width="66" height="61">
<path d="M17.8597 77.8672L64.1659 103.855L45.3722 137.342L-0.934082 111.355L17.8597 77.8672Z" fill="white"/>
</mask>
<g mask="url(#mask75_344_21368)">
<mask id="mask76_344_21368" style="mask-type:luminance" maskUnits="userSpaceOnUse" x="-1" y="77" width="66" height="61">
<path d="M17.8597 77.8672L64.1659 103.855L45.3722 137.342L-0.934082 111.355L17.8597 77.8672Z" fill="white"/>
</mask>
<g mask="url(#mask76_344_21368)">
<path d="M13.7345 107.864C13.9423 107.494 13.811 107.023 13.4392 106.816C13.0688 106.608 12.5985 106.739 12.3907 107.111C12.1829 107.481 12.3157 107.952 12.686 108.159C13.0563 108.367 13.5267 108.236 13.7345 107.864Z" fill="#FE4C6F"/>
</g>
</g>
</g>
</g>
<mask id="mask77_344_21368" style="mask-type:luminance" maskUnits="userSpaceOnUse" x="38" y="123" width="3" height="3">
<path d="M38.8999 123.2H40.4999V125.2H38.8999V123.2Z" fill="white"/>
</mask>
<g mask="url(#mask77_344_21368)">
<mask id="mask78_344_21368" style="mask-type:luminance" maskUnits="userSpaceOnUse" x="-1" y="77" width="66" height="61">
<path d="M17.8592 77.8672L64.1654 103.855L45.3717 137.342L-0.93457 111.355L17.8592 77.8672Z" fill="white"/>
</mask>
<g mask="url(#mask78_344_21368)">
<mask id="mask79_344_21368" style="mask-type:luminance" maskUnits="userSpaceOnUse" x="-1" y="77" width="66" height="61">
<path d="M17.8592 77.8672L64.1654 103.855L45.3717 137.342L-0.93457 111.355L17.8592 77.8672Z" fill="white"/>
</mask>
<g mask="url(#mask79_344_21368)">
<mask id="mask80_344_21368" style="mask-type:luminance" maskUnits="userSpaceOnUse" x="-1" y="77" width="66" height="61">
<path d="M17.8592 77.8672L64.1654 103.855L45.3717 137.342L-0.93457 111.355L17.8592 77.8672Z" fill="white"/>
</mask>
<g mask="url(#mask80_344_21368)">
<path d="M40.3874 124.742C40.5952 124.37 40.4624 123.902 40.0921 123.692C39.7202 123.484 39.2515 123.616 39.0421 123.988C38.8343 124.358 38.9671 124.828 39.3374 125.036C39.7093 125.244 40.178 125.113 40.3874 124.742Z" fill="#7870DE"/>
</g>
</g>
</g>
</g>
<mask id="mask81_344_21368" style="mask-type:luminance" maskUnits="userSpaceOnUse" x="111" y="44" width="30" height="11">
<path d="M111.3 44.8H140.5V54.8H111.3V44.8Z" fill="white"/>
</mask>
<g mask="url(#mask81_344_21368)">
<mask id="mask82_344_21368" style="mask-type:luminance" maskUnits="userSpaceOnUse" x="110" y="24" width="41" height="54">
<path d="M110.098 75.3594L113.567 24.1766L150.383 26.6719L146.914 77.8548L110.098 75.3594Z" fill="white"/>
</mask>
<g mask="url(#mask82_344_21368)">
<mask id="mask83_344_21368" style="mask-type:luminance" maskUnits="userSpaceOnUse" x="110" y="24" width="41" height="54">
<path d="M110.098 75.3594L113.567 24.1766L150.383 26.6719L146.914 77.8548L110.098 75.3594Z" fill="white"/>
</mask>
<g mask="url(#mask83_344_21368)">
<mask id="mask84_344_21368" style="mask-type:luminance" maskUnits="userSpaceOnUse" x="110" y="24" width="41" height="54">
<path d="M110.098 75.3594L113.567 24.1766L150.383 26.6719L146.914 77.8548L110.098 75.3594Z" fill="white"/>
</mask>
<g mask="url(#mask84_344_21368)">
<path d="M119.901 45.6235C119.273 47.4907 118.684 49.4251 117.519 51.0392C117.086 51.6407 116.244 52.5939 115.362 52.9751C114.783 53.2454 113.376 53.8064 111.564 53.8595C111.637 53.9454 111.761 54.0235 111.945 54.0829C114.45 54.9064 117.341 54.3329 119.403 52.6892C120.412 51.8829 121.148 50.8657 121.72 49.747C122.228 50.7985 122.737 51.8485 123.255 52.8954C123.625 53.6439 125.797 53.4064 126.326 52.9689C126.78 52.5939 127.086 52.1642 127.323 51.6845C127.412 51.9923 127.52 52.2892 127.67 52.5454C128.401 53.797 130.544 53.7564 131.726 53.386C132.851 53.0329 133.675 52.1329 134.789 51.761C136.526 51.1814 138.128 51.7642 139.614 52.7282C139.887 52.9064 140.645 53.0876 140.289 52.5079C139.123 50.622 136.237 50.136 134.197 50.3564C133.362 50.4454 132.525 50.6798 131.77 51.0532C131.367 51.2532 131.006 51.5095 130.634 51.761C130.617 51.7735 130.6 51.7845 130.583 51.797C130.392 51.2485 130.3 50.5642 130.2 50.2001C129.983 49.4079 129.766 48.6157 129.548 47.8235C129.305 46.9345 127.358 47.1251 126.731 47.3782C125.817 47.7454 125.294 48.3626 124.925 49.2095C124.336 47.9735 123.747 46.7376 123.162 45.5001C122.841 44.8189 120.144 44.8985 119.901 45.6235Z" fill="#FE4C6F"/>
</g>
</g>
</g>
</g>
<mask id="mask85_344_21368" style="mask-type:luminance" maskUnits="userSpaceOnUse" x="122" y="57" width="24" height="18">
<path d="M122.5 57.2H145.7V74.3999H122.5V57.2Z" fill="white"/>
</mask>
<g mask="url(#mask85_344_21368)">
<mask id="mask86_344_21368" style="mask-type:luminance" maskUnits="userSpaceOnUse" x="110" y="24" width="41" height="54">
<path d="M110.099 75.3593L113.567 24.1765L150.383 26.6718L146.914 77.8546L110.099 75.3593Z" fill="white"/>
</mask>
<g mask="url(#mask86_344_21368)">
<mask id="mask87_344_21368" style="mask-type:luminance" maskUnits="userSpaceOnUse" x="110" y="24" width="41" height="54">
<path d="M110.099 75.3593L113.567 24.1765L150.383 26.6718L146.914 77.8546L110.099 75.3593Z" fill="white"/>
</mask>
<g mask="url(#mask87_344_21368)">
<mask id="mask88_344_21368" style="mask-type:luminance" maskUnits="userSpaceOnUse" x="110" y="24" width="41" height="54">
<path d="M110.099 75.3593L113.567 24.1765L150.383 26.6718L146.914 77.8546L110.099 75.3593Z" fill="white"/>
</mask>
<g mask="url(#mask88_344_21368)">
<path d="M143.633 58.0656C143.435 59.4359 143.056 60.2984 141.913 60.7125C140.991 61.0469 139.866 60.9734 138.644 60.6719C136.285 60.0906 133.9 59.2656 132.56 60.675C131.377 61.9172 131.339 64.0422 131.692 66.3969C131.847 67.4281 132.088 68.5172 132.094 69.4765C132.095 69.6562 131.955 70 132.131 69.7922C131.916 70.0469 131.352 70.0562 130.931 70.0422C129.583 69.9969 128.219 69.7922 127.014 70.05C126.36 70.1906 125.766 70.4312 125.216 70.7265C124.206 71.2687 123.703 72.3406 122.972 73.2062C122.791 73.4219 122.63 73.764 123.153 74.0547C123.633 74.3203 124.261 73.9547 124.456 73.714C124.399 73.7859 124.855 73.864 124.827 73.8625C124.952 73.8656 125.05 73.725 125.139 73.6719C125.399 73.5172 125.658 73.3703 125.945 73.2578C126.505 73.0375 127.122 72.9 127.778 72.8422C128.974 72.7375 130.447 73.1609 131.549 72.8781C133.399 72.4015 133.939 70.1312 133.719 67.7578C133.62 66.6984 133.391 65.5797 133.26 64.5047C133.156 63.675 132.975 62.725 133.522 62.5453C134.466 62.2375 135.845 62.6906 137.049 62.9875C138.3 63.2969 139.519 63.5265 140.577 63.3672C143.119 62.9859 145.238 60.9312 145.445 57.9687C145.474 57.5781 144.664 57.5359 144.583 57.5406C144.233 57.5547 143.689 57.6719 143.633 58.0656Z" fill="#48CDDF"/>
</g>
</g>
</g>
</g>
<mask id="mask89_344_21368" style="mask-type:luminance" maskUnits="userSpaceOnUse" x="128" y="31" width="22" height="14">
<path d="M128.5 31.6H149.3V44.8H128.5V31.6Z" fill="white"/>
</mask>
<g mask="url(#mask89_344_21368)">
<mask id="mask90_344_21368" style="mask-type:luminance" maskUnits="userSpaceOnUse" x="110" y="24" width="41" height="54">
<path d="M110.099 75.3593L113.567 24.1765L150.383 26.6718L146.914 77.8546L110.099 75.3593Z" fill="white"/>
</mask>
<g mask="url(#mask90_344_21368)">
<mask id="mask91_344_21368" style="mask-type:luminance" maskUnits="userSpaceOnUse" x="110" y="24" width="41" height="54">
<path d="M110.099 75.3593L113.567 24.1765L150.383 26.6718L146.914 77.8546L110.099 75.3593Z" fill="white"/>
</mask>
<g mask="url(#mask91_344_21368)">
<mask id="mask92_344_21368" style="mask-type:luminance" maskUnits="userSpaceOnUse" x="110" y="24" width="41" height="54">
<path d="M110.099 75.3593L113.567 24.1765L150.383 26.6718L146.914 77.8546L110.099 75.3593Z" fill="white"/>
</mask>
<g mask="url(#mask92_344_21368)">
<path d="M147.546 44.2328C147.338 43.0266 146.985 42.2922 145.972 42.0281C145.155 41.8156 144.171 41.986 143.107 42.3688C141.052 43.111 138.983 44.0719 137.772 42.9375C136.703 41.9375 136.618 40.0422 136.868 37.9031C136.977 36.9672 137.16 35.9703 137.143 35.1125C137.138 34.95 137.007 34.6578 137.166 34.8266C136.971 34.6188 136.475 34.6625 136.108 34.7141C134.927 34.8813 133.735 35.1922 132.672 35.075C132.096 35.0094 131.569 34.85 131.078 34.6375C130.182 34.2485 129.713 33.336 129.049 32.6313C128.886 32.4563 128.735 32.1641 129.186 31.8563C129.6 31.5735 130.161 31.8422 130.338 32.0375C130.285 31.9797 130.683 31.8672 130.658 31.8703C130.769 31.8563 130.858 31.9719 130.938 32.011C131.169 32.125 131.4 32.2328 131.655 32.3063C132.152 32.4516 132.696 32.5156 133.272 32.5063C134.324 32.4891 135.605 31.9719 136.577 32.1219C138.211 32.375 138.743 34.3531 138.61 36.4953C138.55 37.4516 138.377 38.4735 138.288 39.4469C138.221 40.2 138.085 41.0656 138.569 41.175C139.403 41.3625 140.602 40.8281 141.65 40.45C142.739 40.0563 143.802 39.7375 144.733 39.7797C146.972 39.8828 148.882 41.5203 149.138 44.1516C149.172 44.4969 148.464 44.6094 148.393 44.6141C148.086 44.6344 147.607 44.5797 147.546 44.2328Z" fill="#FFD939"/>
</g>
</g>
</g>
</g>
<mask id="mask93_344_21368" style="mask-type:luminance" maskUnits="userSpaceOnUse" x="129" y="26" width="3" height="3">
<path d="M129.3 26.8H131.3V28.8001H129.3V26.8Z" fill="white"/>
</mask>
<g mask="url(#mask93_344_21368)">
<mask id="mask94_344_21368" style="mask-type:luminance" maskUnits="userSpaceOnUse" x="110" y="24" width="41" height="54">
<path d="M110.098 75.3595L113.567 24.1766L150.383 26.6719L146.914 77.8548L110.098 75.3595Z" fill="white"/>
</mask>
<g mask="url(#mask94_344_21368)">
<mask id="mask95_344_21368" style="mask-type:luminance" maskUnits="userSpaceOnUse" x="110" y="24" width="41" height="54">
<path d="M110.098 75.3595L113.567 24.1766L150.383 26.6719L146.914 77.8548L110.098 75.3595Z" fill="white"/>
</mask>
<g mask="url(#mask95_344_21368)">
<mask id="mask96_344_21368" style="mask-type:luminance" maskUnits="userSpaceOnUse" x="110" y="24" width="41" height="54">
<path d="M110.098 75.3595L113.567 24.1766L150.383 26.6719L146.914 77.8548L110.098 75.3595Z" fill="white"/>
</mask>
<g mask="url(#mask96_344_21368)">
<path d="M130.436 27.0658L130.201 27.3345C130.172 27.3689 130.126 27.3876 130.081 27.3814L129.729 27.3392C129.615 27.3267 129.536 27.4501 129.594 27.5486L129.775 27.8564C129.798 27.8954 129.801 27.9439 129.781 27.9845L129.634 28.3095C129.586 28.4142 129.678 28.5298 129.789 28.5033L130.136 28.4251C130.179 28.4142 130.226 28.4267 130.261 28.4579L130.52 28.7001C130.604 28.7783 130.742 28.7251 130.753 28.6111L130.786 28.2548C130.789 28.2095 130.815 28.1689 130.854 28.147L131.165 27.972C131.265 27.9158 131.258 27.7673 131.151 27.722L130.826 27.5814C130.784 27.5626 130.753 27.5251 130.745 27.4814L130.675 27.1314C130.653 27.0173 130.512 26.9798 130.436 27.0658Z" fill="#FE4C6F"/>
</g>
</g>
</g>
</g>
<mask id="mask97_344_21368" style="mask-type:luminance" maskUnits="userSpaceOnUse" x="134" y="46" width="3" height="2">
<path d="M134.9 46H136.9V48H134.9V46Z" fill="white"/>
</mask>
<g mask="url(#mask97_344_21368)">
<mask id="mask98_344_21368" style="mask-type:luminance" maskUnits="userSpaceOnUse" x="110" y="24" width="41" height="54">
<path d="M110.098 75.3593L113.567 24.1765L150.383 26.6718L146.914 77.8546L110.098 75.3593Z" fill="white"/>
</mask>
<g mask="url(#mask98_344_21368)">
<mask id="mask99_344_21368" style="mask-type:luminance" maskUnits="userSpaceOnUse" x="110" y="24" width="41" height="54">
<path d="M110.098 75.3593L113.567 24.1765L150.383 26.6718L146.914 77.8546L110.098 75.3593Z" fill="white"/>
</mask>
<g mask="url(#mask99_344_21368)">
<mask id="mask100_344_21368" style="mask-type:luminance" maskUnits="userSpaceOnUse" x="110" y="24" width="41" height="54">
<path d="M110.098 75.3593L113.567 24.1765L150.383 26.6718L146.914 77.8546L110.098 75.3593Z" fill="white"/>
</mask>
<g mask="url(#mask100_344_21368)">
<path d="M135.904 46.3062L135.676 46.5687C135.647 46.6015 135.603 46.6187 135.559 46.614L135.215 46.5733C135.104 46.5593 135.026 46.6796 135.084 46.7765L135.261 47.0765C135.282 47.114 135.286 47.1608 135.267 47.203L135.122 47.5187C135.075 47.6202 135.165 47.7327 135.275 47.7077L135.611 47.6312C135.654 47.6202 135.7 47.6327 135.732 47.6624L135.987 47.8983C136.068 47.9749 136.203 47.9233 136.212 47.8124L136.245 47.4655C136.248 47.4202 136.273 47.3812 136.312 47.3593L136.615 47.189C136.712 47.1343 136.704 46.9905 136.603 46.9468L136.284 46.8093C136.243 46.7905 136.214 46.7546 136.206 46.7108L136.137 46.3687C136.115 46.2593 135.978 46.2218 135.904 46.3062Z" fill="#48CDDF"/>
</g>
</g>
</g>
</g>
<mask id="mask101_344_21368" style="mask-type:luminance" maskUnits="userSpaceOnUse" x="126" y="59" width="4" height="4">
<path d="M126.5 59.6H129.3V62.4H126.5V59.6Z" fill="white"/>
</mask>
<g mask="url(#mask101_344_21368)">
<mask id="mask102_344_21368" style="mask-type:luminance" maskUnits="userSpaceOnUse" x="110" y="24" width="41" height="54">
<path d="M110.099 75.3593L113.567 24.1765L150.383 26.6718L146.914 77.8546L110.099 75.3593Z" fill="white"/>
</mask>
<g mask="url(#mask102_344_21368)">
<mask id="mask103_344_21368" style="mask-type:luminance" maskUnits="userSpaceOnUse" x="110" y="24" width="41" height="54">
<path d="M110.099 75.3593L113.567 24.1765L150.383 26.6718L146.914 77.8546L110.099 75.3593Z" fill="white"/>
</mask>
<g mask="url(#mask103_344_21368)">
<mask id="mask104_344_21368" style="mask-type:luminance" maskUnits="userSpaceOnUse" x="110" y="24" width="41" height="54">
<path d="M110.099 75.3593L113.567 24.1765L150.383 26.6718L146.914 77.8546L110.099 75.3593Z" fill="white"/>
</mask>
<g mask="url(#mask104_344_21368)">
<path d="M127.913 59.7453L127.566 60.1437C127.521 60.1953 127.453 60.2203 127.388 60.2125L126.864 60.15C126.696 60.1312 126.577 60.314 126.664 60.4609L126.933 60.9172C126.967 60.975 126.971 61.0468 126.942 61.1078L126.722 61.589C126.652 61.7453 126.788 61.914 126.953 61.8765L127.467 61.7593C127.533 61.7453 127.602 61.764 127.652 61.8093L128.038 62.1687C128.164 62.2843 128.366 62.2062 128.381 62.0359L128.43 61.5078C128.436 61.4406 128.475 61.3797 128.535 61.3468L128.994 61.089C129.142 61.0047 129.131 60.7859 128.975 60.7187L128.491 60.5093C128.428 60.4828 128.385 60.4265 128.371 60.3593L128.269 59.8406C128.235 59.6734 128.025 59.6172 127.913 59.7453Z" fill="#FFD939"/>
</g>
</g>
</g>
</g>
<mask id="mask105_344_21368" style="mask-type:luminance" maskUnits="userSpaceOnUse" x="112" y="60" width="3" height="3">
<path d="M112.1 60H114.1V62.4H112.1V60Z" fill="white"/>
</mask>
<g mask="url(#mask105_344_21368)">
<mask id="mask106_344_21368" style="mask-type:luminance" maskUnits="userSpaceOnUse" x="110" y="24" width="41" height="54">
<path d="M110.099 75.3593L113.567 24.1765L150.383 26.6718L146.914 77.8546L110.099 75.3593Z" fill="white"/>
</mask>
<g mask="url(#mask106_344_21368)">
<mask id="mask107_344_21368" style="mask-type:luminance" maskUnits="userSpaceOnUse" x="110" y="24" width="41" height="54">
<path d="M110.099 75.3593L113.567 24.1765L150.383 26.6718L146.914 77.8546L110.099 75.3593Z" fill="white"/>
</mask>
<g mask="url(#mask107_344_21368)">
<mask id="mask108_344_21368" style="mask-type:luminance" maskUnits="userSpaceOnUse" x="110" y="24" width="41" height="54">
<path d="M110.099 75.3593L113.567 24.1765L150.383 26.6718L146.914 77.8546L110.099 75.3593Z" fill="white"/>
</mask>
<g mask="url(#mask108_344_21368)">
<path d="M113.171 60.4031L112.927 60.6828C112.896 60.7187 112.849 60.7375 112.8 60.7312L112.433 60.6875C112.313 60.6734 112.23 60.8031 112.291 60.9078L112.48 61.2281C112.505 61.2687 112.507 61.3203 112.488 61.364L112.332 61.7031C112.282 61.8125 112.379 61.9328 112.496 61.9047L112.858 61.8234C112.904 61.8125 112.952 61.825 112.988 61.8578L113.26 62.1109C113.347 62.1922 113.491 62.1375 113.502 62.0172L113.536 61.6453C113.541 61.5969 113.568 61.5547 113.61 61.5312L113.933 61.3484C114.038 61.2906 114.03 61.1359 113.921 61.089L113.58 60.9406C113.535 60.9219 113.504 60.8828 113.494 60.8359L113.422 60.4703C113.399 60.3515 113.25 60.3109 113.171 60.4031Z" fill="#FE4C6F"/>
</g>
</g>
</g>
</g>
<mask id="mask109_344_21368" style="mask-type:luminance" maskUnits="userSpaceOnUse" x="142" y="70" width="3" height="3">
<path d="M142.1 70.4H144.5V72.4H142.1V70.4Z" fill="white"/>
</mask>
<g mask="url(#mask109_344_21368)">
<mask id="mask110_344_21368" style="mask-type:luminance" maskUnits="userSpaceOnUse" x="110" y="24" width="41" height="54">
<path d="M110.099 75.3594L113.567 24.1766L150.383 26.6719L146.914 77.8548L110.099 75.3594Z" fill="white"/>
</mask>
<g mask="url(#mask110_344_21368)">
<mask id="mask111_344_21368" style="mask-type:luminance" maskUnits="userSpaceOnUse" x="110" y="24" width="41" height="54">
<path d="M110.099 75.3594L113.567 24.1766L150.383 26.6719L146.914 77.8548L110.099 75.3594Z" fill="white"/>
</mask>
<g mask="url(#mask111_344_21368)">
<mask id="mask112_344_21368" style="mask-type:luminance" maskUnits="userSpaceOnUse" x="110" y="24" width="41" height="54">
<path d="M110.099 75.3594L113.567 24.1766L150.383 26.6719L146.914 77.8548L110.099 75.3594Z" fill="white"/>
</mask>
<g mask="url(#mask112_344_21368)">
<path d="M143.313 70.4954L143.069 70.7767C143.036 70.8126 142.989 70.8298 142.943 70.8251L142.574 70.7814C142.455 70.7673 142.372 70.897 142.433 71.0001L142.622 71.322C142.647 71.3626 142.65 71.4126 142.63 71.4564L142.474 71.7954C142.424 71.9048 142.521 72.0251 142.638 71.9986L142.999 71.9157C143.046 71.9064 143.094 71.9189 143.13 71.9517L143.402 72.2048C143.489 72.2861 143.633 72.2314 143.644 72.1111L143.678 71.7392C143.683 71.6907 143.71 71.6486 143.752 71.6251L144.075 71.4423C144.18 71.3829 144.172 71.2298 144.063 71.1814L143.721 71.0345C143.677 71.0157 143.646 70.9767 143.636 70.9282L143.564 70.5626C143.541 70.4439 143.393 70.4048 143.313 70.4954Z" fill="#48CDDF"/>
</g>
</g>
</g>
</g>
<mask id="mask113_344_21368" style="mask-type:luminance" maskUnits="userSpaceOnUse" x="126" y="74" width="4" height="3">
<path d="M126.9 74.4H129.3V76.8H126.9V74.4Z" fill="white"/>
</mask>
<g mask="url(#mask113_344_21368)">
<mask id="mask114_344_21368" style="mask-type:luminance" maskUnits="userSpaceOnUse" x="110" y="24" width="41" height="54">
<path d="M110.098 75.3595L113.567 24.1766L150.383 26.6719L146.914 77.8548L110.098 75.3595Z" fill="white"/>
</mask>
<g mask="url(#mask114_344_21368)">
<mask id="mask115_344_21368" style="mask-type:luminance" maskUnits="userSpaceOnUse" x="110" y="24" width="41" height="54">
<path d="M110.098 75.3595L113.567 24.1766L150.383 26.6719L146.914 77.8548L110.098 75.3595Z" fill="white"/>
</mask>
<g mask="url(#mask115_344_21368)">
<mask id="mask116_344_21368" style="mask-type:luminance" maskUnits="userSpaceOnUse" x="110" y="24" width="41" height="54">
<path d="M110.098 75.3595L113.567 24.1766L150.383 26.6719L146.914 77.8548L110.098 75.3595Z" fill="white"/>
</mask>
<g mask="url(#mask116_344_21368)">
<path d="M128.148 74.8001L127.903 75.0814C127.87 75.1173 127.823 75.1361 127.776 75.1298L127.407 75.0861C127.289 75.072 127.204 75.2017 127.267 75.3048L127.456 75.6267C127.481 75.6673 127.482 75.7173 127.464 75.7611L127.307 76.1017C127.257 76.2111 127.354 76.3298 127.471 76.3032L127.832 76.2204C127.879 76.2111 127.928 76.2236 127.964 76.2564L128.236 76.5095C128.325 76.5907 128.467 76.5361 128.478 76.4157L128.512 76.0439C128.517 75.9954 128.543 75.9532 128.586 75.9298L128.909 75.747C129.014 75.6876 129.006 75.5345 128.895 75.4861L128.554 75.3392C128.512 75.3204 128.479 75.2814 128.47 75.2345L128.398 74.8673C128.375 74.7486 128.226 74.7095 128.148 74.8001Z" fill="#FE4C6F"/>
</g>
</g>
</g>
</g>
<mask id="mask117_344_21368" style="mask-type:luminance" maskUnits="userSpaceOnUse" x="115" y="37" width="4" height="3">
<path d="M115.3 37.2H118.1V40H115.3V37.2Z" fill="white"/>
</mask>
<g mask="url(#mask117_344_21368)">
<mask id="mask118_344_21368" style="mask-type:luminance" maskUnits="userSpaceOnUse" x="110" y="24" width="41" height="54">
<path d="M110.098 75.3593L113.567 24.1765L150.383 26.6718L146.914 77.8546L110.098 75.3593Z" fill="white"/>
</mask>
<g mask="url(#mask118_344_21368)">
<mask id="mask119_344_21368" style="mask-type:luminance" maskUnits="userSpaceOnUse" x="110" y="24" width="41" height="54">
<path d="M110.098 75.3593L113.567 24.1765L150.383 26.6718L146.914 77.8546L110.098 75.3593Z" fill="white"/>
</mask>
<g mask="url(#mask119_344_21368)">
<mask id="mask120_344_21368" style="mask-type:luminance" maskUnits="userSpaceOnUse" x="110" y="24" width="41" height="54">
<path d="M110.098 75.3593L113.567 24.1765L150.383 26.6718L146.914 77.8546L110.098 75.3593Z" fill="white"/>
</mask>
<g mask="url(#mask120_344_21368)">
<path d="M116.683 37.3969L116.342 37.7859C116.298 37.8359 116.234 37.8609 116.169 37.8531L115.658 37.7922C115.492 37.7734 115.376 37.9531 115.462 38.0969L115.725 38.5422C115.758 38.5984 115.762 38.6687 115.734 38.7281L115.519 39.2C115.45 39.3515 115.583 39.5172 115.745 39.4812L116.247 39.3656C116.311 39.3515 116.379 39.3687 116.428 39.414L116.804 39.7656C116.926 39.8797 117.125 39.8015 117.14 39.6359L117.187 39.1203C117.194 39.0547 117.233 38.9953 117.29 38.9625L117.739 38.7094C117.884 38.6281 117.872 38.414 117.72 38.3484L117.247 38.1437C117.186 38.1172 117.144 38.0625 117.129 37.9984L117.029 37.4906C116.997 37.3265 116.792 37.2703 116.683 37.3969Z" fill="#7870DE"/>
</g>
</g>
</g>
</g>
<mask id="mask121_344_21368" style="mask-type:luminance" maskUnits="userSpaceOnUse" x="119" y="63" width="3" height="4">
<path d="M119.7 63.2H121.7V66.3999H119.7V63.2Z" fill="white"/>
</mask>
<g mask="url(#mask121_344_21368)">
<mask id="mask122_344_21368" style="mask-type:luminance" maskUnits="userSpaceOnUse" x="110" y="24" width="41" height="54">
<path d="M110.099 75.3593L113.567 24.1765L150.383 26.6718L146.914 77.8546L110.099 75.3593Z" fill="white"/>
</mask>
<g mask="url(#mask122_344_21368)">
<mask id="mask123_344_21368" style="mask-type:luminance" maskUnits="userSpaceOnUse" x="110" y="24" width="41" height="54">
<path d="M110.099 75.3593L113.567 24.1765L150.383 26.6718L146.914 77.8546L110.099 75.3593Z" fill="white"/>
</mask>
<g mask="url(#mask123_344_21368)">
<mask id="mask124_344_21368" style="mask-type:luminance" maskUnits="userSpaceOnUse" x="110" y="24" width="41" height="54">
<path d="M110.099 75.3593L113.567 24.1765L150.383 26.6718L146.914 77.8546L110.099 75.3593Z" fill="white"/>
</mask>
<g mask="url(#mask124_344_21368)">
<path d="M120.836 65.7766C120.706 65.1953 121.022 64.6234 121.51 64.3281C121.978 64.0469 121.486 63.3531 121.02 63.6328C120.18 64.1406 119.83 65.1281 120.039 66.0672C120.16 66.6016 120.955 66.3047 120.836 65.7766Z" fill="#7870DE"/>
</g>
</g>
</g>
</g>
<mask id="mask125_344_21368" style="mask-type:luminance" maskUnits="userSpaceOnUse" x="118" y="28" width="3" height="4">
<path d="M118.5 28H120.1V31.2H118.5V28Z" fill="white"/>
</mask>
<g mask="url(#mask125_344_21368)">
<mask id="mask126_344_21368" style="mask-type:luminance" maskUnits="userSpaceOnUse" x="110" y="24" width="41" height="54">
<path d="M110.099 75.3593L113.567 24.1765L150.383 26.6718L146.914 77.8546L110.099 75.3593Z" fill="white"/>
</mask>
<g mask="url(#mask126_344_21368)">
<mask id="mask127_344_21368" style="mask-type:luminance" maskUnits="userSpaceOnUse" x="110" y="24" width="41" height="54">
<path d="M110.099 75.3593L113.567 24.1765L150.383 26.6718L146.914 77.8546L110.099 75.3593Z" fill="white"/>
</mask>
<g mask="url(#mask127_344_21368)">
<mask id="mask128_344_21368" style="mask-type:luminance" maskUnits="userSpaceOnUse" x="110" y="24" width="41" height="54">
<path d="M110.099 75.3593L113.567 24.1765L150.383 26.6718L146.914 77.8546L110.099 75.3593Z" fill="white"/>
</mask>
<g mask="url(#mask128_344_21368)">
<path d="M119.849 30.1577C119.391 29.7812 119.289 29.1343 119.494 28.5999C119.691 28.0874 118.878 27.8452 118.683 28.3562C118.33 29.2749 118.658 30.2702 119.397 30.8796C119.819 31.228 120.264 30.5015 119.849 30.1577Z" fill="#FE4C6F"/>
</g>
</g>
</g>
</g>
<mask id="mask129_344_21368" style="mask-type:luminance" maskUnits="userSpaceOnUse" x="125" y="39" width="6" height="3">
<path d="M125.7 39.6H130.1V41.6H125.7V39.6Z" fill="white"/>
</mask>
<g mask="url(#mask129_344_21368)">
<mask id="mask130_344_21368" style="mask-type:luminance" maskUnits="userSpaceOnUse" x="110" y="24" width="41" height="54">
<path d="M110.099 75.3593L113.567 24.1765L150.383 26.6718L146.914 77.8546L110.099 75.3593Z" fill="white"/>
</mask>
<g mask="url(#mask130_344_21368)">
<mask id="mask131_344_21368" style="mask-type:luminance" maskUnits="userSpaceOnUse" x="110" y="24" width="41" height="54">
<path d="M110.099 75.3593L113.567 24.1765L150.383 26.6718L146.914 77.8546L110.099 75.3593Z" fill="white"/>
</mask>
<g mask="url(#mask131_344_21368)">
<mask id="mask132_344_21368" style="mask-type:luminance" maskUnits="userSpaceOnUse" x="110" y="24" width="41" height="54">
<path d="M110.099 75.3593L113.567 24.1765L150.383 26.6718L146.914 77.8546L110.099 75.3593Z" fill="white"/>
</mask>
<g mask="url(#mask132_344_21368)">
<path d="M129.294 40.6781C129.345 40.6516 128.919 40.2609 128.855 40.2125C128.669 40.0719 128.464 39.9594 128.227 39.9438C127.995 39.9297 127.795 40.0156 127.599 40.1297C127.339 40.2828 126.816 40.6125 126.855 39.9969C126.889 39.4516 126.044 39.5141 126.009 40.0547C125.958 40.8797 126.834 41.4766 127.577 41.15C127.774 41.0625 128.028 40.7766 128.263 40.8297C128.43 40.8688 128.639 41.1813 128.778 41.2906C129.1 41.5391 129.402 41.5813 129.761 41.3891C130.244 41.1313 129.772 40.4234 129.294 40.6781Z" fill="#48CDDF"/>
</g>
</g>
</g>
</g>
<mask id="mask133_344_21368" style="mask-type:luminance" maskUnits="userSpaceOnUse" x="143" y="46" width="3" height="2">
<path d="M143.7 46.4H145.3V48H143.7V46.4Z" fill="white"/>
</mask>
<g mask="url(#mask133_344_21368)">
<mask id="mask134_344_21368" style="mask-type:luminance" maskUnits="userSpaceOnUse" x="110" y="24" width="41" height="54">
<path d="M110.099 75.3594L113.567 24.1766L150.383 26.6719L146.914 77.8548L110.099 75.3594Z" fill="white"/>
</mask>
<g mask="url(#mask134_344_21368)">
<mask id="mask135_344_21368" style="mask-type:luminance" maskUnits="userSpaceOnUse" x="110" y="24" width="41" height="54">
<path d="M110.099 75.3594L113.567 24.1766L150.383 26.6719L146.914 77.8548L110.099 75.3594Z" fill="white"/>
</mask>
<g mask="url(#mask135_344_21368)">
<mask id="mask136_344_21368" style="mask-type:luminance" maskUnits="userSpaceOnUse" x="110" y="24" width="41" height="54">
<path d="M110.099 75.3594L113.567 24.1766L150.383 26.6719L146.914 77.8548L110.099 75.3594Z" fill="white"/>
</mask>
<g mask="url(#mask136_344_21368)">
<path d="M144.536 46.7126C144.27 46.6954 144.041 46.8969 144.022 47.1641C144.005 47.4313 144.205 47.6626 144.47 47.6813C144.736 47.7001 144.966 47.4969 144.985 47.2298C145.002 46.9626 144.802 46.7313 144.536 46.7126Z" fill="#FF9241"/>
</g>
</g>
</g>
</g>
<mask id="mask137_344_21368" style="mask-type:luminance" maskUnits="userSpaceOnUse" x="132" y="25" width="3" height="2">
<path d="M132.9 25.2H134.5V26.8H132.9V25.2Z" fill="white"/>
</mask>
<g mask="url(#mask137_344_21368)">
<mask id="mask138_344_21368" style="mask-type:luminance" maskUnits="userSpaceOnUse" x="110" y="24" width="41" height="54">
<path d="M110.098 75.3593L113.567 24.1765L150.383 26.6718L146.914 77.8546L110.098 75.3593Z" fill="white"/>
</mask>
<g mask="url(#mask138_344_21368)">
<mask id="mask139_344_21368" style="mask-type:luminance" maskUnits="userSpaceOnUse" x="110" y="24" width="41" height="54">
<path d="M110.098 75.3593L113.567 24.1765L150.383 26.6718L146.914 77.8546L110.098 75.3593Z" fill="white"/>
</mask>
<g mask="url(#mask139_344_21368)">
<mask id="mask140_344_21368" style="mask-type:luminance" maskUnits="userSpaceOnUse" x="110" y="24" width="41" height="54">
<path d="M110.098 75.3593L113.567 24.1765L150.383 26.6718L146.914 77.8546L110.098 75.3593Z" fill="white"/>
</mask>
<g mask="url(#mask140_344_21368)">
<path d="M133.698 25.5328C133.433 25.5156 133.202 25.7171 133.184 25.9843C133.166 26.2515 133.367 26.4828 133.633 26.5015C133.898 26.5187 134.128 26.3171 134.145 26.0499C134.164 25.7828 133.964 25.5515 133.698 25.5328Z" fill="#48CDDF"/>
</g>
</g>
</g>
</g>
<mask id="mask141_344_21368" style="mask-type:luminance" maskUnits="userSpaceOnUse" x="116" y="69" width="3" height="3">
<path d="M116.5 69.6H118.1V71.2H116.5V69.6Z" fill="white"/>
</mask>
<g mask="url(#mask141_344_21368)">
<mask id="mask142_344_21368" style="mask-type:luminance" maskUnits="userSpaceOnUse" x="110" y="24" width="41" height="54">
<path d="M110.099 75.3593L113.567 24.1765L150.383 26.6718L146.914 77.8546L110.099 75.3593Z" fill="white"/>
</mask>
<g mask="url(#mask142_344_21368)">
<mask id="mask143_344_21368" style="mask-type:luminance" maskUnits="userSpaceOnUse" x="110" y="24" width="41" height="54">
<path d="M110.099 75.3593L113.567 24.1765L150.383 26.6718L146.914 77.8546L110.099 75.3593Z" fill="white"/>
</mask>
<g mask="url(#mask143_344_21368)">
<mask id="mask144_344_21368" style="mask-type:luminance" maskUnits="userSpaceOnUse" x="110" y="24" width="41" height="54">
<path d="M110.099 75.3593L113.567 24.1765L150.383 26.6718L146.914 77.8546L110.099 75.3593Z" fill="white"/>
</mask>
<g mask="url(#mask144_344_21368)">
<path d="M117.341 69.9844C117.075 69.9656 116.846 70.1687 116.827 70.4359C116.808 70.7031 117.01 70.9344 117.275 70.9531C117.541 70.9703 117.771 70.7687 117.789 70.5015C117.807 70.2344 117.607 70.0015 117.341 69.9844Z" fill="#FF9241"/>
</g>
</g>
</g>
</g>
<mask id="mask145_344_21368" style="mask-type:luminance" maskUnits="userSpaceOnUse" x="122" y="32" width="3" height="3">
<path d="M122.9 32.8H124.5V34.4001H122.9V32.8Z" fill="white"/>
</mask>
<g mask="url(#mask145_344_21368)">
<mask id="mask146_344_21368" style="mask-type:luminance" maskUnits="userSpaceOnUse" x="110" y="24" width="41" height="54">
<path d="M110.098 75.3595L113.567 24.1766L150.383 26.6719L146.914 77.8548L110.098 75.3595Z" fill="white"/>
</mask>
<g mask="url(#mask146_344_21368)">
<mask id="mask147_344_21368" style="mask-type:luminance" maskUnits="userSpaceOnUse" x="110" y="24" width="41" height="54">
<path d="M110.098 75.3595L113.567 24.1766L150.383 26.6719L146.914 77.8548L110.098 75.3595Z" fill="white"/>
</mask>
<g mask="url(#mask147_344_21368)">
<mask id="mask148_344_21368" style="mask-type:luminance" maskUnits="userSpaceOnUse" x="110" y="24" width="41" height="54">
<path d="M110.098 75.3595L113.567 24.1766L150.383 26.6719L146.914 77.8548L110.098 75.3595Z" fill="white"/>
</mask>
<g mask="url(#mask148_344_21368)">
<path d="M123.798 33.0408C123.533 33.022 123.303 33.2251 123.284 33.4923C123.267 33.7595 123.467 33.9908 123.733 34.0079C123.998 34.0267 124.23 33.8251 124.247 33.5579C124.265 33.2892 124.064 33.0595 123.798 33.0408Z" fill="#FE4C6F"/>
</g>
</g>
</g>
</g>
<mask id="mask149_344_21368" style="mask-type:luminance" maskUnits="userSpaceOnUse" x="120" y="56" width="3" height="2">
<path d="M120.9 56H122.9V58H120.9V56Z" fill="white"/>
</mask>
<g mask="url(#mask149_344_21368)">
<mask id="mask150_344_21368" style="mask-type:luminance" maskUnits="userSpaceOnUse" x="110" y="24" width="41" height="54">
<path d="M110.098 75.3593L113.567 24.1765L150.383 26.6718L146.914 77.8546L110.098 75.3593Z" fill="white"/>
</mask>
<g mask="url(#mask150_344_21368)">
<mask id="mask151_344_21368" style="mask-type:luminance" maskUnits="userSpaceOnUse" x="110" y="24" width="41" height="54">
<path d="M110.098 75.3593L113.567 24.1765L150.383 26.6718L146.914 77.8546L110.098 75.3593Z" fill="white"/>
</mask>
<g mask="url(#mask151_344_21368)">
<mask id="mask152_344_21368" style="mask-type:luminance" maskUnits="userSpaceOnUse" x="110" y="24" width="41" height="54">
<path d="M110.098 75.3593L113.567 24.1765L150.383 26.6718L146.914 77.8546L110.098 75.3593Z" fill="white"/>
</mask>
<g mask="url(#mask152_344_21368)">
<path d="M121.971 56.1906C121.564 56.1625 121.211 56.4734 121.182 56.8828C121.154 57.2937 121.464 57.6484 121.87 57.6765C122.278 57.7031 122.631 57.3937 122.659 56.9828C122.687 56.5734 122.379 56.2187 121.971 56.1906Z" fill="#FFD939"/>
</g>
</g>
</g>
</g>
<mask id="mask153_344_21368" style="mask-type:luminance" maskUnits="userSpaceOnUse" x="136" y="66" width="3" height="2">
<path d="M136.9 66.4H138.9V68H136.9V66.4Z" fill="white"/>
</mask>
<g mask="url(#mask153_344_21368)">
<mask id="mask154_344_21368" style="mask-type:luminance" maskUnits="userSpaceOnUse" x="110" y="24" width="41" height="54">
<path d="M110.098 75.3593L113.567 24.1765L150.383 26.6718L146.914 77.8546L110.098 75.3593Z" fill="white"/>
</mask>
<g mask="url(#mask154_344_21368)">
<mask id="mask155_344_21368" style="mask-type:luminance" maskUnits="userSpaceOnUse" x="110" y="24" width="41" height="54">
<path d="M110.098 75.3593L113.567 24.1765L150.383 26.6718L146.914 77.8546L110.098 75.3593Z" fill="white"/>
</mask>
<g mask="url(#mask155_344_21368)">
<mask id="mask156_344_21368" style="mask-type:luminance" maskUnits="userSpaceOnUse" x="110" y="24" width="41" height="54">
<path d="M110.098 75.3593L113.567 24.1765L150.383 26.6718L146.914 77.8546L110.098 75.3593Z" fill="white"/>
</mask>
<g mask="url(#mask156_344_21368)">
<path d="M137.839 66.5062C137.431 66.478 137.078 66.789 137.05 67.1983C137.022 67.6093 137.329 67.964 137.737 67.9921C138.145 68.0187 138.498 67.7093 138.526 67.2983C138.554 66.889 138.247 66.5343 137.839 66.5062Z" fill="#FE4C6F"/>
</g>
</g>
</g>
</g>
<mask id="mask157_344_21368" style="mask-type:luminance" maskUnits="userSpaceOnUse" x="140" y="36" width="3" height="2">
<path d="M140.5 36H142.5V38H140.5V36Z" fill="white"/>
</mask>
<g mask="url(#mask157_344_21368)">
<mask id="mask158_344_21368" style="mask-type:luminance" maskUnits="userSpaceOnUse" x="110" y="24" width="41" height="54">
<path d="M110.099 75.3593L113.567 24.1765L150.383 26.6718L146.914 77.8546L110.099 75.3593Z" fill="white"/>
</mask>
<g mask="url(#mask158_344_21368)">
<mask id="mask159_344_21368" style="mask-type:luminance" maskUnits="userSpaceOnUse" x="110" y="24" width="41" height="54">
<path d="M110.099 75.3593L113.567 24.1765L150.383 26.6718L146.914 77.8546L110.099 75.3593Z" fill="white"/>
</mask>
<g mask="url(#mask159_344_21368)">
<mask id="mask160_344_21368" style="mask-type:luminance" maskUnits="userSpaceOnUse" x="110" y="24" width="41" height="54">
<path d="M110.099 75.3593L113.567 24.1765L150.383 26.6718L146.914 77.8546L110.099 75.3593Z" fill="white"/>
</mask>
<g mask="url(#mask160_344_21368)">
<path d="M141.502 36.25C141.094 36.2234 140.741 36.5328 140.713 36.9438C140.685 37.3531 140.992 37.7078 141.4 37.7359C141.808 37.7641 142.161 37.4531 142.189 37.0438C142.217 36.6328 141.91 36.2781 141.502 36.25Z" fill="#7870DE"/>
</g>
</g>
</g>
</g>
</g>
<defs>
<clipPath id="clip0_344_21368">
<rect width="150" height="150" fill="white" transform="translate(0.5)"/>
</clipPath>
</defs>
</svg>
