<svg width="150" height="150" viewBox="0 0 150 150" fill="none" xmlns="http://www.w3.org/2000/svg">
<g clip-path="url(#clip0_344_22109)">
<path d="M98.9996 64.0969C103.497 60.5282 106.704 56.6891 108.534 52.6688C110.932 47.4204 110.932 41.811 108.445 35.9329C100.768 18.5969 82.5668 0.329743 49.3434 14.7266C25.6262 24.9844 21.6371 45.4407 25.5356 61.4579C27.0652 67.6672 29.0137 73.2454 32.7324 77.1454C36.2106 80.8032 41.2184 82.9641 48.834 82.8141C51.0231 82.7829 53.4215 82.5438 56.0902 82.0938L55.6402 82.2735C55.6402 82.2735 55.2512 96.4907 61.4871 103.63C67.7246 110.767 78.309 108.849 89.0434 105.428C99.2981 102.159 110.214 94.3016 111.503 85.5126C112.732 77.0251 105.506 66.886 98.9996 64.0969Z" fill="white"/>
<path d="M63.5566 49.55C63.5566 49.55 66.5254 54.6484 68.9254 54.0188C71.3238 53.3891 69.4051 47.2109 69.4051 47.2109L65.716 46.4609L63.5566 49.55Z" fill="#FFA4A4"/>
<path d="M46.1063 61.7579C46.1063 62.0532 46.0906 62.3485 46.0625 62.6422C46.0328 62.9375 45.9906 63.2297 45.9328 63.5188C45.875 63.8094 45.8031 64.0954 45.7172 64.3782C45.6313 64.661 45.5312 64.9391 45.4188 65.2126C45.3062 65.486 45.1797 65.7532 45.0406 66.0141C44.9 66.2751 44.7484 66.5282 44.5844 66.7735C44.4203 67.0188 44.2437 67.2563 44.0562 67.4844C43.8688 67.7141 43.6719 67.9329 43.4625 68.1422C43.2531 68.35 43.0344 68.5485 42.8063 68.736C42.5781 68.9235 42.3406 69.1 42.0938 69.2641C41.8484 69.4282 41.5953 69.5797 41.3344 69.7204C41.0734 69.8594 40.8078 69.986 40.5344 70.0985C40.2609 70.2126 39.9828 70.311 39.7 70.3969C39.4172 70.4829 39.1313 70.5547 38.8406 70.6126C38.5516 70.6704 38.2594 70.7141 37.9641 70.7422C37.6703 70.7719 37.375 70.786 37.0797 70.786C36.7844 70.786 36.4891 70.7719 36.1953 70.7422C35.9016 70.7141 35.6094 70.6704 35.3187 70.6126C35.0297 70.5547 34.7438 70.4829 34.4609 70.3969C34.1766 70.311 33.9 70.2126 33.6266 70.0985C33.3531 69.986 33.0859 69.8594 32.825 69.7204C32.5656 69.5797 32.3109 69.4282 32.0656 69.2641C31.8203 69.1 31.5828 68.9235 31.3547 68.736C31.1266 68.5485 30.9078 68.35 30.6984 68.1422C30.4891 67.9329 30.2906 67.7141 30.1031 67.4844C29.9156 67.2563 29.7406 67.0188 29.575 66.7735C29.4109 66.5282 29.2594 66.2751 29.1203 66.0141C28.9813 65.7532 28.8547 65.486 28.7422 65.2126C28.6281 64.9391 28.5297 64.661 28.4437 64.3782C28.3578 64.0954 28.2859 63.8094 28.2281 63.5188C28.1703 63.2297 28.1266 62.9375 28.0984 62.6422C28.0687 62.3485 28.0547 62.0532 28.0547 61.7579C28.0547 61.4626 28.0687 61.1672 28.0984 60.8735C28.1266 60.5782 28.1703 60.286 28.2281 59.9969C28.2859 59.7063 28.3578 59.4204 28.4437 59.1375C28.5297 58.8547 28.6281 58.5766 28.7422 58.3032C28.8547 58.0297 28.9813 57.7625 29.1203 57.5016C29.2594 57.2407 29.4109 56.9875 29.575 56.7422C29.7406 56.4954 29.9156 56.2594 30.1031 56.0297C30.2906 55.8016 30.4891 55.5829 30.6984 55.3735C30.9078 55.1641 31.1266 54.9657 31.3547 54.7782C31.5828 54.5907 31.8203 54.4157 32.0656 54.2516C32.3109 54.086 32.5656 53.9344 32.825 53.7954C33.0859 53.6563 33.3531 53.5297 33.6266 53.4172C33.9 53.3032 34.1766 53.2047 34.4609 53.1188C34.7438 53.0329 35.0297 52.961 35.3187 52.9032C35.6094 52.8454 35.9016 52.8016 36.1953 52.7735C36.4891 52.7438 36.7844 52.7297 37.0797 52.7297C37.375 52.7297 37.6703 52.7438 37.9641 52.7735C38.2594 52.8016 38.5516 52.8454 38.8406 52.9032C39.1313 52.961 39.4172 53.0329 39.7 53.1188C39.9828 53.2047 40.2609 53.3032 40.5344 53.4172C40.8078 53.5297 41.0734 53.6563 41.3344 53.7954C41.5953 53.9344 41.8484 54.086 42.0938 54.2516C42.3406 54.4157 42.5781 54.5907 42.8063 54.7782C43.0344 54.9657 43.2531 55.1641 43.4625 55.3735C43.6719 55.5829 43.8688 55.8016 44.0562 56.0297C44.2437 56.2594 44.4203 56.4954 44.5844 56.7422C44.7484 56.9875 44.9 57.2407 45.0406 57.5016C45.1797 57.7625 45.3062 58.0297 45.4188 58.3032C45.5312 58.5766 45.6313 58.8547 45.7172 59.1375C45.8031 59.4204 45.875 59.7063 45.9328 59.9969C45.9906 60.286 46.0328 60.5782 46.0625 60.8735C46.0906 61.1672 46.1063 61.4626 46.1063 61.7579Z" fill="#FBBFD4"/>
<path d="M97.4793 26.9078C97.7715 26.9562 98.059 27.0171 98.3449 27.0921C98.6309 27.1687 98.9121 27.2578 99.1887 27.3609C99.4668 27.4656 99.7371 27.5812 100.003 27.7109C100.268 27.8421 100.526 27.9843 100.778 28.1406C101.029 28.2953 101.273 28.4625 101.507 28.6421C101.743 28.8218 101.968 29.0125 102.186 29.214C102.401 29.4156 102.607 29.6265 102.803 29.8484C102.998 30.0703 103.182 30.3015 103.356 30.5406C103.528 30.7812 103.689 31.0281 103.837 31.2843C103.986 31.5406 104.122 31.8015 104.243 32.0718C104.367 32.3406 104.476 32.614 104.572 32.8937C104.667 33.1734 104.75 33.4578 104.817 33.7453C104.886 34.0328 104.939 34.3234 104.978 34.6171C105.017 34.9093 105.042 35.2046 105.053 35.5C105.064 35.7953 105.059 36.0906 105.04 36.3859C105.023 36.6812 104.989 36.9734 104.942 37.2656C104.895 37.5578 104.832 37.8468 104.757 38.1328C104.682 38.4187 104.592 38.7 104.489 38.9765C104.386 39.2531 104.268 39.525 104.139 39.7906C104.009 40.0562 103.865 40.314 103.711 40.5656C103.556 40.8171 103.387 41.0609 103.209 41.2968C103.029 41.5312 102.839 41.7562 102.637 41.9734C102.436 42.189 102.225 42.3953 102.003 42.5906C101.781 42.7875 101.55 42.9703 101.311 43.1437C101.07 43.3171 100.823 43.4781 100.567 43.6265C100.312 43.775 100.05 43.9109 99.7809 44.0328C99.5121 44.1562 99.2371 44.2656 98.9574 44.3609C98.6778 44.4562 98.3949 44.539 98.1059 44.6062C97.8184 44.6749 97.5278 44.7281 97.2356 44.7671C96.9418 44.8062 96.6481 44.8312 96.3528 44.8421C96.0574 44.8531 95.7621 44.8484 95.4668 44.8296C95.1731 44.8109 94.8793 44.7781 94.5871 44.7312C94.2949 44.6843 94.0059 44.6218 93.7215 44.5468C93.4356 44.4703 93.1543 44.3812 92.8762 44.2781C92.5996 44.1749 92.3293 44.0578 92.0637 43.9281C91.7981 43.7968 91.5387 43.6546 91.2887 43.5C91.0371 43.3437 90.7934 43.1765 90.559 42.9968C90.3231 42.8171 90.0981 42.6281 89.8809 42.4265C89.6653 42.225 89.459 42.0125 89.2637 41.7906C89.0684 41.5687 88.884 41.3375 88.7106 41.0984C88.5387 40.8578 88.3778 40.6109 88.2293 40.3546C88.0809 40.0999 87.9449 39.8375 87.8231 39.5687C87.6996 39.2984 87.5903 39.025 87.4949 38.7453C87.3981 38.4656 87.3168 38.1812 87.2496 37.8937C87.1809 37.6062 87.1278 37.3156 87.0887 37.0218C87.0481 36.7296 87.0231 36.4343 87.0137 36.139C87.0028 35.8437 87.0074 35.5484 87.0246 35.2531C87.0434 34.9593 87.0762 34.6656 87.1246 34.3734C87.1715 34.0812 87.2324 33.7921 87.309 33.5062C87.384 33.2203 87.4746 32.939 87.5778 32.6625C87.6809 32.3859 87.7981 32.114 87.9278 31.8484C88.0574 31.5828 88.1996 31.325 88.3559 31.0734C88.5106 30.8218 88.6778 30.5781 88.8574 30.3437C89.0371 30.1078 89.2278 29.8828 89.4293 29.6656C89.6309 29.45 89.8418 29.2437 90.0637 29.0484C90.2856 28.8531 90.5168 28.6687 90.7559 28.4953C90.9965 28.3218 91.2434 28.1625 91.4996 28.014C91.7543 27.864 92.0168 27.7296 92.2856 27.6062C92.5543 27.4843 92.8293 27.375 93.109 27.2781C93.3887 27.1828 93.6715 27.1015 93.959 27.0328C94.2481 26.9656 94.5371 26.9109 94.8309 26.8718C95.1231 26.8328 95.4184 26.8078 95.7137 26.7968C96.009 26.7859 96.3043 26.7906 96.5996 26.8093C96.8934 26.8281 97.1871 26.8609 97.4793 26.9078Z" fill="#FBBFD4"/>
<path d="M50.6326 38.6328C47.3342 36.7125 42.5076 38.9015 39.8092 43.5218C37.1092 48.1406 37.5905 53.4187 40.8873 55.3687C44.1858 57.289 49.0139 55.0984 51.7123 50.4796C54.3811 45.8609 53.9014 40.5515 50.6326 38.6328Z" fill="#333652"/>
<path d="M77.9207 39.4125C83.1675 40.4015 87.9957 38.1828 88.7144 34.4328C89.4347 30.6843 85.7457 26.8453 80.4988 25.8546C75.2519 24.8656 70.4238 27.0843 69.7035 30.8343C69.0144 34.5828 72.6722 38.4218 77.9207 39.4125Z" fill="#333652"/>
<path d="M62.358 50.8704C62.4173 50.8704 62.4783 50.8704 62.5377 50.8391C62.7767 50.7797 63.0173 50.6907 63.258 50.6C64.1861 52.0391 66.2861 54.8891 68.5048 54.8891C68.7142 54.8891 68.9252 54.8594 69.1345 54.7985C69.7033 54.6485 70.1845 54.2594 70.483 53.7188C71.3533 52.1594 70.783 49.2204 70.3939 47.7797C70.6642 47.661 70.933 47.511 71.2033 47.3313C71.5923 47.0907 71.683 46.5813 71.4127 46.1907C71.1439 45.8016 70.633 45.711 70.2736 45.9813C70.0033 46.161 69.7033 46.311 69.4048 46.4C69.3142 46.4 69.2236 46.4 69.1345 46.4313C69.0736 46.461 69.0142 46.461 68.9845 46.4907C68.1142 46.6407 67.2158 46.4 66.4955 45.861C67.2455 45.111 67.5455 44.0016 67.3955 43.6407C67.1845 43.1907 65.9564 43.4016 64.6064 43.9719C63.258 44.5407 62.2377 45.2907 62.447 45.7407C62.597 46.0704 63.497 46.611 64.5173 46.6407C64.3361 47.9 63.4064 48.95 62.1173 49.25C61.6673 49.3407 61.3986 49.7907 61.5173 50.2407C61.6377 50.6 61.9986 50.8704 62.358 50.8704ZM69.0439 52.9391C68.9252 53.15 68.8048 53.2094 68.7142 53.2391C67.6048 53.5094 65.7767 51.5 64.6361 49.7594C65.2955 49.161 65.7767 48.411 66.0158 47.5407C66.8548 48.0204 67.8142 48.2297 68.7752 48.1704C69.2236 49.7594 69.5548 52.0094 69.0439 52.9391Z" fill="#333652"/>
<path d="M106.466 96.0703C109.914 92.5016 111.863 88.7828 112.313 85.6328C113.513 77.4141 107.066 67.5172 100.469 63.9469C104.577 60.4984 107.545 56.8391 109.284 53C111.774 47.45 111.713 41.6313 109.075 35.6625C107.634 32.3641 105.595 28.5547 102.808 24.8344C104.756 23.3656 106.136 21.1453 106.855 18.2969C107.755 14.7578 106.975 11.0984 104.577 7.73906C101.608 3.53906 96.511 0.45 93.6314 0.179688L93.3923 0.15C92.7329 0.0906248 91.8329 0 90.7829 0C87.4845 0 82.7782 0.9 79.2095 6.23906C78.5798 7.16875 78.1595 8.18906 77.8892 9.20781C69.1939 7.82813 59.5095 9.44844 48.9548 14.0078C41.7282 17.1266 36.4501 21.0562 32.6423 25.3453C25.236 22.3453 20.1392 26.275 17.9204 27.9844L17.7095 28.1641C15.4017 29.9344 12.7626 35.3031 12.522 40.4313C12.3126 44.5703 13.6017 48.05 16.2704 50.5703C18.5189 52.7 21.0079 53.8391 23.5564 53.9297C23.797 57.1984 24.3064 59.8984 24.7267 61.6672C26.586 69.3766 29.2845 77.0547 36.3001 80.9844C39.4798 82.7531 43.4064 83.6531 48.1142 83.6531C50.1845 83.6531 52.4329 83.4734 54.8314 83.1141C54.861 86.3531 55.311 97.8109 60.8876 104.169C64.186 107.948 68.6548 109.298 73.5423 109.298C75.2814 109.298 77.0798 109.119 78.9095 108.848C80.9782 111.367 86.7954 117.577 91.6236 115.267C96.6001 112.897 93.6923 106.959 92.5829 105.039C93.3626 104.739 94.111 104.409 94.861 104.08C95.7907 106.478 98.5798 112.178 103.408 110.019C108.114 107.889 107.125 99.55 106.466 96.0703ZM37.0798 79.5141C30.6032 75.8844 28.0845 68.5969 26.286 61.2484C25.8657 59.5688 25.386 56.9891 25.147 53.8391C25.1157 53.5688 25.1157 53.3 25.086 53.0297C25.086 52.7594 25.0564 52.4891 25.0564 52.2203C25.0564 51.7703 25.0267 51.2891 25.0267 50.7797C25.0267 43.8516 26.6751 35.0938 33.0626 27.3547C33.2423 27.1453 33.422 26.9344 33.6017 26.725C33.7814 26.5141 33.9626 26.3047 34.1423 26.0953C37.7704 22.1063 42.7767 18.4156 49.5845 15.4766C57.4704 12.0578 64.8767 10.3484 71.6829 10.3484C73.722 10.3484 75.7017 10.4984 77.6501 10.7984C77.9204 10.8281 78.1892 10.8875 78.4595 10.9484C78.7298 11.0078 79.0001 11.0672 79.2689 11.0984C82.297 11.7281 85.2064 12.7469 87.9642 14.1578C93.122 16.7969 97.1704 20.4563 100.319 24.325C100.499 24.5344 100.678 24.775 100.828 24.9844C101.008 25.1953 101.188 25.4344 101.338 25.6453C104.067 29.2734 106.075 33.0234 107.484 36.2625C109.914 41.7813 109.974 47.1813 107.695 52.2797C106.225 55.5484 103.767 58.7281 100.378 61.7281C100.499 58.4578 99.9595 55.5187 96.9298 54.8594C93.1517 54.0484 88.6251 60.5578 87.9345 70.0656C82.3876 72.975 75.7907 75.675 68.2642 78.1047C67.6048 78.3141 66.9751 78.525 66.3454 78.7047C63.347 75.7047 58.9689 72.975 55.2814 72.225C54.861 72.1359 51.5923 72.0156 50.3939 73.3359C48.6845 75.225 50.0939 79.0047 53.6017 81.5844C46.6751 82.5141 41.1876 81.8234 37.0798 79.5141ZM62.1173 103.089C59.1485 99.6703 57.7407 94.5109 57.0501 90.1922C63.0173 91.4219 73.7814 88.3016 87.0657 81.9734C98.5798 76.4844 103.167 71.3859 104.547 69.2859C108.505 73.6359 111.444 80.0234 110.694 85.3625C109.464 93.7906 98.7595 101.439 88.8048 104.619C79.0001 107.769 68.1751 110.048 62.1173 103.089Z" fill="#333652"/>
<path d="M115.702 135.483C115.731 135.903 116.091 136.233 116.511 136.233C116.541 136.233 116.57 136.233 116.6 136.233C117.05 136.203 117.38 135.783 117.35 135.333C116.15 122.406 105.895 116.167 105.445 115.927C105.056 115.688 104.547 115.838 104.306 116.227C104.067 116.617 104.217 117.127 104.606 117.367C104.697 117.397 114.592 123.366 115.702 135.483Z" fill="#333652"/>
<path d="M110.124 112.387C109.853 112.747 109.914 113.258 110.274 113.527C110.364 113.587 119.36 120.486 121.369 132.244C121.428 132.633 121.788 132.933 122.178 132.933C122.238 132.933 122.268 132.933 122.328 132.933C122.778 132.844 123.077 132.423 122.988 131.973C120.858 119.556 111.653 112.508 111.263 112.208C110.903 111.967 110.394 112.028 110.124 112.387Z" fill="#333652"/>
<mask id="mask0_344_22109" style="mask-type:luminance" maskUnits="userSpaceOnUse" x="106" y="124" width="32" height="26">
<path d="M106.4 124.8H137.682V150H106.4V124.8Z" fill="white"/>
</mask>
<g mask="url(#mask0_344_22109)">
<path d="M137.651 132.694C137.651 130.055 135.462 127.564 131.084 125.284C130.695 125.075 130.185 125.225 129.974 125.645C129.765 126.034 129.915 126.545 130.335 126.755C134.052 128.705 136.032 130.773 136.032 132.723C136.032 135.483 132.193 137.522 132.134 137.522C131.804 137.703 131.624 138.092 131.713 138.483C131.743 138.542 133.184 144.002 129.674 145.831C124.937 148.261 121.338 144.57 121.188 144.422C120.979 144.211 120.709 144.122 120.409 144.181C120.14 144.241 119.899 144.452 119.81 144.72C119.81 144.752 119.06 146.97 117.021 147.9C115.641 148.53 113.932 148.441 111.984 147.661C110.215 146.941 109.106 145.831 108.535 144.272C107.066 140.252 109.974 134.703 110.004 134.644C110.215 134.253 110.065 133.744 109.674 133.533C109.285 133.323 108.776 133.473 108.565 133.862C108.446 134.103 105.298 140.102 107.006 144.811C107.726 146.82 109.195 148.291 111.384 149.191C112.673 149.73 113.902 150 115.041 150C116.002 150 116.931 149.791 117.771 149.4C119.42 148.62 120.409 147.27 120.92 146.311C122.538 147.511 126.137 149.52 130.484 147.27C134.382 145.261 133.843 140.402 133.513 138.662C134.682 137.853 137.621 135.723 137.651 132.694Z" fill="#333652"/>
</g>
</g>
<defs>
<clipPath id="clip0_344_22109">
<rect width="150" height="150" fill="white"/>
</clipPath>
</defs>
</svg>
