<svg width="151" height="150" viewBox="0 0 151 150" fill="none" xmlns="http://www.w3.org/2000/svg">
<g clip-path="url(#clip0_344_22316)">
<path d="M134.633 69.1625C133.167 76.9125 129.276 82.5688 123.231 86.2188C117.816 89.511 110.692 91.1563 102.014 91.2766C99.6202 91.3063 97.1062 91.2157 94.4733 91.0063L96.2983 91.425C101.716 94.6266 106.862 109.109 102.553 119.105C98.214 129.069 83.2499 126.166 83.2499 126.166C83.2499 126.166 72.8968 124.461 64.9358 123.144C56.9452 121.797 44.8858 120.6 43.8983 109.05C42.9108 97.5 57.9937 82.6875 57.9937 82.6875C51.4093 80.3235 46.203 77.811 42.1327 75.1172C35.9077 71.0188 32.4062 66.5594 30.7608 61.8313C30.3421 60.6344 30.0421 59.4375 29.8327 58.211C29.0546 53.4235 29.8624 48.3657 31.4499 43.1C32.0171 41.2141 32.6765 39.3297 33.3937 37.3844C40.5468 18.5328 58.7718 0.698466 89.7749 6.77347C133.256 15.3313 138.972 46.361 134.633 69.1625Z" fill="white"/>
<path d="M47.9691 52.7047C47.9691 58.8094 43.0316 63.7469 36.9253 63.7469C34.6222 63.7469 32.4972 63.0578 30.7316 61.8313C30.3128 60.6344 30.0128 59.4375 29.8034 58.211C29.0253 53.4235 29.8331 48.3656 31.4191 43.1C33.0363 42.1719 34.9206 41.6344 36.8956 41.6344C43.0316 41.6641 47.9691 46.6313 47.9691 52.7047Z" fill="#FBBFD4"/>
<path d="M128.888 73.0532C128.888 73.4141 128.871 73.775 128.835 74.1344C128.799 74.4954 128.746 74.8516 128.675 75.2063C128.605 75.561 128.517 75.9125 128.413 76.2579C128.308 76.6047 128.186 76.9438 128.047 77.2782C127.908 77.6125 127.755 77.9391 127.585 78.2579C127.413 78.5766 127.228 78.886 127.027 79.1875C126.825 79.4875 126.611 79.7782 126.381 80.0579C126.152 80.3375 125.91 80.6047 125.653 80.861C125.397 81.1157 125.13 81.3579 124.85 81.5875C124.571 81.8172 124.281 82.0329 123.98 82.2329C123.68 82.4344 123.369 82.6204 123.05 82.7907C122.731 82.961 122.405 83.1157 122.071 83.2532C121.736 83.3922 121.397 83.5141 121.05 83.6188C120.705 83.7235 120.355 83.811 120 83.8829C119.646 83.9532 119.288 84.0063 118.927 84.0407C118.567 84.0766 118.206 84.0938 117.846 84.0938C117.483 84.0938 117.122 84.0766 116.763 84.0407C116.403 84.0063 116.046 83.9532 115.691 83.8829C115.336 83.811 114.986 83.7235 114.639 83.6188C114.294 83.5141 113.953 83.3922 113.619 83.2532C113.285 83.1157 112.958 82.961 112.639 82.7907C112.321 82.6204 112.011 82.4344 111.71 82.2329C111.41 82.0329 111.119 81.8172 110.839 81.5875C110.56 81.3579 110.292 81.1157 110.036 80.861C109.781 80.6047 109.539 80.3375 109.31 80.0579C109.08 79.7782 108.864 79.4875 108.664 79.1875C108.463 78.886 108.277 78.5766 108.106 78.2579C107.936 77.9391 107.781 77.6125 107.642 77.2782C107.505 76.9438 107.383 76.6047 107.278 76.2579C107.174 75.9125 107.085 75.561 107.014 75.2063C106.944 74.8516 106.891 74.4954 106.856 74.1344C106.821 73.775 106.802 73.4141 106.802 73.0532C106.802 72.6907 106.821 72.3297 106.856 71.9704C106.891 71.611 106.944 71.2532 107.014 70.8985C107.085 70.5438 107.174 70.1938 107.278 69.8469C107.383 69.5016 107.505 69.161 107.642 68.8266C107.781 68.4938 107.936 68.1672 108.106 67.8485C108.277 67.5282 108.463 67.2188 108.664 66.9188C108.864 66.6172 109.08 66.3282 109.31 66.0485C109.539 65.7688 109.781 65.5016 110.036 65.2454C110.292 64.9891 110.56 64.7469 110.839 64.5172C111.119 64.2875 111.41 64.0735 111.71 63.8719C112.011 63.6719 112.321 63.486 112.639 63.3157C112.958 63.1438 113.285 62.9907 113.619 62.8516C113.953 62.7125 114.294 62.5922 114.639 62.486C114.986 62.3813 115.336 62.2938 115.691 62.2235C116.046 62.1532 116.403 62.1 116.763 62.0641C117.122 62.0282 117.483 62.011 117.846 62.011C118.206 62.011 118.567 62.0282 118.927 62.0641C119.288 62.1 119.646 62.1532 120 62.2235C120.355 62.2938 120.705 62.3813 121.05 62.486C121.397 62.5922 121.736 62.7125 122.071 62.8516C122.405 62.9907 122.731 63.1438 123.05 63.3157C123.369 63.486 123.68 63.6719 123.98 63.8719C124.281 64.0735 124.571 64.2875 124.85 64.5172C125.13 64.7469 125.397 64.9891 125.653 65.2454C125.91 65.5016 126.152 65.7688 126.381 66.0485C126.611 66.3282 126.825 66.6172 127.027 66.9188C127.228 67.2188 127.413 67.5282 127.585 67.8485C127.755 68.1672 127.908 68.4938 128.047 68.8266C128.186 69.161 128.308 69.5016 128.413 69.8469C128.517 70.1938 128.605 70.5438 128.675 70.8985C128.746 71.2532 128.799 71.611 128.835 71.9704C128.871 72.3297 128.888 72.6907 128.888 73.0532Z" fill="#FBBFD4"/>
<path d="M76.2786 58.1516L72.6583 60.186C72.6583 60.186 72.2989 66.4391 74.513 66.5C76.6974 66.5594 79.1521 61.8016 79.1521 61.8016L76.2786 58.1516Z" fill="#FFA4A4"/>
<path d="M27.38 54.5C27.5893 52.5563 24.7456 50.6109 21.005 50.1922C20.1675 50.1016 19.33 50.0719 18.4925 50.1609C18.9706 49.4734 19.3893 48.7547 19.7487 47.9766C21.3347 44.5359 21.155 41.0953 19.3893 40.2875C17.6237 39.4797 14.93 41.6031 13.3143 45.0156C12.955 45.7625 12.6862 46.5703 12.5065 47.3781C12.0284 46.6906 11.4597 46.0625 10.83 45.4937C8.04715 42.9203 4.72528 42.0219 3.40965 43.4594C2.09246 44.8953 3.25965 48.1266 6.04246 50.7C6.67059 51.2688 7.32996 51.7781 8.04715 52.1969C7.23934 52.4656 6.4909 52.7953 5.74403 53.2141C2.45184 55.0688 0.5659 57.9422 1.52371 59.6469C2.48153 61.3531 5.92215 61.2328 9.21434 59.3781C9.93309 58.9594 10.6206 58.4797 11.28 57.9422C11.28 58.7797 11.369 59.6172 11.519 60.4547C12.2675 64.1656 14.4221 66.8594 16.3378 66.4703C18.2518 66.0813 19.2097 62.7594 18.4612 59.0781C18.2815 58.2703 18.0425 57.4625 17.744 56.6844C18.5518 56.9547 19.3596 57.1344 20.1971 57.2234C23.9378 57.6719 27.1706 56.4453 27.38 54.5Z" fill="#FF8282"/>
<path d="M149.327 102.048C148.938 100.133 145.616 99.175 141.905 99.9234C141.067 100.073 140.289 100.342 139.511 100.642C139.781 99.8343 139.959 99.0265 140.05 98.1875C140.498 94.4484 139.272 91.2156 137.327 90.9765C135.381 90.7375 133.436 93.6703 133.017 97.3797C132.928 98.2172 132.897 99.0562 132.988 99.8937C132.298 99.4156 131.581 98.9953 130.833 98.6375C127.391 97.0515 123.95 97.2312 123.142 98.9953C122.334 100.761 124.458 103.455 127.87 105.07C128.619 105.43 129.427 105.698 130.234 105.878C129.545 106.387 128.917 106.925 128.348 107.555C125.805 110.337 124.878 113.658 126.314 115.005C127.75 116.322 130.983 115.155 133.556 112.372C134.125 111.773 134.633 111.084 135.052 110.367C135.322 111.175 135.65 111.923 136.07 112.67C137.925 115.962 140.798 117.847 142.503 116.891C144.209 115.933 144.089 112.491 142.234 109.17C141.816 108.452 141.336 107.764 140.798 107.105C141.636 107.105 142.473 107.016 143.313 106.866C146.992 106.117 149.716 103.962 149.327 102.048Z" fill="#FF8282"/>
<path d="M144.598 23.0219L144.3 22.7828C142.294 21.1063 138.314 17.7844 132.478 17.7844C130.503 17.7844 128.319 18.1735 125.925 19.1313C124.637 19.6407 123.47 20.3578 122.514 21.286C114.703 13.836 103.809 8.71878 89.9545 6.02503C81.0967 4.28909 72.8967 4.37972 65.4748 6.29534C63.2905 3.45159 57.903 -1.5156 48.267 1.26722C40.4264 3.54222 35.728 11.2922 34.5608 17.9344C33.7827 22.4235 34.5014 26.3735 36.5358 28.886C35.0108 31.5203 33.6936 34.3032 32.5858 37.2047C29.1452 46.2719 26.542 55.8469 30.8811 64.6438C33.0045 68.9235 36.6858 72.7829 42.0436 76.225C40.3373 78.4094 41.9233 83.0469 44.317 85.6204C46.1123 87.3266 47.9983 88.9422 49.9436 90.4672C48.6264 92.2641 47.3092 94.3282 46.142 96.5422C45.4545 94.7469 43.9873 93.0407 40.7858 92.4735C35.3092 91.5157 31.9577 96.8719 31.0608 103.634C30.3123 109.409 34.7108 112.163 39.3202 113.658C41.0248 114.197 42.7905 114.616 44.5858 114.884C48.1483 121.438 56.6467 122.814 63.1702 123.863C63.7092 123.952 64.2483 124.042 64.7561 124.131C65.5639 124.252 66.403 124.4 67.2405 124.55C69.3952 125.867 72.178 126.466 74.9014 126.705C76.817 126.855 78.7311 126.884 80.6467 126.764C82.1436 127.003 83.0717 127.153 83.0717 127.153C83.1905 127.183 85.2264 127.572 88.0092 127.572C88.9967 127.572 90.103 127.513 91.2405 127.392C91.0608 128.5 91.1514 130.236 92.8561 132.002C96.4186 135.741 104.259 133.019 104.947 128.2C105.395 125.688 104.08 123.203 101.834 122.127C102.433 121.348 102.942 120.481 103.361 119.553C105.905 113.628 105.336 106.388 103.301 100.552C103.57 100.492 103.87 100.402 104.169 100.313C108 99.0563 114.403 94.4485 117.006 90.0485C119.49 89.2703 121.765 88.2532 123.8 87.0266C130.114 83.1969 134.064 77.3016 135.561 69.4922C136.398 65.1532 136.997 59.8563 136.728 54.1719C139.72 54.0813 142.653 52.7953 145.376 50.4313C148.728 47.4985 150.434 43.3094 150.375 38.2828C150.255 31.8485 147.292 25.2657 144.598 23.0219ZM101.715 118.716C98.0342 127.244 85.6155 125.628 83.6702 125.328C83.9983 124.491 84.4483 123.114 84.7764 121.048C85.8248 114.795 80.8561 113.33 80.078 111.773C79.2702 110.247 78.6123 103.514 70.9514 103.844C64.6967 104.113 62.4217 110.577 63.2295 117.938C63.4092 119.673 63.978 121.048 64.817 122.186C64.3967 122.127 63.9483 122.036 63.4998 121.977C57.3952 120.989 50.1827 119.852 46.7405 114.766C47.1295 114.286 48.0577 113.059 49.0748 110.547C51.3202 105.1 47.3702 102.827 46.9811 101.3C46.8905 100.911 46.8608 100.163 46.8014 99.2953C48.0577 96.4532 49.7639 93.7594 51.4092 91.486C51.8889 91.8141 52.367 92.1438 52.8467 92.4422C59.0998 97.2907 73.5545 100.492 78.7311 101.3C89.1467 102.886 98.6623 101.898 101.715 101.27C103.511 106.716 103.989 113.419 101.715 118.716ZM133.765 69.0125C132.389 76.2844 128.708 81.7907 122.842 85.3516C121.347 86.2485 119.73 87.0266 117.934 87.6844C118.951 84.0344 116.767 81.4313 114.553 80.8625C107.251 78.9782 95.4608 87.475 92.4077 89.8094C84.2983 88.9719 75.1405 87.086 65.0858 84.0641C47.2795 78.7688 36.5967 72.125 32.4967 63.7766C28.4561 55.6078 30.9702 46.4516 34.2623 37.7735C34.9811 35.9188 36.1467 33.1953 37.8827 30.1438C38.0327 29.8735 38.1827 29.6344 38.3327 29.3657C38.4811 29.0953 38.6311 28.8563 38.8108 28.5875C43.4498 21.0469 51.5592 11.9797 64.6967 8.23909C64.9952 8.15003 65.2952 8.09065 65.5952 8.00003C65.8936 7.91097 66.1936 7.85003 66.492 7.76097C69.8733 6.95315 73.5842 6.50472 77.6248 6.50472C79.4795 6.50472 81.3952 6.59378 83.3998 6.80315C85.4045 7.01253 87.4702 7.31253 89.6248 7.73128C103.151 10.3938 113.745 15.361 121.315 22.5735C121.526 22.7828 121.736 22.9922 121.945 23.2016C122.155 23.411 122.364 23.6203 122.573 23.8594C125.267 26.6422 127.511 29.725 129.365 33.1063C132.778 39.3891 134.334 45.9422 134.812 52.1063C134.842 52.4063 134.873 52.7047 134.873 53.0047C134.873 53.3032 134.903 53.6032 134.933 53.9016C135.172 59.5282 134.603 64.7344 133.765 69.0125Z" fill="black"/>
<path d="M66.9965 39.6016C67.1074 39.8547 67.1996 40.1141 67.2762 40.3813C67.3512 40.6485 67.409 40.9219 67.448 41.2C67.4871 41.4797 67.509 41.7625 67.5105 42.05C67.5137 42.3375 67.498 42.6281 67.4652 42.9203C67.4309 43.2141 67.3793 43.5094 67.3105 43.8063C67.2402 44.1031 67.1527 44.4 67.0465 44.6969C66.9418 44.9938 66.8199 45.2891 66.6793 45.5844C66.5402 45.8781 66.384 46.1703 66.2105 46.4594C66.0371 46.7485 65.848 47.0328 65.6434 47.3141C65.4402 47.5953 65.2199 47.8703 64.9855 48.1406C64.7527 48.411 64.5043 48.6735 64.2434 48.9313C63.9824 49.1875 63.709 49.436 63.4215 49.6766C63.1355 49.9172 62.8387 50.1485 62.5309 50.3719C62.223 50.5938 61.9059 50.8063 61.5777 51.0078C61.2512 51.211 60.9168 51.4016 60.573 51.5813C60.2309 51.761 59.8809 51.9281 59.5262 52.0844C59.1699 52.2391 58.8105 52.3828 58.4449 52.5125C58.0809 52.6422 57.7137 52.7594 57.3434 52.8625C56.973 52.9656 56.6012 53.0547 56.2293 53.1313C55.8559 53.2063 55.484 53.2672 55.1137 53.3141C54.7434 53.361 54.3746 53.3938 54.009 53.4125C53.6434 53.4297 53.2809 53.4328 52.9246 53.4219C52.5668 53.411 52.2152 53.3844 51.8699 53.3453C51.5262 53.3047 51.1887 53.25 50.859 53.1813C50.5277 53.1125 50.2074 53.0297 49.8965 52.9328C49.5855 52.8344 49.2855 52.725 48.9949 52.6C48.7059 52.4766 48.4277 52.3391 48.1621 52.1891C47.898 52.0406 47.6449 51.8781 47.4074 51.7031C47.1684 51.5297 46.9449 51.3438 46.7355 51.1469C46.5262 50.95 46.3324 50.7422 46.1543 50.5235C45.9762 50.3063 45.8137 50.0781 45.6699 49.8422C45.5246 49.6047 45.3965 49.361 45.2855 49.1078C45.1746 48.8547 45.0809 48.5938 45.0059 48.3266C44.9309 48.0594 44.873 47.786 44.834 47.5078C44.7934 47.2297 44.773 46.9469 44.7699 46.6594C44.7668 46.3719 44.7824 46.0813 44.8168 45.7875C44.8496 45.4938 44.9012 45.1985 44.9715 44.9016C45.0418 44.6063 45.1293 44.3094 45.234 44.0125C45.3387 43.7156 45.4621 43.4188 45.6012 43.125C45.7418 42.8297 45.898 42.5391 46.0715 42.25C46.2434 41.961 46.4324 41.675 46.6371 41.3938C46.8418 41.1141 47.0605 40.8375 47.2949 40.5672C47.5293 40.2985 47.7762 40.0344 48.0387 39.7781C48.2996 39.5219 48.573 39.2719 48.859 39.0313C49.1449 38.7906 49.4418 38.5594 49.7496 38.3375C50.059 38.1141 50.3762 37.9031 50.7027 37.7C51.0293 37.4985 51.3652 37.3078 51.7074 37.1281C52.0512 36.9485 52.3996 36.7797 52.7559 36.625C53.1105 36.4688 53.4715 36.3266 53.8355 36.1953C54.2012 36.0656 54.5684 35.9485 54.9387 35.8453C55.309 35.7422 55.6809 35.6531 56.0527 35.5781C56.4246 35.5016 56.7965 35.4406 57.1668 35.3938C57.5387 35.3469 57.9074 35.3141 58.273 35.2969C58.6387 35.2781 58.9996 35.275 59.3574 35.286C59.7137 35.2985 60.0652 35.3235 60.4105 35.3641C60.7559 35.4047 61.0934 35.4594 61.423 35.5281C61.7527 35.5969 62.073 35.6797 62.384 35.7766C62.6965 35.8735 62.9965 35.9844 63.2855 36.1078C63.5762 36.2313 63.8527 36.3688 64.1184 36.5188C64.384 36.6688 64.6355 36.8313 64.8746 37.0047C65.1121 37.1797 65.3371 37.3656 65.5465 37.5625C65.7559 37.7594 65.9496 37.9672 66.1277 38.1844C66.3059 38.4031 66.4668 38.6297 66.6121 38.8672C66.7574 39.1031 66.8855 39.3485 66.9965 39.6016Z" fill="black"/>
<path d="M113.461 52.0563C113.68 52.3813 113.888 52.7141 114.085 53.0547C114.28 53.3938 114.465 53.7391 114.635 54.0891C114.805 54.4391 114.961 54.7922 115.105 55.1485C115.247 55.5063 115.377 55.8656 115.491 56.2266C115.605 56.586 115.705 56.9469 115.79 57.3078C115.874 57.6688 115.944 58.0281 115.997 58.386C116.052 58.7438 116.091 59.0985 116.115 59.4485C116.136 59.8 116.144 60.1453 116.136 60.4875C116.127 60.8281 116.104 61.1625 116.065 61.4891C116.024 61.8172 115.969 62.136 115.899 62.4469C115.829 62.7578 115.743 63.0594 115.643 63.35C115.543 63.6406 115.427 63.9219 115.297 64.1906C115.168 64.4594 115.024 64.7156 114.866 64.9594C114.708 65.2047 114.536 65.4344 114.352 65.6516C114.168 65.8672 113.972 66.0703 113.763 66.2578C113.554 66.4453 113.333 66.6172 113.102 66.7735C112.871 66.9297 112.629 67.0688 112.377 67.1922C112.125 67.3156 111.865 67.4219 111.594 67.5125C111.324 67.6016 111.046 67.6735 110.761 67.7297C110.475 67.7844 110.183 67.8219 109.885 67.8406C109.588 67.861 109.285 67.8625 108.977 67.8469C108.669 67.8313 108.358 67.7969 108.043 67.7469C107.729 67.6953 107.411 67.6266 107.093 67.5406C106.775 67.4547 106.457 67.3516 106.136 67.2313C105.818 67.1125 105.5 66.9766 105.183 66.8235C104.866 66.6703 104.552 66.5016 104.241 66.3172C103.929 66.1344 103.622 65.9344 103.319 65.7219C103.016 65.5078 102.719 65.2797 102.427 65.0391C102.135 64.7985 101.85 64.5438 101.574 64.2781C101.296 64.011 101.027 63.7328 100.766 63.4438C100.505 63.1547 100.254 62.8563 100.013 62.5469C99.7708 62.2391 99.5395 61.9219 99.3208 61.5953C99.1005 61.2703 98.8926 60.9375 98.6973 60.5969C98.5005 60.2578 98.3176 59.9125 98.1473 59.5625C97.977 59.2125 97.8192 58.8594 97.677 58.5031C97.5333 58.1453 97.4051 57.786 97.2895 57.425C97.1755 57.0656 97.0755 56.7047 96.9911 56.3438C96.9067 55.9828 96.838 55.6235 96.7833 55.2656C96.7286 54.9078 96.6911 54.5531 96.6676 54.2031C96.6442 53.8516 96.638 53.5063 96.6458 53.1641C96.6536 52.8235 96.677 52.4906 96.7176 52.1625C96.7567 51.8344 96.8114 51.5156 96.8817 51.2047C96.952 50.8938 97.038 50.5938 97.1395 50.3016C97.2395 50.011 97.3551 49.7297 97.4848 49.461C97.6145 49.1922 97.7583 48.936 97.9161 48.6922C98.0739 48.4469 98.2442 48.2172 98.4286 48C98.613 47.7844 98.8098 47.5813 99.0192 47.3938C99.227 47.2063 99.4473 47.0344 99.6786 46.8781C99.9114 46.7219 100.152 46.5828 100.405 46.4594C100.657 46.336 100.918 46.2297 101.188 46.1391C101.457 46.05 101.735 45.9781 102.021 45.9219C102.307 45.8672 102.597 45.8297 102.896 45.811C103.194 45.7906 103.497 45.7891 103.805 45.8047C104.113 45.8203 104.424 45.8547 104.738 45.9047C105.054 45.9563 105.369 46.025 105.688 46.111C106.007 46.1969 106.325 46.3 106.644 46.4203C106.963 46.5391 107.282 46.6766 107.599 46.8281C107.915 46.9813 108.229 47.15 108.541 47.3344C108.852 47.5172 109.16 47.7172 109.463 47.9297C109.765 48.1438 110.063 48.3719 110.354 48.6125C110.646 48.8547 110.93 49.1078 111.208 49.3735C111.486 49.6406 111.755 49.9188 112.016 50.2078C112.277 50.4969 112.527 50.7953 112.769 51.1047C113.01 51.4125 113.241 51.7313 113.461 52.0563Z" fill="black"/>
<path d="M81.4847 61.0234C78.8222 60.725 77.8347 59.1687 77.4754 58.2109C78.7925 58.0312 79.93 57.1031 80.0191 56.6547C80.1394 56.0562 78.7925 55.3984 77.0269 54.9797C75.2613 54.5609 73.7347 54.5609 73.6144 55.1593C73.5254 55.6078 74.0941 56.8343 75.1113 57.6125C74.3925 58.3609 73.405 58.8093 72.3879 58.839C72.3582 58.839 72.3285 58.839 72.2988 58.839H72.2691C71.7597 58.839 71.2207 58.75 70.7129 58.5406C70.2629 58.3609 69.7254 58.5703 69.5457 59.0187C69.366 59.4672 69.5754 60.0062 70.0238 60.1859C70.5035 60.3953 70.9816 60.5156 71.4597 60.575C71.6097 62.639 72.1191 66.5593 74.1535 67.3672C74.3925 67.4578 74.6019 67.4875 74.8425 67.4875C76.8769 67.4875 78.8519 64.2859 79.78 62.4906C80.2285 62.639 80.7082 62.7297 81.2457 62.789C81.2754 62.789 81.3066 62.789 81.3363 62.789C81.7847 62.789 82.1738 62.4593 82.2332 62.0109C82.3238 61.5328 81.9644 61.0828 81.4847 61.0234ZM74.8113 65.6922C74.0347 65.3922 73.4347 62.9093 73.2566 60.5156C74.2441 60.3359 75.1707 59.9172 75.9488 59.2578C76.3675 60.1265 77.0566 61.0531 78.1644 61.7422C76.8769 64.1656 75.3207 65.9015 74.8113 65.6922Z" fill="black"/>
<path d="M33.5139 125.838C22.5608 125.597 21.753 113.569 21.7233 113.059C21.6936 112.581 21.2748 112.192 20.7951 112.222C20.317 112.252 19.928 112.67 19.9576 113.15C19.9576 113.298 20.8858 127.333 33.4842 127.602C33.4842 127.602 33.4842 127.602 33.5139 127.602C33.9936 127.602 34.3811 127.214 34.4123 126.734C34.4123 126.256 34.0233 125.838 33.5139 125.838Z" fill="black"/>
<path d="M25.9121 134.455C19.3293 134.334 17.4434 126.825 17.3543 126.525C17.234 126.047 16.7559 125.747 16.2762 125.867C15.7981 125.986 15.4981 126.466 15.6184 126.944C15.6481 127.034 17.9231 136.1 25.8824 136.25C25.8824 136.25 25.8824 136.25 25.9121 136.25C26.3918 136.25 26.8106 135.861 26.8106 135.383C26.7809 134.873 26.3918 134.455 25.9121 134.455Z" fill="black"/>
<path d="M117.606 131.163C117.665 130.684 117.306 130.236 116.828 130.175C116.319 130.116 115.9 130.475 115.84 130.953C115.779 131.403 114.373 141.606 104.797 143.402C104.319 143.492 103.989 143.97 104.079 144.448C104.169 144.867 104.528 145.167 104.947 145.167C105.006 145.167 105.067 145.167 105.126 145.138C115.989 143.103 117.575 131.283 117.606 131.163Z" fill="black"/>
<mask id="mask0_344_22316" style="mask-type:luminance" maskUnits="userSpaceOnUse" x="111" y="137" width="12" height="13">
<path d="M111.3 137.6H122.5V149.984H111.3V137.6Z" fill="white"/>
</mask>
<g mask="url(#mask0_344_22316)">
<path d="M121.704 137.956C121.196 137.895 120.778 138.255 120.717 138.734C120.687 139.062 119.67 147.142 112.457 148.219C111.979 148.28 111.62 148.758 111.709 149.236C111.77 149.686 112.159 149.984 112.578 149.984C112.607 149.984 112.667 149.984 112.698 149.984C116.289 149.447 119.101 147.352 120.867 143.911C122.184 141.367 122.453 139.003 122.453 138.912C122.543 138.464 122.184 138.016 121.704 137.956Z" fill="black"/>
</g>
</g>
<defs>
<clipPath id="clip0_344_22316">
<rect width="150" height="150" fill="white" transform="translate(0.5)"/>
</clipPath>
</defs>
</svg>
