<svg width="150" height="150" viewBox="0 0 150 150" fill="none" xmlns="http://www.w3.org/2000/svg">
<path d="M130.369 52.8813C122.54 27.8985 99.9786 15.2735 73.5192 16.6532C47.0598 18.0329 25.8786 32.9672 20.7192 58.5797C16.5786 79.1532 26.6286 92.35 54.2286 95.5282C52.6395 97.3891 45.6786 106.145 45.2598 117.183C44.7786 129.659 51.8598 139.736 76.6989 139.736H77.2098C102.079 139.736 109.16 129.689 108.649 117.183C108.14 104.677 99.3489 95.1688 99.3489 95.1688H88.2786C125.269 90.9704 137.569 75.825 130.369 52.8813Z" fill="white"/>
<path d="M45.4688 72.1359C45.4688 72.5234 45.45 72.9094 45.4125 73.2937C45.3734 73.6797 45.3172 74.0609 45.2422 74.4406C45.1656 74.8203 45.0719 75.1953 44.9594 75.5656C44.8469 75.9359 44.7172 76.3 44.5688 76.6578C44.4203 77.0156 44.2563 77.364 44.0734 77.7062C43.8906 78.0469 43.6922 78.3797 43.4766 78.7C43.2609 79.0219 43.0312 79.3328 42.7859 79.6328C42.5406 79.9312 42.2812 80.2172 42.0063 80.4906C41.7328 80.7656 41.4469 81.025 41.1469 81.2703C40.8484 81.5156 40.5375 81.7453 40.2156 81.9609C39.8938 82.1765 39.5625 82.375 39.2203 82.5578C38.8797 82.739 38.5297 82.9047 38.1719 83.0531C37.8141 83.2015 37.45 83.3312 37.0797 83.4437C36.7094 83.5562 36.3344 83.65 35.9547 83.725C35.575 83.8 35.1922 83.8578 34.8078 83.8953C34.4219 83.9328 34.0359 83.9515 33.6484 83.9515C33.2609 83.9515 32.875 83.9328 32.4906 83.8953C32.1047 83.8578 31.7219 83.8 31.3422 83.725C30.9625 83.65 30.5875 83.5562 30.2172 83.4437C29.8469 83.3312 29.4828 83.2015 29.125 83.0531C28.7672 82.9047 28.4188 82.739 28.0766 82.5578C27.7359 82.375 27.4031 82.1765 27.0813 81.9609C26.7594 81.7453 26.45 81.5156 26.15 81.2703C25.8516 81.025 25.5641 80.7656 25.2906 80.4906C25.0172 80.2172 24.7578 79.9312 24.5125 79.6328C24.2656 79.3328 24.0359 79.0219 23.8203 78.7C23.6063 78.3797 23.4062 78.0469 23.225 77.7062C23.0422 77.364 22.8766 77.0156 22.7281 76.6578C22.5797 76.3 22.45 75.9359 22.3375 75.5656C22.225 75.1953 22.1312 74.8203 22.0563 74.4406C21.9797 74.0609 21.9234 73.6797 21.8859 73.2937C21.8484 72.9094 21.8281 72.5234 21.8281 72.1359C21.8281 71.7484 21.8484 71.3625 21.8859 70.9781C21.9234 70.5922 21.9797 70.2094 22.0563 69.8312C22.1312 69.4515 22.225 69.0765 22.3375 68.7062C22.45 68.3359 22.5797 67.9719 22.7281 67.614C22.8766 67.2562 23.0422 66.9062 23.225 66.5656C23.4062 66.225 23.6063 65.8922 23.8203 65.5703C24.0359 65.2484 24.2656 64.939 24.5125 64.639C24.7578 64.3406 25.0172 64.0547 25.2906 63.7797C25.5641 63.5062 25.8516 63.2469 26.15 63.0015C26.45 62.7562 26.7594 62.5265 27.0813 62.3109C27.4031 62.0953 27.7359 61.8969 28.0766 61.714C28.4188 61.5328 28.7672 61.3672 29.125 61.2187C29.4828 61.0703 29.8469 60.9406 30.2172 60.8281C30.5875 60.7156 30.9625 60.6219 31.3422 60.5469C31.7219 60.4703 32.1047 60.414 32.4906 60.3765C32.875 60.339 33.2609 60.3187 33.6484 60.3187C34.0359 60.3187 34.4219 60.339 34.8078 60.3765C35.1922 60.414 35.575 60.4703 35.9547 60.5469C36.3344 60.6219 36.7094 60.7156 37.0797 60.8281C37.45 60.9406 37.8141 61.0703 38.1719 61.2187C38.5297 61.3672 38.8797 61.5328 39.2203 61.714C39.5625 61.8969 39.8938 62.0953 40.2156 62.3109C40.5375 62.5265 40.8484 62.7562 41.1469 63.0015C41.4469 63.2469 41.7328 63.5062 42.0063 63.7797C42.2812 64.0547 42.5406 64.3406 42.7859 64.639C43.0312 64.939 43.2609 65.2484 43.4766 65.5703C43.6922 65.8922 43.8906 66.225 44.0734 66.5656C44.2563 66.9062 44.4203 67.2562 44.5688 67.614C44.7172 67.9719 44.8469 68.3359 44.9594 68.7062C45.0719 69.0765 45.1656 69.4515 45.2422 69.8312C45.3172 70.2094 45.3734 70.5922 45.4125 70.9781C45.45 71.3625 45.4688 71.7484 45.4688 72.1359Z" fill="#FBBFD4"/>
<path d="M130.699 67.6969C130.699 68.0844 130.68 68.4703 130.642 68.8547C130.603 69.2406 130.547 69.6234 130.472 70.0031C130.397 70.3812 130.302 70.7562 130.189 71.1265C130.078 71.4969 129.947 71.8609 129.799 72.2187C129.652 72.5765 129.486 72.9265 129.303 73.2672C129.121 73.6094 128.922 73.9406 128.706 74.2625C128.492 74.5844 128.261 74.8937 128.016 75.1937C127.771 75.4922 127.511 75.7797 127.238 76.0531C126.963 76.3265 126.677 76.5859 126.377 76.8312C126.078 77.0765 125.767 77.3078 125.446 77.5219C125.124 77.7375 124.792 77.9359 124.45 78.1187C124.11 78.3015 123.76 78.4656 123.402 78.614C123.044 78.7625 122.68 78.8922 122.31 79.0047C121.939 79.1172 121.564 79.2109 121.185 79.2859C120.805 79.3625 120.422 79.4187 120.038 79.4562C119.652 79.4953 119.266 79.514 118.878 79.514C118.492 79.514 118.105 79.4953 117.721 79.4562C117.335 79.4187 116.953 79.3625 116.574 79.2859C116.194 79.2109 115.819 79.1172 115.447 79.0047C115.077 78.8922 114.713 78.7625 114.355 78.614C113.999 78.4656 113.649 78.3015 113.306 78.1187C112.966 77.9359 112.635 77.7375 112.313 77.5219C111.991 77.3078 111.68 77.0765 111.38 76.8312C111.081 76.5859 110.794 76.3265 110.521 76.0531C110.247 75.7797 109.988 75.4922 109.742 75.1937C109.497 74.8937 109.266 74.5844 109.05 74.2625C108.836 73.9406 108.638 73.6094 108.455 73.2672C108.272 72.9265 108.106 72.5765 107.958 72.2187C107.811 71.8609 107.68 71.4969 107.567 71.1265C107.455 70.7562 107.361 70.3812 107.286 70.0031C107.211 69.6234 107.153 69.2406 107.116 68.8547C107.078 68.4703 107.06 68.0844 107.06 67.6969C107.06 67.3109 107.078 66.9234 107.116 66.539C107.153 66.1531 107.211 65.7719 107.286 65.3922C107.361 65.0125 107.455 64.6375 107.567 64.2672C107.68 63.8969 107.811 63.5328 107.958 63.175C108.106 62.8172 108.272 62.4687 108.455 62.1265C108.638 61.7859 108.836 61.4547 109.05 61.1328C109.266 60.8109 109.497 60.5 109.742 60.2015C109.988 59.9015 110.247 59.6156 110.521 59.3422C110.794 59.0687 111.081 58.8078 111.38 58.5625C111.68 58.3172 111.991 58.0875 112.313 57.8719C112.635 57.6578 112.966 57.4578 113.306 57.2765C113.649 57.0937 113.999 56.9281 114.355 56.7797C114.713 56.6328 115.077 56.5015 115.447 56.389C115.819 56.2765 116.194 56.1828 116.574 56.1078C116.953 56.0328 117.335 55.975 117.721 55.9375C118.105 55.9 118.492 55.8812 118.878 55.8812C119.266 55.8812 119.652 55.9 120.038 55.9375C120.422 55.975 120.805 56.0328 121.185 56.1078C121.564 56.1828 121.939 56.2765 122.31 56.389C122.68 56.5015 123.044 56.6328 123.402 56.7797C123.76 56.9281 124.11 57.0937 124.45 57.2765C124.792 57.4578 125.124 57.6578 125.446 57.8719C125.767 58.0875 126.078 58.3172 126.377 58.5625C126.677 58.8078 126.963 59.0687 127.238 59.3422C127.511 59.6156 127.771 59.9015 128.016 60.2015C128.261 60.5 128.492 60.8109 128.706 61.1328C128.922 61.4547 129.121 61.7859 129.303 62.1265C129.486 62.4687 129.652 62.8172 129.799 63.175C129.947 63.5328 130.078 63.8969 130.189 64.2672C130.302 64.6375 130.397 65.0125 130.472 65.3922C130.547 65.7719 130.603 66.1531 130.642 66.539C130.68 66.9234 130.699 67.3109 130.699 67.6969Z" fill="#FBBFD4"/>
<path d="M76.1594 63.9485L73.0391 66.1375C73.0391 66.1375 74.5984 72.5251 76.6094 72.4657C78.6188 72.4063 79.3984 65.9282 79.3984 65.9282L76.1594 63.9485Z" fill="#FFA4A4"/>
<path d="M106.159 92.7094C117.019 89.6204 124.669 84.9422 128.989 78.7344C133.789 71.836 134.539 63.0782 131.269 52.611C130.039 48.6829 128.419 44.9938 126.439 41.6047C130.249 38.7563 132.799 32.7282 132.559 26.9688C132.319 21.061 129.259 16.1719 123.949 13.2329C117.409 9.60474 110.389 11.1641 106.009 13.8329C103.189 15.5422 101.299 17.7626 100.759 19.8313C92.6595 16.6532 83.4189 15.1829 73.4282 15.6922C63.4392 16.2032 54.3782 18.6313 46.6392 22.6204C45.9189 20.611 43.8486 18.6313 40.9095 17.2219C36.2595 15.0032 29.1189 14.1626 22.9095 18.4516C17.9595 21.961 15.4095 27.1188 15.7986 33.0579C16.1892 38.8157 19.3392 44.5141 23.4189 46.9735C21.8282 50.5422 20.5986 54.3516 19.7892 58.3704C17.6282 69.1063 19.3095 77.7735 24.7986 84.1329C29.2095 89.2313 36.0782 92.8594 45.3189 94.9594C39.6782 97.5376 30.9782 102.697 33.3486 109.114C34.2189 111.424 35.6282 112.864 37.5486 113.433C38.1189 113.583 38.7189 113.673 39.2892 113.673C41.2986 113.673 43.3392 112.864 44.8986 112.023C44.5689 113.644 44.3282 115.353 44.2689 117.122C44.0282 123.541 45.7689 128.698 49.4282 132.538C49.6986 132.838 49.9986 133.108 50.2986 133.378C50.2986 135.656 50.5689 149.513 59.6892 149.992C59.8689 149.992 60.0486 149.992 60.2282 149.992C62.3595 149.992 64.0689 149.303 65.2689 147.923C67.3095 145.614 67.3392 141.984 67.1595 140.066C70.0689 140.455 73.2189 140.636 76.6392 140.636H77.1486C80.5689 140.636 83.7189 140.455 86.5986 140.066C86.4486 141.984 86.4782 145.614 88.4892 147.923C89.6892 149.303 91.3986 149.992 93.5282 149.992C93.7095 149.992 93.8892 149.992 94.0689 149.992C103.099 149.513 103.459 135.867 103.459 133.438C103.789 133.138 104.089 132.867 104.389 132.567C108.049 128.759 109.789 123.57 109.549 117.153C109.459 114.723 109.069 112.414 108.469 110.255C111.378 111.214 116.839 112.353 119.599 108.666C120.949 106.866 121.309 104.977 120.678 103.086C119.089 98.1079 110.749 94.4188 106.159 92.7094ZM26.2392 82.8719C21.1392 76.9938 19.6095 68.8672 21.6486 58.7297C22.7892 53.061 24.7986 47.8438 27.5282 43.1641C31.3689 36.5969 36.6486 31.1079 43.0986 26.9094C51.4986 21.4516 61.8486 18.1829 73.5782 17.5829C74.8689 17.5219 76.1282 17.4922 77.3892 17.4922C87.5892 17.4922 96.8892 19.6813 104.839 23.7297C111.709 27.2391 117.528 32.1282 121.999 38.2766C125.209 42.6547 127.728 47.6329 129.469 53.1813C132.559 63.0485 131.869 71.2657 127.428 77.6547C123.889 82.7532 117.919 86.7719 109.578 89.6813C107.419 90.4297 105.109 91.1204 102.649 91.7204L102.589 91.7501C102.559 91.7501 102.559 91.7501 102.528 91.7501C102.499 91.7501 102.439 91.7797 102.409 91.7797C101.659 91.9594 99.2282 92.5001 95.8689 93.1298C95.8689 93.1298 95.8689 93.1298 95.8392 93.1298C90.3782 94.0891 84.2595 94.7188 77.5392 95.0798C70.5782 95.4391 64.2782 95.4094 58.5782 94.9891C56.0892 94.7485 53.9892 94.5094 52.3095 94.3001C51.8595 94.2391 51.4095 94.1797 51.0486 94.1501C39.4986 92.3501 31.1595 88.6016 26.2392 82.8719ZM103.069 131.219C101.659 132.688 99.8892 133.947 97.7892 134.997L93.6189 136.647C89.1782 138.027 83.6892 138.745 77.2095 138.745H76.6689C70.0689 138.745 64.5189 138.027 60.0189 136.586L56.3282 135.117C54.1392 134.038 52.2782 132.748 50.8095 131.219C47.5095 127.799 45.9486 123.061 46.1595 117.213C46.2486 114.873 46.6392 112.684 47.1782 110.614C47.2689 110.555 47.3282 110.494 47.3892 110.464C49.6392 110.255 65.4782 108.934 75.9189 108.934C85.9689 108.934 102.769 109.445 106.309 109.564C107.059 111.934 107.569 114.483 107.659 117.213C107.928 123.061 106.369 127.769 103.069 131.219Z" fill="black"/>
<path d="M59.3689 49.1531C59.5548 49.3703 59.7251 49.5984 59.8814 49.8406C60.0376 50.0813 60.1767 50.3328 60.3017 50.5953C60.4267 50.8578 60.5345 51.1313 60.6251 51.4125C60.7173 51.6938 60.7908 51.9844 60.8486 52.2828C60.9064 52.5813 60.947 52.8859 60.9705 53.1984C60.9939 53.5094 61.0001 53.8266 60.9892 54.15C60.9783 54.4719 60.9501 54.7984 60.9048 55.1281C60.8595 55.4578 60.797 55.7906 60.7173 56.125C60.6392 56.4594 60.5423 56.7938 60.4298 57.1297C60.3173 57.4641 60.1892 57.7984 60.0439 58.1328C59.8986 58.4656 59.7392 58.7953 59.5642 59.1234C59.3876 59.4516 59.1986 59.775 58.9939 60.0938C58.7892 60.4141 58.572 60.7266 58.3408 61.0344C58.108 61.3422 57.8642 61.6438 57.608 61.9359C57.3517 62.2297 57.0845 62.5141 56.8064 62.7891C56.5267 63.0656 56.2392 63.3313 55.9408 63.5875C55.6423 63.8422 55.3345 64.0875 55.0205 64.3203C54.7048 64.5531 54.383 64.775 54.0533 64.9828C53.7251 65.1906 53.3908 65.3859 53.0517 65.5688C52.7111 65.75 52.3689 65.9172 52.022 66.0703C51.6751 66.2234 51.3251 66.3625 50.9751 66.4859C50.6236 66.6078 50.272 66.7156 49.922 66.8078C49.5705 66.9 49.2205 66.9766 48.8705 67.0359C48.522 67.0969 48.1767 67.1406 47.8345 67.1672C47.4908 67.1953 47.1533 67.2063 46.8205 67.2C46.4876 67.1953 46.1611 67.1734 45.8408 67.1344C45.5189 67.0953 45.2064 67.0422 44.9017 66.9703C44.597 66.9 44.3017 66.8125 44.0158 66.7109C43.7298 66.6078 43.4548 66.4891 43.1892 66.3563C42.9251 66.2234 42.672 66.075 42.4314 65.9125C42.1908 65.7484 41.9626 65.5719 41.7486 65.3813C41.5345 65.1906 41.3345 64.9859 41.1486 64.7688C40.9611 64.5516 40.7908 64.3234 40.6345 64.0828C40.4783 63.8406 40.3392 63.5891 40.2142 63.3266C40.0908 63.0641 39.983 62.7922 39.8908 62.5094C39.7986 62.2281 39.7251 61.9375 39.6673 61.6391C39.6095 61.3406 39.5689 61.0359 39.5455 60.7234C39.522 60.4125 39.5158 60.0953 39.5267 59.7719C39.5376 59.45 39.5658 59.1234 39.6111 58.7938C39.6564 58.4641 39.7189 58.1313 39.7986 57.7969C39.8783 57.4625 39.9736 57.1281 40.0861 56.7922C40.1986 56.4578 40.3267 56.1234 40.472 55.7906C40.6173 55.4563 40.7767 55.1266 40.9517 54.7984C41.1283 54.4703 41.3173 54.1469 41.522 53.8281C41.7267 53.5078 41.9439 53.1953 42.1767 52.8875C42.408 52.5797 42.6517 52.2797 42.908 51.9859C43.1642 51.6922 43.4314 51.4078 43.7095 51.1328C43.9892 50.8563 44.2783 50.5906 44.5751 50.3359C44.8736 50.0797 45.1814 49.8359 45.4955 49.6016C45.8111 49.3688 46.133 49.1484 46.4626 48.9391C46.7908 48.7313 47.1251 48.5359 47.4658 48.3547C47.8048 48.1719 48.1486 48.0047 48.4955 47.8516C48.8423 47.6984 49.1908 47.5609 49.5408 47.4375C49.8923 47.3141 50.2439 47.2063 50.5955 47.1141C50.947 47.0219 51.297 46.9453 51.6455 46.8859C51.9939 46.8266 52.3392 46.7828 52.6814 46.7547C53.0251 46.7281 53.3626 46.7172 53.6955 46.7219C54.0283 46.7281 54.3548 46.75 54.6767 46.7875C54.997 46.8266 55.3095 46.8813 55.6142 46.9516C55.9189 47.0219 56.2142 47.1094 56.5001 47.2109C56.7861 47.3141 57.0611 47.4328 57.3267 47.5656C57.5908 47.6984 57.8439 47.8469 58.0845 48.0109C58.3251 48.1734 58.5533 48.35 58.7673 48.5406C58.9814 48.7313 59.1814 48.9359 59.3689 49.1531Z" fill="black"/>
<path d="M105.74 47.1453C106.064 47.3688 106.38 47.6031 106.684 47.8485C106.99 48.0938 107.286 48.35 107.572 48.6141C107.856 48.8797 108.131 49.1531 108.392 49.436C108.655 49.7172 108.905 50.0063 109.14 50.3031C109.376 50.6 109.6 50.9016 109.808 51.2094C110.017 51.5172 110.209 51.8297 110.389 52.1453C110.567 52.4625 110.73 52.7813 110.876 53.1031C111.023 53.425 111.153 53.7485 111.267 54.0719C111.38 54.3969 111.476 54.7203 111.556 55.0438C111.636 55.3672 111.697 55.6891 111.742 56.0094C111.786 56.3281 111.812 56.6438 111.822 56.9578C111.831 57.2703 111.822 57.5781 111.795 57.8797C111.769 58.1828 111.725 58.4797 111.662 58.7688C111.601 59.0594 111.522 59.3406 111.426 59.6156C111.33 59.8891 111.215 60.1547 111.086 60.411C110.956 60.6656 110.809 60.911 110.647 61.1469C110.484 61.3813 110.306 61.6047 110.112 61.8172C109.919 62.0297 109.711 62.2297 109.489 62.4156C109.265 62.6031 109.03 62.7766 108.781 62.9375C108.531 63.0969 108.269 63.2422 107.995 63.375C107.722 63.5063 107.436 63.6235 107.14 63.725C106.845 63.8266 106.539 63.9141 106.225 63.9844C105.911 64.0563 105.587 64.1125 105.256 64.1516C104.926 64.1922 104.589 64.2156 104.245 64.225C103.901 64.2328 103.553 64.225 103.2 64.2016C102.847 64.1781 102.49 64.1391 102.131 64.0828C101.773 64.0281 101.412 63.9578 101.05 63.8719C100.689 63.7844 100.328 63.6844 99.967 63.5672C99.6061 63.45 99.2467 63.3203 98.8905 63.1735C98.5342 63.0281 98.1811 62.8688 97.8326 62.6953C97.4842 62.5219 97.1405 62.336 96.803 62.1375C96.4655 61.9375 96.1342 61.7266 95.8108 61.5031C95.4889 61.2797 95.1733 61.0453 94.8686 60.8C94.5623 60.5547 94.267 60.2985 93.9811 60.0344C93.6951 59.7688 93.4217 59.4953 93.1592 59.2125C92.8983 58.9313 92.6483 58.6422 92.4123 58.3453C92.1764 58.0485 91.953 57.7469 91.7451 57.4391C91.5358 57.1313 91.3436 56.8188 91.1639 56.5031C90.9858 56.186 90.8233 55.8672 90.6764 55.5453C90.5295 55.2235 90.3998 54.9 90.2858 54.5766C90.1733 54.2516 90.0764 53.9281 89.9967 53.6047C89.917 53.2813 89.8561 52.9594 89.8108 52.6391C89.767 52.3203 89.7405 52.0031 89.7311 51.6906C89.7217 51.3781 89.7311 51.0703 89.7576 50.7688C89.7842 50.4656 89.828 50.1688 89.8905 49.8797C89.9514 49.5891 90.0311 49.3078 90.1264 49.0328C90.2233 48.7594 90.3373 48.4938 90.467 48.2375C90.5967 47.9828 90.7436 47.736 90.9061 47.5016C91.0686 47.2672 91.2467 47.0422 91.4405 46.8313C91.6342 46.6188 91.842 46.4188 92.0639 46.2328C92.2873 46.0453 92.5233 45.8719 92.7717 45.711C93.0217 45.5516 93.2826 45.4063 93.5576 45.2735C93.8311 45.1422 94.1155 45.025 94.4123 44.9235C94.7076 44.8219 95.0123 44.7344 95.328 44.6625C95.642 44.5922 95.9655 44.536 96.2967 44.4969C96.6264 44.4563 96.9639 44.4328 97.3076 44.4235C97.6514 44.4156 97.9998 44.4235 98.353 44.4469C98.7061 44.4703 99.0623 44.5094 99.4201 44.5656C99.7795 44.6203 100.14 44.6906 100.501 44.7766C100.864 44.8641 101.225 44.9641 101.586 45.0813C101.947 45.1969 102.306 45.3281 102.662 45.475C103.019 45.6203 103.372 45.7797 103.72 45.9531C104.069 46.1266 104.412 46.3125 104.75 46.511C105.087 46.711 105.419 46.9219 105.74 47.1453Z" fill="black"/>
<path d="M71.059 67.1281H71.0887C71.209 67.1281 71.509 67.1281 71.959 67.0672C72.5887 69.3172 74.1184 73.4547 76.548 73.4547C76.609 73.4547 76.6387 73.4547 76.698 73.4547C79.1887 73.275 80.1777 68.9266 80.509 66.6172C80.898 66.6172 81.1387 66.5875 81.1684 66.5875C81.6777 66.5281 82.0684 66.0485 81.9777 65.5375C81.9184 65.0281 81.4387 64.6375 80.9277 64.6985C80.8684 64.6985 80.4184 64.7578 79.8184 64.6688C79.7887 64.6688 79.7887 64.6688 79.759 64.6688H79.7277C78.948 64.5485 77.9277 64.2188 77.1777 63.3188C78.498 62.7188 79.3684 61.3985 79.3684 60.8891C79.3387 60.2 77.6887 59.9297 75.709 60.0188C73.7277 60.1094 72.1387 60.5891 72.1684 61.2484C72.198 61.7594 73.2184 62.9594 74.598 63.4078C73.998 64.3078 73.1277 64.7578 72.3777 64.9688H72.348C72.3184 64.9688 72.3184 64.9688 72.2887 64.9985C71.598 65.1781 71.059 65.1781 71.0277 65.1781C70.4887 65.1781 70.0684 65.5985 70.0684 66.1078C70.098 66.6781 70.5184 67.1281 71.059 67.1281ZM76.009 64.8485C76.8184 65.6875 77.748 66.1078 78.6184 66.3469C78.198 69.0766 77.2684 71.4766 76.548 71.536C75.859 71.5656 74.598 69.2266 73.7887 66.5281C74.5684 66.1969 75.348 65.6875 76.009 64.8485Z" fill="black"/>
<path d="M45.6779 9.60469L46.3982 9.84531C48.8592 10.8641 50.6592 13.0234 51.1982 15.6625L51.4389 16.6219C51.5279 17.0422 51.9186 17.3422 52.3686 17.3422C52.8186 17.3422 53.2092 17.0422 53.2982 16.6219L53.5389 15.6328C54.0779 13.0234 55.8779 10.8344 58.3092 9.84531L59.0592 9.575C59.4482 9.45469 59.6889 9.09531 59.6889 8.675C59.6889 8.28437 59.4482 7.925 59.0592 7.775L58.3389 7.50469C55.8779 6.48594 54.0779 4.32656 53.5389 1.6875L53.2686 0.757812C53.2092 0.546875 53.0889 0.367188 52.9389 0.217188C52.7889 0.0968752 52.5779 0.0078125 52.3389 0.0078125C51.8889 0.0078125 51.5279 0.307812 51.4092 0.726562L51.1686 1.71719C50.6279 4.32656 48.8279 6.48594 46.3982 7.50469L45.6482 7.775C45.2889 7.925 45.0186 8.28437 45.0186 8.675C45.0482 9.125 45.2889 9.48438 45.6779 9.60469ZM52.3686 4.29688C53.2092 6.125 54.6186 7.68594 56.3889 8.70469C54.6186 9.75469 53.2092 11.2844 52.3686 13.1141C51.5279 11.2844 50.1186 9.725 48.3482 8.70469C50.1186 7.68594 51.4982 6.125 52.3686 4.29688Z" fill="black"/>
<mask id="mask0_344_22300" style="mask-type:luminance" maskUnits="userSpaceOnUse" x="12" y="95" width="18" height="20">
<path d="M12.4688 95.2H29.2V114.8H12.4688V95.2Z" fill="white"/>
</mask>
<g mask="url(#mask0_344_22300)">
<path d="M28.2781 104.106L27.4687 103.806C24.6187 102.606 22.5187 100.117 21.8891 97.028L21.6187 95.978C21.4984 95.5593 21.1094 95.2593 20.6891 95.2593C20.2391 95.2593 19.8484 95.5593 19.7594 96.0093L19.5187 97.0577C18.8891 100.147 16.7891 102.636 13.9687 103.806L13.0984 104.106C12.7094 104.256 12.4688 104.586 12.4688 105.006C12.4688 105.395 12.7094 105.756 13.0984 105.906L13.9391 106.206C16.7891 107.405 18.8891 109.894 19.5187 112.953L19.7594 114.003C19.8781 114.423 20.2391 114.723 20.6891 114.723C21.1391 114.723 21.4984 114.423 21.6187 114.003L21.8891 112.923C22.5187 109.894 24.6187 107.375 27.4391 106.206L28.3094 105.906C28.6984 105.756 28.9391 105.395 28.9391 105.006C28.9094 104.616 28.6687 104.256 28.2781 104.106ZM20.6891 110.405C19.7281 108.155 18.0187 106.236 15.8281 105.036C18.0187 103.836 19.7281 101.947 20.6891 99.6671C21.6484 101.917 23.3594 103.806 25.5484 105.036C23.3594 106.236 21.6781 108.125 20.6891 110.405Z" fill="black"/>
</g>
<path d="M132.619 97.5079L132.11 97.3282C130.31 96.5782 129.019 95.0188 128.629 93.0704L128.449 92.3797C128.389 92.1704 128.269 91.9907 128.119 91.8704C127.969 91.75 127.76 91.6594 127.519 91.6594C127.069 91.6594 126.71 91.9594 126.589 92.3797L126.41 93.1C126.019 94.9891 124.729 96.5782 122.96 97.2985L122.389 97.5079C121.999 97.6579 121.76 97.9875 121.76 98.4079C121.76 98.7985 121.999 99.1579 122.389 99.3079L122.929 99.5172C124.729 100.238 126.019 101.827 126.439 103.747L126.619 104.436C126.71 104.856 127.099 105.156 127.549 105.156C127.999 105.156 128.36 104.856 128.479 104.436L128.66 103.716C129.049 101.827 130.339 100.267 132.11 99.5469L132.679 99.3375C133.069 99.1875 133.31 98.8282 133.31 98.4375C133.279 97.9875 133.01 97.6282 132.619 97.5079ZM127.519 101.197C126.919 100.058 126.019 99.0985 124.939 98.4079C126.019 97.6875 126.919 96.7282 127.519 95.5891C128.119 96.7282 129.019 97.6875 130.099 98.3782C129.019 99.0985 128.119 100.058 127.519 101.197Z" fill="black"/>
</svg>
