<svg width="19" height="20" viewBox="0 0 19 20" fill="none" xmlns="http://www.w3.org/2000/svg">
<path fill-rule="evenodd" clip-rule="evenodd" d="M8.25 3.28816C4.59833 3.66346 1.75 6.74902 1.75 10.4998C1.75 14.5039 4.99594 17.7498 9 17.7498C12.7508 17.7498 15.8364 14.9015 16.2117 11.2498H9C8.58579 11.2498 8.25 10.9141 8.25 10.4998V3.28816ZM0.25 10.4998C0.25 5.66735 4.16751 1.74984 9 1.74984C9.41421 1.74984 9.75 2.08563 9.75 2.49984V9.74984H17C17.4142 9.74984 17.75 10.0856 17.75 10.4998C17.75 15.3323 13.8325 19.2498 9 19.2498C4.16751 19.2498 0.25 15.3323 0.25 10.4998Z" fill="#10AC84"/>
<path fill-rule="evenodd" clip-rule="evenodd" d="M12.5 2.17349V6.99984H17.3264C16.7633 4.61544 14.8844 2.73651 12.5 2.17349ZM11.998 0.561488C15.6183 1.01202 18.4878 3.88151 18.9384 7.50183C19.0066 8.04988 18.5523 8.49984 18 8.49984H11.5C11.2239 8.49984 11 8.27598 11 7.99984V1.49984C11 0.947557 11.45 0.493285 11.998 0.561488Z" fill="#10AC84"/>
</svg>
