<svg width="22" height="21" viewBox="0 0 22 21" fill="none" xmlns="http://www.w3.org/2000/svg">
<path d="M3.99993 11.5C3.99993 13.1484 4.66466 14.6415 5.74067 15.726C5.84445 15.8305 5.89633 15.8828 5.92696 15.9331C5.95619 15.9811 5.9732 16.0224 5.98625 16.0771C5.99993 16.1343 5.99993 16.1995 5.99993 16.3298V18.7C5.99993 18.98 5.99993 19.12 6.05443 19.227C6.10236 19.3211 6.17885 19.3976 6.27293 19.4455C6.37989 19.5 6.5199 19.5 6.79993 19.5H8.69993C8.97996 19.5 9.11997 19.5 9.22693 19.4455C9.32101 19.3976 9.3975 19.3211 9.44543 19.227C9.49993 19.12 9.49993 18.98 9.49993 18.7V18.3C9.49993 18.02 9.49993 17.88 9.55443 17.773C9.60236 17.6789 9.67885 17.6024 9.77293 17.5545C9.87989 17.5 10.0199 17.5 10.2999 17.5H11.6999C11.98 17.5 12.12 17.5 12.2269 17.5545C12.321 17.6024 12.3975 17.6789 12.4454 17.773C12.4999 17.88 12.4999 18.02 12.4999 18.3V18.7C12.4999 18.98 12.4999 19.12 12.5544 19.227C12.6024 19.3211 12.6789 19.3976 12.7729 19.4455C12.8799 19.5 13.0199 19.5 13.2999 19.5H15.2C15.48 19.5 15.62 19.5 15.727 19.4455C15.8211 19.3976 15.8976 19.3211 15.9455 19.227C16 19.12 16 18.98 16 18.7V17.7243C16 17.5223 16 17.4212 16.0288 17.3401C16.0563 17.2624 16.0911 17.208 16.15 17.1502C16.2114 17.09 16.3155 17.0417 16.5237 16.945C17.5059 16.489 18.344 15.7751 18.9511 14.8902C19.0579 14.7346 19.1112 14.6568 19.1683 14.6108C19.2228 14.5668 19.2717 14.5411 19.3387 14.521C19.4089 14.5 19.4922 14.5 19.6587 14.5H20.2C20.48 14.5 20.62 14.5 20.727 14.4455C20.8211 14.3976 20.8976 14.3211 20.9455 14.227C21 14.12 21 13.98 21 13.7V10.2857C21 10.0192 21 9.88586 20.9505 9.78303C20.9013 9.681 20.819 9.59867 20.717 9.54953C20.6141 9.5 20.4808 9.5 20.2143 9.5C20.0213 9.5 19.9248 9.5 19.8471 9.4738C19.7633 9.44556 19.7045 9.40798 19.6437 9.34377C19.5874 9.28422 19.5413 9.18464 19.4493 8.98547C19.1538 8.34622 18.7492 7.76777 18.2593 7.27404C18.1555 7.16945 18.1036 7.11716 18.073 7.06687C18.0437 7.01889 18.0267 6.97759 18.0137 6.92294C18 6.86567 18 6.80051 18 6.67018V5.56058C18 5.20053 18 5.02051 17.925 4.89951C17.8593 4.79351 17.7564 4.71588 17.6365 4.68184C17.4995 4.64299 17.3264 4.69245 16.9802 4.79136L14.6077 5.46922C14.5673 5.48074 14.5472 5.4865 14.5267 5.49054C14.5085 5.49414 14.4901 5.49671 14.4716 5.49826C14.4508 5.5 14.4298 5.5 14.3879 5.5H13.959M3.99993 11.5C3.99993 9.19594 5.29864 7.1952 7.20397 6.1899M3.99993 11.5H3C1.89543 11.5 1 10.6046 1 9.5C1 8.75972 1.4022 8.11337 2 7.76756M14 5C14 6.933 12.433 8.5 10.5 8.5C8.567 8.5 7 6.933 7 5C7 3.067 8.567 1.5 10.5 1.5C12.433 1.5 14 3.067 14 5Z" stroke="#0ABDE3" stroke-width="2" stroke-linecap="round" stroke-linejoin="round"/>
</svg>
