<svg width="17" height="24" viewBox="0 0 17 24" fill="none" xmlns="http://www.w3.org/2000/svg">
<path d="M4.61787 20.0738C4.61787 21.0055 6.98637 21.8335 8.03462 21.8335V13.9985C5.73087 13.7993 -0.145382 13.3425 0.450368 11.0035C0.795368 9.64875 1.98812 9.86875 3.21412 10.3768C4.65462 10.9735 5.86912 11.4378 8.03462 11.6403V10.027C8.03462 9.25975 8.00412 8.36875 7.70062 8.079C7.00462 7.4145 4.84412 7.83125 4.33462 7.83125C4.10162 7.83125 3.36437 7.05325 2.87062 6.37775C2.64512 6.06925 2.67187 5.64375 2.93337 5.3655L7.73012 0.25875C7.88512 0.0935 8.10137 0 8.32762 0C8.49212 0 8.65337 0.05 8.78937 0.1425C12.4551 2.638 12.1509 2.60125 12.5956 2.60125C12.8124 2.60125 12.8556 2.49075 13.0291 2.3605L13.6946 2.89975L12.1239 4.68825C11.8426 4.94525 11.4144 4.9585 11.1214 4.71475C10.4841 4.18475 9.68987 3.24775 8.39837 3.17325C7.39212 3.115 6.10437 4.85475 5.71837 5.46925C8.49337 4.95225 10.5094 6.46975 10.5094 8.29075V11.481C12.8084 11.2588 14.0204 10.2185 14.9536 9.137L16.1244 10.0485C15.5656 11.0708 14.3206 13.2455 10.5094 13.89V22.4465C10.5094 22.8948 10.4399 23.2925 10.0996 23.5748C9.76037 23.8568 9.16712 23.9998 8.80512 24C7.48687 24.0008 6.39462 23.8293 5.62787 23.4033C3.83812 22.4088 2.23337 20.3953 2.23337 17.795C2.23337 16.3905 2.87787 14.996 4.50962 14.996C6.33012 14.996 6.26562 17.4995 6.26562 17.6213C6.26562 19.3083 5.19937 19.7298 4.87812 19.8243C4.70462 19.8753 4.61787 19.9578 4.61787 20.0738Z" fill="black"/>
</svg>
