<svg width="15" height="21" viewBox="0 0 15 21" fill="none" xmlns="http://www.w3.org/2000/svg">
<path d="M11.5 0.5H3.50001C2.70436 0.5 1.9413 0.816071 1.37869 1.37868C0.816078 1.94129 0.500008 2.70435 0.500008 3.5V19.5C0.499308 19.6762 0.545183 19.8495 0.632986 20.0023C0.720789 20.155 0.847404 20.2819 1.00001 20.37C1.15203 20.4578 1.32447 20.504 1.50001 20.504C1.67554 20.504 1.84799 20.4578 2.00001 20.37L7.50001 17.19L13 20.37C13.1524 20.4564 13.3248 20.5012 13.5 20.5C13.6752 20.5012 13.8476 20.4564 14 20.37C14.1526 20.2819 14.2792 20.155 14.367 20.0023C14.4548 19.8495 14.5007 19.6762 14.5 19.5V3.5C14.5 2.70435 14.1839 1.94129 13.6213 1.37868C13.0587 0.816071 12.2957 0.5 11.5 0.5ZM12.5 17.77L8.00001 15.17C7.84799 15.0822 7.67554 15.036 7.50001 15.036C7.32447 15.036 7.15203 15.0822 7.00001 15.17L2.50001 17.77V3.5C2.50001 3.23478 2.60536 2.98043 2.7929 2.79289C2.98044 2.60536 3.23479 2.5 3.50001 2.5H11.5C11.7652 2.5 12.0196 2.60536 12.2071 2.79289C12.3947 2.98043 12.5 3.23478 12.5 3.5V17.77Z" fill="#10AC84"/>
</svg>
