<svg width="16" height="12" viewBox="0 0 16 12" fill="none" xmlns="http://www.w3.org/2000/svg">
<path d="M0.666992 6.33325V8.99992C0.666992 9.17673 0.73723 9.3463 0.862254 9.47132C0.987279 9.59635 1.15685 9.66659 1.33366 9.66659H2.00033C2.00033 10.197 2.21104 10.7057 2.58611 11.0808C2.96118 11.4559 3.46989 11.6666 4.00033 11.6666C4.53076 11.6666 5.03947 11.4559 5.41454 11.0808C5.78961 10.7057 6.00033 10.197 6.00033 9.66659H10.0003C10.0003 10.197 10.211 10.7057 10.5861 11.0808C10.9612 11.4559 11.4699 11.6666 12.0003 11.6666C12.5308 11.6666 13.0395 11.4559 13.4145 11.0808C13.7896 10.7057 14.0003 10.197 14.0003 9.66659H14.667C14.8438 9.66659 15.0134 9.59635 15.1384 9.47132C15.2634 9.3463 15.3337 9.17673 15.3337 8.99992V2.33325C15.3337 1.80282 15.1229 1.29411 14.7479 0.919038C14.3728 0.543966 13.8641 0.333252 13.3337 0.333252H5.62699C5.20802 0.334036 4.79988 0.466374 4.46017 0.711589C4.12046 0.956804 3.86633 1.30251 3.73366 1.69992L2.77366 4.57325L0.966992 5.77992C0.875285 5.84031 0.799915 5.92242 0.747579 6.01895C0.695242 6.11548 0.66756 6.22345 0.666992 6.33325ZM14.0003 4.33325H12.667V1.66659H13.3337C13.5105 1.66659 13.68 1.73682 13.8051 1.86185C13.9301 1.98687 14.0003 2.15644 14.0003 2.33325V4.33325ZM11.3337 9.66659C11.3337 9.53473 11.3728 9.40584 11.446 9.29621C11.5193 9.18657 11.6234 9.10112 11.7452 9.05067C11.867 9.00021 12.0011 8.98701 12.1304 9.01273C12.2597 9.03845 12.3785 9.10195 12.4717 9.19518C12.565 9.28842 12.6285 9.4072 12.6542 9.53652C12.6799 9.66585 12.6667 9.79989 12.6162 9.92171C12.5658 10.0435 12.4803 10.1476 12.3707 10.2209C12.2611 10.2942 12.1322 10.3333 12.0003 10.3333C11.8235 10.3333 11.6539 10.263 11.5289 10.138C11.4039 10.013 11.3337 9.8434 11.3337 9.66659ZM10.0003 5.66659H14.0003V8.33325H13.4803C13.2929 8.12702 13.0644 7.96223 12.8095 7.84947C12.5546 7.73671 12.279 7.67847 12.0003 7.67847C11.7216 7.67847 11.446 7.73671 11.1911 7.84947C10.9363 7.96223 10.7078 8.12702 10.5203 8.33325H10.0003V5.66659ZM10.0003 1.66659H11.3337V4.33325H10.0003V1.66659ZM7.33366 5.66659H8.66699V8.33325H7.33366V5.66659ZM7.33366 1.66659H8.66699V4.33325H7.33366V1.66659ZM6.00033 4.33325H4.26033L4.99366 2.11992C5.03838 1.9875 5.12359 1.8725 5.23724 1.79115C5.35089 1.7098 5.48723 1.66622 5.62699 1.66659H6.00033V4.33325ZM3.33366 9.66659C3.33366 9.53473 3.37276 9.40584 3.44601 9.29621C3.51927 9.18657 3.62339 9.10112 3.7452 9.05067C3.86702 9.00021 4.00106 8.98701 4.13039 9.01273C4.25971 9.03845 4.37849 9.10195 4.47173 9.19518C4.56496 9.28842 4.62846 9.4072 4.65418 9.53652C4.67991 9.66585 4.6667 9.79989 4.61625 9.92171C4.56579 10.0435 4.48034 10.1476 4.37071 10.2209C4.26107 10.2942 4.13218 10.3333 4.00033 10.3333C3.82351 10.3333 3.65395 10.263 3.52892 10.138C3.4039 10.013 3.33366 9.8434 3.33366 9.66659ZM2.00033 6.66659L3.53366 5.66659H6.00033V8.33325H5.48033C5.29287 8.12702 5.06438 7.96223 4.80951 7.84947C4.55465 7.73671 4.27902 7.67847 4.00033 7.67847C3.72163 7.67847 3.44601 7.73671 3.19114 7.84947C2.93627 7.96223 2.70778 8.12702 2.52033 8.33325H2.00033V6.66659Z" fill="white"/>
</svg>
