<svg width="36" height="37" viewBox="0 0 36 37" fill="none" xmlns="http://www.w3.org/2000/svg">
<g clip-path="url(#clip0_202_979)">
<path d="M9.63862 18.4996C9.63862 13.8665 13.4197 10.1386 17.9996 10.1386C18.4789 10.1386 18.9049 9.71263 18.9049 9.23338C18.9049 8.75413 18.4789 8.32812 17.9996 8.32812C12.408 8.32812 7.82812 12.908 7.82812 18.4996C7.82812 21.908 9.53212 25.0497 12.3547 26.9671C12.5145 27.0736 12.6742 27.1269 12.834 27.1269C13.1002 27.1269 13.4197 26.9671 13.5795 26.7541C13.8457 26.3281 13.7392 25.7956 13.3132 25.5294C11.0231 23.9315 9.63862 21.3223 9.63862 18.4996Z" fill="#10AC84"/>
<path d="M23.1124 9.7122C22.6864 9.44595 22.1539 9.6057 21.8876 10.0317C21.6214 10.4577 21.7811 10.9902 22.2071 11.2564C24.7635 12.7478 26.361 15.5168 26.361 18.4992C26.361 20.7361 25.509 22.8661 23.9111 24.4103C23.1656 25.1558 22.2604 25.7952 21.2486 26.2212C21.0356 26.3277 20.8226 26.3809 20.6096 26.4342C19.9702 26.6472 19.278 26.8069 18.639 26.8602C18.426 26.8602 18.213 26.8602 18 26.8602C17.5207 26.8602 17.0947 27.2862 17.0947 27.7654C17.0947 28.2447 17.5207 28.6707 18 28.6707C18.2662 28.6707 18.5325 28.6707 18.7987 28.6174C19.5975 28.5642 20.4499 28.4044 21.1954 28.1382C21.4616 28.0317 21.7279 27.9784 21.9409 27.8719C23.1656 27.3394 24.2306 26.6472 25.1895 25.6887C27.1065 23.7713 28.1715 21.2153 28.1715 18.4992C28.1715 14.8778 26.2545 11.5227 23.1124 9.7122Z" fill="#10AC84"/>
<path d="M35.0947 17.5947H32.9111C32.4851 10.0857 26.4142 4.01487 18.9053 3.58888V1.40525C18.9053 0.926 18.4792 0.5 18 0.5C17.5208 0.5 17.0947 0.926 17.0947 1.40525V3.58888C9.58575 4.01487 3.51487 10.0857 3.08888 17.5947H0.90525C0.426 17.5947 0 18.0208 0 18.5C0 18.9792 0.426 19.4053 0.90525 19.4053H3.08888C3.51487 26.9142 9.58575 32.9851 17.0947 33.4111V35.5947C17.0947 36.074 17.5208 36.5 18 36.5C18.4792 36.5 18.9053 36.074 18.9053 35.5947V33.4111C26.4142 32.9851 32.4851 26.9142 32.9111 19.4053H35.0947C35.574 19.4053 36 18.9792 36 18.5C36 18.0208 35.574 17.5947 35.0947 17.5947ZM18.9053 31.6006V31.2279C18.9053 30.7486 18.4792 30.3226 18 30.3226C17.5208 30.3226 17.0947 30.7486 17.0947 31.2279V31.6006C10.5975 31.1746 5.37862 25.9557 4.89937 19.4053H5.27213C5.75138 19.4053 6.17737 18.9792 6.17737 18.5C6.17737 18.0208 5.75138 17.5947 5.27213 17.5947H4.89937C5.37862 11.0975 10.5975 5.87862 17.0947 5.39937V5.77213C17.0947 6.25138 17.5208 6.67737 18 6.67737C18.4792 6.67737 18.9053 6.25138 18.9053 5.77213V5.39937C25.4557 5.82538 30.6746 11.0443 31.1006 17.5947H30.7279C30.2486 17.5947 29.8226 18.0208 29.8226 18.5C29.8226 18.9792 30.2486 19.4053 30.7279 19.4053H31.1006C30.6746 25.9557 25.4557 31.1746 18.9053 31.6006Z" fill="#10AC84"/>
<path d="M17.2549 22.9727V24.0377H19.0654V22.9727C20.7166 22.9194 21.9946 21.7479 21.9946 20.3098V20.2033C21.9946 19.6176 21.6751 18.7656 20.2373 18.0201L20.1304 17.9668L19.9707 17.9136L17.4679 17.4343L16.5094 17.2213C15.9237 16.9018 15.8704 16.6888 15.8704 16.6888V16.6356C15.8704 16.1559 16.4562 15.7832 17.1484 15.7832H18.9057C19.5979 15.7832 20.1837 16.2092 20.1837 16.6356H21.9946C21.9946 15.1974 20.7166 14.0259 19.0654 13.9727V12.9609H17.2549V13.9727H17.1484C15.4441 13.9727 14.0596 15.1974 14.0596 16.6356V16.7421C14.0596 17.5941 14.6453 18.3396 15.7639 18.9253L15.8704 18.9786L17.1484 19.2448L19.4914 19.7241C19.9707 19.9903 20.1304 20.2033 20.1837 20.2566V20.3631C20.1837 20.8427 19.5979 21.2154 18.9057 21.2154H17.1484C16.4562 21.2154 15.8704 20.7894 15.8704 20.3631H14.0596C14.0596 21.8544 15.4441 23.0259 17.1484 23.0259H17.2549V22.9727Z" fill="#10AC84"/>
</g>
<defs>
<clipPath id="clip0_202_979">
<rect width="36" height="36" fill="white" transform="translate(0 0.5)"/>
</clipPath>
</defs>
</svg>
