<svg width="21" height="13" viewBox="0 0 21 13" fill="none" xmlns="http://www.w3.org/2000/svg">
<path d="M19.5002 5.49994C19.235 5.49994 18.9806 5.6053 18.7931 5.79283C18.6055 5.98037 18.5002 6.23472 18.5002 6.49994V9.08994L12.2102 2.78994C12.1172 2.69621 12.0066 2.62182 11.8848 2.57105C11.7629 2.52028 11.6322 2.49414 11.5002 2.49414C11.3682 2.49414 11.2375 2.52028 11.1156 2.57105C10.9937 2.62182 10.8831 2.69621 10.7902 2.78994L7.50019 6.08994L2.21019 0.789941C2.02188 0.601638 1.76649 0.49585 1.50019 0.49585C1.23388 0.49585 0.978489 0.601638 0.790185 0.789941C0.601882 0.978245 0.496094 1.23364 0.496094 1.49994C0.496094 1.76624 0.601882 2.02164 0.790185 2.20994L6.79019 8.20994C6.88315 8.30367 6.99375 8.37806 7.11561 8.42883C7.23747 8.4796 7.36817 8.50574 7.50019 8.50574C7.6322 8.50574 7.7629 8.4796 7.88476 8.42883C8.00662 8.37806 8.11722 8.30367 8.21019 8.20994L11.5002 4.90994L17.0902 10.4999H14.5002C14.235 10.4999 13.9806 10.6053 13.7931 10.7928C13.6055 10.9804 13.5002 11.2347 13.5002 11.4999C13.5002 11.7652 13.6055 12.0195 13.7931 12.207C13.9806 12.3946 14.235 12.4999 14.5002 12.4999H19.5002C19.6309 12.4984 19.76 12.4712 19.8802 12.4199C20.1245 12.3185 20.3187 12.1243 20.4202 11.8799C20.4714 11.7597 20.4986 11.6306 20.5002 11.4999V6.49994C20.5002 6.23472 20.3948 5.98037 20.2073 5.79283C20.0198 5.6053 19.7654 5.49994 19.5002 5.49994Z" fill="#EE5353"/>
</svg>
