<svg width="21" height="21" viewBox="0 0 21 21" fill="none" xmlns="http://www.w3.org/2000/svg">
<path d="M10.5 7.5C9.90666 7.5 9.32664 7.67595 8.83329 8.00559C8.33994 8.33524 7.95542 8.80377 7.72836 9.35195C7.5013 9.90013 7.44189 10.5033 7.55764 11.0853C7.6734 11.6672 7.95912 12.2018 8.37868 12.6213C8.79824 13.0409 9.33279 13.3266 9.91473 13.4424C10.4967 13.5581 11.0999 13.4987 11.6481 13.2716C12.1962 13.0446 12.6648 12.6601 12.9944 12.1667C13.3241 11.6734 13.5 11.0933 13.5 10.5C13.5 9.70435 13.1839 8.94129 12.6213 8.37868C12.0587 7.81607 11.2956 7.5 10.5 7.5ZM10.5 11.5C10.3022 11.5 10.1089 11.4414 9.94443 11.3315C9.77998 11.2216 9.65181 11.0654 9.57612 10.8827C9.50043 10.7 9.48063 10.4989 9.51921 10.3049C9.5578 10.1109 9.65304 9.93275 9.79289 9.79289C9.93275 9.65304 10.1109 9.5578 10.3049 9.51921C10.4989 9.48063 10.7 9.50043 10.8827 9.57612C11.0654 9.65181 11.2216 9.77998 11.3315 9.94443C11.4414 10.1089 11.5 10.3022 11.5 10.5C11.5 10.7652 11.3946 11.0196 11.2071 11.2071C11.0196 11.3946 10.7652 11.5 10.5 11.5ZM19.5 9.5H18.43C18.2068 7.73998 17.4049 6.10408 16.1504 4.84959C14.8959 3.5951 13.26 2.79319 11.5 2.57V1.5C11.5 1.23478 11.3946 0.98043 11.2071 0.792893C11.0196 0.605357 10.7652 0.5 10.5 0.5C10.2348 0.5 9.98043 0.605357 9.79289 0.792893C9.60536 0.98043 9.5 1.23478 9.5 1.5V2.57C7.73998 2.79319 6.10408 3.5951 4.84959 4.84959C3.5951 6.10408 2.79319 7.73998 2.57 9.5H1.5C1.23478 9.5 0.98043 9.60536 0.792893 9.79289C0.605357 9.98043 0.5 10.2348 0.5 10.5C0.5 10.7652 0.605357 11.0196 0.792893 11.2071C0.98043 11.3946 1.23478 11.5 1.5 11.5H2.57C2.79319 13.26 3.5951 14.8959 4.84959 16.1504C6.10408 17.4049 7.73998 18.2068 9.5 18.43V19.5C9.5 19.7652 9.60536 20.0196 9.79289 20.2071C9.98043 20.3946 10.2348 20.5 10.5 20.5C10.7652 20.5 11.0196 20.3946 11.2071 20.2071C11.3946 20.0196 11.5 19.7652 11.5 19.5V18.43C13.26 18.2068 14.8959 17.4049 16.1504 16.1504C17.4049 14.8959 18.2068 13.26 18.43 11.5H19.5C19.7652 11.5 20.0196 11.3946 20.2071 11.2071C20.3946 11.0196 20.5 10.7652 20.5 10.5C20.5 10.2348 20.3946 9.98043 20.2071 9.79289C20.0196 9.60536 19.7652 9.5 19.5 9.5ZM10.5 16.5C9.31331 16.5 8.15327 16.1481 7.16658 15.4888C6.17988 14.8295 5.41085 13.8925 4.95672 12.7961C4.5026 11.6997 4.38378 10.4933 4.61529 9.32946C4.8468 8.16557 5.41824 7.09647 6.25736 6.25736C7.09647 5.41824 8.16557 4.8468 9.32946 4.61529C10.4933 4.38378 11.6997 4.5026 12.7961 4.95672C13.8925 5.41085 14.8295 6.17988 15.4888 7.16658C16.1481 8.15327 16.5 9.31331 16.5 10.5C16.5 12.0913 15.8679 13.6174 14.7426 14.7426C13.6174 15.8679 12.0913 16.5 10.5 16.5Z" fill="#10AC84"/>
</svg>
