<svg width="93" height="89" viewBox="0 0 93 89" fill="none" xmlns="http://www.w3.org/2000/svg">
<path d="M20.9758 9.39307C15.0152 10.0593 10.2441 14.7637 9.55445 20.6601C7.7019 36.4994 7.7019 52.5006 9.55445 68.3399C10.2441 74.2363 15.0152 78.9407 20.9758 79.6069C36.4801 81.3398 52.5198 81.3398 68.0241 79.6069C73.9847 78.9407 78.7558 74.2363 79.4454 68.3399C80.7766 56.9589 81.1512 45.4944 80.5695 34.0663C80.5544 33.7712 80.6647 33.4833 80.8736 33.2744L86.2839 27.8641C86.9101 27.2379 87.9801 27.6294 88.0466 28.5126C89.0677 42.0798 88.7871 55.7205 87.205 69.2475C86.086 78.815 78.4043 86.3079 68.8919 87.3711C52.8109 89.1684 36.189 89.1684 20.108 87.3711C10.5956 86.3079 2.91385 78.815 1.79485 69.2475C-0.12823 52.8052 -0.12823 36.1948 1.79485 19.7525C2.91385 10.185 10.5956 2.69206 20.108 1.62891C36.189 -0.168377 52.8109 -0.168377 68.8919 1.62891C72.2422 2.00336 75.3654 3.17539 78.0547 4.95473C78.5839 5.30486 78.6364 6.04881 78.1877 6.49749L74.006 10.6792C73.664 11.0212 73.1335 11.0788 72.7071 10.8503C71.2831 10.0873 69.7007 9.58045 68.0241 9.39307C52.5198 7.66024 36.4801 7.66024 20.9758 9.39307Z" fill="#F2F2F2"/>
<path d="M91.5328 13.408C93.0583 11.8825 93.0583 9.40918 91.5328 7.8837C90.0074 6.35821 87.534 6.35821 86.0086 7.8837L41.8957 51.9966L29.0328 39.1337C27.5074 37.6082 25.0341 37.6082 23.5086 39.1337C21.9831 40.6592 21.9831 43.1325 23.5086 44.658L39.1336 60.283C40.6591 61.8085 43.1324 61.8085 44.6578 60.283L91.5328 13.408Z" fill="#F2F2F2"/>
</svg>
