<svg width="101" height="100" viewBox="0 0 101 100" fill="none" xmlns="http://www.w3.org/2000/svg">
<g clip-path="url(#clip0_1123_6666)">
<path d="M61.1762 58.8971C61.1762 64.1794 57.3189 68.5585 52.2794 69.4137V71.3523C52.2794 72.3325 51.4804 73.1314 50.5002 73.1314C49.52 73.1314 48.721 72.3325 48.721 71.3523V69.4137C43.6814 68.5585 39.8242 64.1794 39.8242 58.8971C39.8242 57.9169 40.6231 57.1179 41.6033 57.1179C42.5835 57.1179 43.3825 57.9169 43.3825 58.8971C43.3825 62.2054 45.6627 64.9648 48.721 65.7637V51.62C43.6814 50.7648 39.8242 46.3856 39.8242 41.1033C39.8242 35.821 43.6814 31.4419 48.721 30.5867V28.6481C48.721 27.6679 49.52 26.8689 50.5002 26.8689C51.4804 26.8689 52.2794 27.6679 52.2794 28.6481V30.5867C57.3189 31.4419 61.1762 35.821 61.1762 41.1033C61.1762 42.0835 60.3773 42.8825 59.3971 42.8825C58.4169 42.8825 57.6179 42.0835 57.6179 41.1033C57.6179 37.795 55.3377 35.0356 52.2794 34.2367V48.3804C57.3189 49.2356 61.1762 53.6148 61.1762 58.8971ZM50.5002 23.3096C35.7783 23.3096 23.8096 35.2856 23.8096 50.0002C23.8096 64.7221 35.7783 76.6908 50.5002 76.6908C65.2221 76.6908 77.1908 64.7221 77.1908 50.0002C77.1908 35.2856 65.2221 23.3096 50.5002 23.3096Z" fill="#656B9F"/>
<path d="M52.2793 65.7637C55.3376 64.9647 57.6178 62.2053 57.6178 58.897C57.6178 55.5887 55.3376 52.8293 52.2793 52.0293V65.7637Z" fill="#656B9F"/>
<path d="M43.3818 41.103C43.3818 44.4113 45.662 47.1707 48.7204 47.9707V34.2363C45.662 35.0353 43.3818 37.7947 43.3818 41.103Z" fill="#656B9F"/>
<path d="M84.7945 68.4394C84.0715 67.7728 83.0976 67.6123 82.2018 68.0019C81.2913 68.405 80.7559 69.2321 80.7559 70.2259V74.9113C80.7559 75.8905 79.9559 76.6905 78.9768 76.6905H64.707C60.4674 78.9561 55.6361 80.2488 50.4997 80.2488C45.3632 80.2488 40.532 78.9561 36.2924 76.6905H32.7059C31.7257 76.6905 30.9268 77.4894 30.9268 78.4696V89.1457C30.9268 90.1259 31.7257 90.9248 32.7059 90.9248H78.9768C79.9559 90.9248 80.7559 91.7248 80.7559 92.704V97.3894C80.7559 98.3832 81.2913 99.2103 82.2018 99.6134C83.0976 100.003 84.0715 99.8426 84.7945 99.1759L99.5507 85.5936C100.043 85.1353 100.322 84.503 100.322 83.8082C100.322 83.1123 100.043 82.48 99.5507 82.0217L84.7945 68.4394Z" fill="#8E92B9"/>
<path d="M18.7975 0.386686C17.9017 -0.00289705 16.9277 0.15752 16.1986 0.824187L1.45586 14.4065C0.955859 14.8648 0.677734 15.4971 0.677734 16.1919C0.677734 16.8877 0.955859 17.52 1.44857 17.9784L16.2048 31.5606C16.9277 32.2273 17.9017 32.3877 18.7975 31.9981C19.7079 31.595 20.2434 30.7679 20.2434 29.7742V25.0888C20.2434 24.1096 21.0434 23.3096 22.0225 23.3096H36.2923C40.5319 21.044 45.3631 19.7513 50.4996 19.7513C55.6361 19.7513 60.4673 21.044 64.7069 23.3096H68.2934C69.2736 23.3096 70.0725 22.5106 70.0725 21.5304V10.8544C70.0725 9.87419 69.2736 9.07523 68.2934 9.07523H22.0225C21.0434 9.07523 20.2434 8.27523 20.2434 7.29606V2.61064C20.2434 1.61689 19.7079 0.789812 18.7975 0.386686Z" fill="#A4A7C6"/>
</g>
<defs>
<clipPath id="clip0_1123_6666">
<rect width="100" height="100" fill="white" transform="translate(0.5)"/>
</clipPath>
</defs>
</svg>
