<svg width="36" height="37" viewBox="0 0 36 37" fill="none" xmlns="http://www.w3.org/2000/svg">
<g clip-path="url(#clip0_202_623)">
<path d="M27.8379 30.3317V28.3727C28.5091 28.5962 28.9565 28.7657 28.9565 29.3792C29.0139 29.996 28.4547 30.2743 27.8379 30.3317ZM27.17 26.8097C26.5531 26.5858 26.1057 26.4167 26.1057 25.8028C26.1057 25.2437 26.6105 24.9624 27.17 24.908V26.8097ZM27.8952 27.0335L27.8379 24.9624C28.397 25.0198 28.9021 25.2437 29.4039 25.5793L30.1325 24.5724C29.4039 24.0707 28.6752 23.7894 27.8379 23.735V23.1759H27.1122V23.735C25.7701 23.7894 24.7089 24.6268 24.7089 25.9693C24.7089 27.3658 25.658 27.8132 27.1122 28.2065V30.2743C26.4414 30.1622 25.8275 29.8269 25.2106 29.3248L24.4854 30.2743C25.2684 30.9452 26.1601 31.3929 27.17 31.4473V32.2303H27.8952V31.4473C29.2921 31.3929 30.353 30.6099 30.353 29.213C30.353 27.8132 29.2921 27.3692 27.8952 27.0335Z" fill="white"/>
<path d="M22.4712 17.4167C22.4712 17.081 22.2477 16.8572 21.9121 16.8572H16.7153V10.1522C16.7153 9.81653 16.4914 9.59265 16.1558 9.59265C15.8202 9.59265 15.5967 9.81653 15.5967 10.1522V17.4167C15.5967 17.7523 15.8202 17.9758 16.1558 17.9758H21.9121C22.2477 17.9758 22.4712 17.6979 22.4712 17.4167Z" fill="white"/>
<mask id="mask0_202_623" style="mask-type:luminance" maskUnits="userSpaceOnUse" x="0" y="0" width="36" height="37">
<path d="M0 0.704346H36V36.3113H0V0.704346Z" fill="white"/>
</mask>
<g mask="url(#mask0_202_623)">
<path d="M27.39 35.1927C23.2541 35.1927 19.9016 31.8402 19.9016 27.7013C19.9016 23.5658 23.2541 20.213 27.39 20.213C31.5289 20.213 34.8814 23.5658 34.8814 27.7013C34.8814 31.8402 31.5289 35.1927 27.39 35.1927ZM18.8404 27.7587C18.8404 27.9826 18.8404 28.2065 18.8948 28.3726C18.2239 28.5417 17.4983 28.6538 16.7696 28.6538V26.9757C16.7696 26.6401 16.5457 26.4166 16.2101 26.4166C15.8745 26.4166 15.651 26.6401 15.651 26.9757V28.6538C12.912 28.5417 10.2847 27.4808 8.27437 25.5792L9.44738 24.4062C9.67125 24.1823 9.67125 23.8471 9.44738 23.6232C9.22388 23.3993 8.88825 23.3993 8.66438 23.6232L7.49137 24.7962C5.53538 22.7825 4.47113 20.213 4.35938 17.4166H6.03713C6.37275 17.4166 6.59662 17.1927 6.59662 16.8571C6.59662 16.5215 6.37275 16.301 6.03713 16.301H4.35938C4.47113 13.562 5.53237 10.9895 7.434 8.92135L8.61 10.0943C8.8305 10.3182 9.16613 10.3182 9.39 10.0943C9.6135 9.87085 9.6135 9.53522 9.39 9.31135L8.217 8.13835C10.2847 6.29447 12.8576 5.23022 15.5966 5.06372V6.74185C15.5966 7.0741 15.8201 7.29797 16.1558 7.29797C16.4914 7.29797 16.7153 7.0741 16.7153 6.74185V5.06372C19.4543 5.17585 22.0815 6.23672 24.0949 8.13835L22.9185 9.31135C22.695 9.53522 22.695 9.87085 22.9185 10.0943C23.1424 10.3182 23.478 10.3182 23.7019 10.0943L24.8745 8.92135C26.7188 10.9895 27.8374 13.562 27.9491 16.301H26.2714C25.9387 16.301 25.7153 16.5215 25.7153 16.8571C25.7153 17.1927 25.9387 17.4166 26.2714 17.4166H27.9491C27.9491 17.9757 27.8404 18.5926 27.7286 19.1487H27.39C22.695 19.1487 18.8404 23.0063 18.8404 27.7587ZM16.1558 31.8946C7.88137 31.8946 1.11863 25.1862 1.11863 16.8605C1.11863 8.58572 7.88137 1.82297 16.1558 1.82297C24.4271 1.82297 31.1933 8.58572 31.1933 16.8605C31.1933 17.864 31.0815 18.8708 30.8576 19.8773C30.2441 19.5961 29.5729 19.3726 28.8442 19.2638C29.0134 18.4808 29.0678 17.6401 29.0678 16.8605C29.0678 9.70435 23.2541 3.94547 16.1558 3.94547C9 3.94547 3.18638 9.75872 3.18638 16.8605C3.18638 23.9588 8.94263 29.7725 16.0984 29.8268C17.0509 29.8268 18 29.7147 18.9491 29.4912C19.1186 30.1621 19.3425 30.8333 19.6204 31.4472C18.5591 31.7285 17.3288 31.8946 16.1558 31.8946ZM31.9185 20.4368C32.1968 19.2638 32.3085 18.0878 32.3085 16.8571C32.3085 7.96922 25.044 0.704346 16.1558 0.704346C7.26788 0.758721 0 7.96922 0 16.8571C0 25.7453 7.26788 33.0132 16.1558 33.0132C17.5526 33.0132 18.9491 32.8471 20.2339 32.4537C21.8003 34.7453 24.4271 36.3113 27.39 36.3113C32.1424 36.3113 36 32.4537 36 27.7013C36 24.6841 34.3252 21.9451 31.9185 20.4368Z" fill="white"/>
</g>
</g>
<defs>
<clipPath id="clip0_202_623">
<rect width="36" height="36" fill="white" transform="translate(0 0.5)"/>
</clipPath>
</defs>
</svg>
