<svg width="81" height="90" viewBox="0 0 81 90" fill="none" xmlns="http://www.w3.org/2000/svg">
<path fill-rule="evenodd" clip-rule="evenodd" d="M18.3644 23.0625C18.3644 10.8375 28.2748 0.927124 40.4998 0.927124C52.7249 0.927124 62.6353 10.8375 62.6353 23.0625C62.6353 35.2876 52.7249 45.198 40.4998 45.198C28.2748 45.198 18.3644 35.2876 18.3644 23.0625ZM40.4998 8.73962C32.5895 8.73962 26.1769 15.1522 26.1769 23.0625C26.1769 30.9729 32.5895 37.3855 40.4998 37.3855C48.4102 37.3855 54.8228 30.9729 54.8228 23.0625C54.8228 15.1522 48.4102 8.73962 40.4998 8.73962Z" fill="#F2F2F2"/>
<path fill-rule="evenodd" clip-rule="evenodd" d="M19.6665 60.823C13.1944 60.823 7.94775 66.0696 7.94775 72.5417V78.7307C7.94775 78.8249 8.01605 78.9053 8.10905 78.9204C29.5609 82.4228 51.4388 82.4228 72.8906 78.9204C72.9836 78.9053 73.0519 78.8249 73.0519 78.7307V72.5417C73.0519 66.0696 67.8053 60.823 61.3332 60.823H59.5578C59.4205 60.823 59.2841 60.8447 59.1536 60.8873L54.6458 62.3592C45.4539 65.3606 35.5457 65.3606 26.3539 62.3592L21.846 60.8873C21.7155 60.8447 21.5791 60.823 21.4419 60.823H19.6665ZM0.135254 72.5417C0.135254 61.7549 8.87969 53.0105 19.6665 53.0105H21.4419C22.4028 53.0105 23.3576 53.1624 24.271 53.4607L28.7789 54.9326C36.395 57.4195 44.6047 57.4195 52.2207 54.9326L56.7286 53.4607C57.6421 53.1624 58.5969 53.0105 59.5578 53.0105H61.3332C72.12 53.0105 80.8644 61.7549 80.8644 72.5417V78.7307C80.8644 82.6538 78.0213 85.9987 74.1495 86.6309C51.8639 90.2693 29.1358 90.2693 6.85021 86.6309C2.9784 85.9987 0.135254 82.6538 0.135254 78.7307V72.5417Z" fill="#F2F2F2"/>
</svg>
